<?xml version="1.0" encoding="utf-8"?>
<!-- Generator: Adobe Illustrator 16.0.0, SVG Export Plug-In . SVG Version: 6.00 Build 0)  -->
<!DOCTYPE svg PUBLIC "-//W3C//DTD SVG 1.1//EN" "http://www.w3.org/Graphics/SVG/1.1/DTD/svg11.dtd">
<svg version="1.1" id="Layer_1" xmlns="http://www.w3.org/2000/svg" xmlns:xlink="http://www.w3.org/1999/xlink" x="0px" y="0px"
	 width="800px" height="800px" viewBox="0 0 800 800" enable-background="new 0 0 800 800" xml:space="preserve">
<circle fill="#FED262" cx="400" cy="400" r="400"/>
<g>
	<path fill="#B3B6B7" d="M406.062,447.145c0.043-3.551-0.033-7.175-0.278-10.832c-0.501-7.492-1.525-14.765-3.054-21.863
		l22.275-15.343l-0.64-2.167c-4.646-16.142-11.514-31.302-20.19-45.178l-1.262-2.011l-25.45,7.654
		c-6.946-9.702-15.021-18.535-24.008-26.332l8.893-25.363l-1.72-1.32c-12.994-9.792-27.276-17.848-42.547-23.858l-2.15-0.818
		l-16.137,21.146c-11.681-3.724-23.916-6.078-36.562-6.885l-7.691-25.598l-2.265-0.005c-3.944-0.004-7.95,0.078-11.975,0.348
		c-12.429,0.832-24.464,2.947-36.022,6.149l-2.227,0.588l-0.615,26.763c-11.791,4.17-22.909,9.737-33.171,16.455l-21.124-16.141
		l-1.862,1.418c-13.075,9.858-24.769,21.433-34.673,34.364l-1.351,1.787l15.327,22.155c-6.441,9.697-11.815,20.262-15.896,31.326
		l-26.526-0.609l-0.636,2.221c-4.74,15.631-7.328,32.172-7.498,49.189L75,446.552l25.54,8.951c0,0.402,0.028,0.806,0.057,1.244
		c0.706,10.551,2.523,20.822,5.226,30.634l-21.839,15.053l0.73,2.221c5.611,16.279,13.438,31.396,23.19,45.098l1.259,1.773
		l26.004-7.733c6.293,7.563,13.271,14.577,20.9,20.836l-8.843,25.2l1.841,1.356c13.896,9.977,29.246,18.045,45.661,23.742
		l2.066,0.711l16.435-21.495c8.867,2.432,18.17,4.041,27.588,4.793l7.684,25.702l2.295,0.003c4.653,0.073,9.449,0.028,14.321-0.295
		c12.736-0.854,25.057-3.081,36.884-6.423l2.188-0.641l0.63-26.818c8.928-3.197,17.455-7.216,25.557-11.929l21.459,16.374
		l1.827-1.243c14.28-9.766,26.962-21.479,37.773-34.757l1.494-1.776l-15.149-21.903c5.824-8.112,10.798-16.895,14.929-26.088
		l27.118,0.644l0.752-2.098c5.706-15.546,9.277-32.2,10.431-49.427l0.114-2.355L406.062,447.145z M259.761,551.285
		c-57.837,3.874-107.863-39.874-111.736-97.709c-3.874-57.838,39.872-107.865,97.71-111.738
		c57.838-3.874,107.863,39.873,111.735,97.711C361.345,497.388,317.601,547.411,259.761,551.285z"/>
	<path fill="#B3B6B7" d="M322.564,441.885c2.582,38.563-26.582,71.91-65.139,74.493c-38.56,2.582-71.91-26.582-74.492-65.142
		c-2.583-38.558,26.581-71.909,65.141-74.492C286.631,374.164,319.982,403.329,322.564,441.885z"/>
	<path fill="#AF9985" d="M524.452,250.404c0.341-1.744,0.63-3.533,0.84-5.355c0.427-3.73,0.579-7.401,0.466-11.03l12.34-5.542
		l-0.122-1.125c-0.834-8.359-2.843-16.435-5.864-24.044l-0.438-1.102l-13.212,1.474c-2.544-5.399-5.722-10.471-9.441-15.115
		l6.658-11.678l-0.728-0.804c-5.512-5.988-11.813-11.237-18.786-15.568l-0.981-0.597l-9.845,8.951
		c-5.41-2.883-11.217-5.144-17.367-6.679l-1.479-13.285l-1.113-0.208c-1.939-0.355-3.918-0.676-5.924-0.906
		c-6.189-0.71-12.3-0.752-18.275-0.218l-1.146,0.089l-2.713,13.111c-6.176,0.99-12.147,2.727-17.801,5.11l-8.939-9.843l-1.045,0.53
		c-7.32,3.671-14.114,8.314-20.152,13.785l-0.825,0.757l5.548,12.281c-4.042,4.191-7.636,8.902-10.643,13.979l-12.996-2.689
		l-0.512,1.037c-3.739,7.265-6.5,15.168-8.118,23.524l-0.208,1.064l11.76,6.705c-0.035,0.196-0.06,0.396-0.084,0.617
		c-0.602,5.251-0.636,10.47-0.186,15.539l-12.1,5.442l0.159,1.156c1.294,8.517,3.784,16.658,7.349,24.277l0.46,0.985l13.487-1.466
		c2.416,4.29,5.218,8.368,8.409,12.134l-6.62,11.601l0.784,0.834c5.941,6.158,12.765,11.512,20.329,15.792l0.949,0.535l10.021-9.094
		c4.145,1.993,8.576,3.623,13.144,4.84l1.467,13.336l1.127,0.208c2.283,0.457,4.646,0.865,7.073,1.143
		c6.344,0.727,12.606,0.743,18.723,0.161l1.138-0.118l2.723-13.138c4.682-0.769,9.237-1.977,13.647-3.566l9.082,9.986l1.013-0.447
		c7.903-3.518,15.198-8.141,21.713-13.7l0.895-0.738l-5.48-12.141c3.595-3.465,6.832-7.338,9.692-11.489l13.285,2.758l0.558-0.965
		c4.205-7.135,7.461-15.008,9.581-23.378l0.267-1.147L524.452,250.404z M443.1,288.469c-28.803-3.298-49.476-29.327-46.175-58.131
		c3.3-28.803,29.324-49.475,58.129-46.174c28.808,3.3,49.479,29.327,46.179,58.13C497.931,271.097,471.906,291.771,443.1,288.469z"
		/>
	<circle fill="#AF9985" cx="449.078" cy="236.315" r="34.997"/>
	<path fill="#6D95A2" d="M691.445,488.304c1.311-2.32,2.578-4.724,3.744-7.213c2.389-5.099,4.355-10.247,5.928-15.461l20.188-1.991
		l0.364-1.653c2.803-12.283,3.799-24.724,3.132-36.982l-0.094-1.775l-19.485-4.207c-1.04-8.894-3.139-17.616-6.209-25.994
		l15.038-13.427l-0.649-1.49c-4.979-11.142-11.432-21.611-19.275-31.094l-1.116-1.316l-18.261,8.027
		c-6.316-6.681-13.494-12.666-21.505-17.783l4.237-19.593l-1.48-0.826c-2.592-1.434-5.252-2.833-7.988-4.114
		c-8.466-3.965-17.13-6.941-25.882-9.031l-1.673-0.421l-10.111,17.344c-9.25-1.538-18.569-1.919-27.743-1.229l-8.012-18.259
		l-1.737,0.255c-12.161,1.727-24.032,5.085-35.227,9.981l-1.534,0.682l2.022,20.105c-7.746,4.028-15.103,9.015-21.796,14.797
		l-17.194-10.025l-1.221,1.229c-8.782,8.543-16.48,18.461-22.767,29.569l-0.806,1.414l13.519,15.141
		c-0.145,0.262-0.272,0.539-0.412,0.838c-3.364,7.181-5.896,14.585-7.68,22.005l-19.799,1.959l-0.324,1.724
		c-2.224,12.723-2.567,25.486-1.138,38.02l0.187,1.615l19.875,4.358c1.386,7.245,3.422,14.382,6.161,21.255l-14.946,13.34
		l0.716,1.558c5.502,11.589,12.651,22.455,21.36,32.148l1.1,1.216l18.586-8.145c4.938,4.809,10.459,9.239,16.37,13.152
		l-4.278,19.654l1.503,0.836c3.03,1.739,6.192,3.449,9.512,4.999c8.671,4.062,17.565,7.073,26.54,9.163l1.669,0.377l10.142-17.376
		c7.023,1.143,14.075,1.595,21.104,1.445l8.146,18.527l1.65-0.153c12.915-1.229,25.489-4.32,37.404-9.113l1.624-0.626l-1.998-19.875
		c6.768-3.212,13.215-7.172,19.262-11.709l17.57,10.262l1.251-1.107c9.385-8.134,17.771-17.771,24.777-28.659l0.929-1.504
		L691.445,488.304z M557.628,503.594c-39.372-18.434-56.341-65.298-37.903-104.671c18.438-39.375,65.3-56.345,104.673-37.907
		c39.375,18.438,56.344,65.302,37.905,104.676C643.864,505.063,597.002,522.035,557.628,503.594z"/>
	<path fill="#6D95A2" d="M638.54,454.561c-12.293,26.248-43.534,37.563-69.779,25.273c-26.252-12.293-37.569-43.536-25.274-69.787
		c12.292-26.246,43.533-37.559,69.783-25.268C639.518,397.07,650.834,428.313,638.54,454.561z"/>
</g>
<g>
	<path fill="#FFFFFF" d="M406.062,435.264c0.043-3.55-0.033-7.173-0.278-10.831c-0.501-7.49-1.525-14.765-3.054-21.864
		l22.275-15.342l-0.64-2.167c-4.646-16.142-11.514-31.302-20.19-45.178l-1.262-2.012l-25.45,7.654
		c-6.946-9.703-15.021-18.534-24.008-26.332l8.893-25.362l-1.72-1.32c-12.994-9.791-27.276-17.847-42.547-23.857l-2.15-0.818
		l-16.137,21.146c-11.681-3.724-23.916-6.079-36.562-6.886l-7.691-25.597l-2.265-0.006c-3.944-0.003-7.95,0.078-11.975,0.348
		c-12.429,0.833-24.464,2.948-36.022,6.15l-2.227,0.589l-0.615,26.762c-11.791,4.17-22.909,9.737-33.171,16.456l-21.124-16.141
		l-1.862,1.418c-13.075,9.857-24.769,21.432-34.673,34.364l-1.351,1.787l15.327,22.154c-6.441,9.698-11.815,20.261-15.896,31.328
		l-26.526-0.612l-0.636,2.221c-4.74,15.636-7.328,32.173-7.498,49.191L75,434.673l25.54,8.953c0,0.398,0.028,0.801,0.057,1.241
		c0.706,10.549,2.523,20.822,5.226,30.632l-21.839,15.057l0.73,2.217c5.611,16.281,13.438,31.397,23.19,45.1l1.259,1.772
		l26.004-7.733c6.293,7.564,13.271,14.578,20.9,20.835l-8.843,25.199l1.841,1.359c13.896,9.975,29.246,18.045,45.661,23.74
		l2.066,0.711l16.435-21.492c8.867,2.428,18.17,4.042,27.588,4.792l7.684,25.7l2.295,0.005c4.653,0.074,9.449,0.028,14.321-0.297
		c12.736-0.854,25.057-3.079,36.884-6.423l2.188-0.639l0.63-26.819c8.928-3.196,17.455-7.215,25.557-11.926l21.459,16.372
		l1.827-1.244c14.28-9.766,26.962-21.479,37.773-34.758l1.494-1.775l-15.149-21.904c5.824-8.113,10.798-16.893,14.929-26.086
		l27.118,0.644l0.752-2.099c5.706-15.546,9.277-32.201,10.431-49.426l0.114-2.355L406.062,435.264z M259.761,539.407
		c-57.837,3.873-107.863-39.876-111.736-97.712c-3.874-57.837,39.872-107.865,97.71-111.738
		c57.838-3.873,107.863,39.873,111.735,97.713C361.345,485.506,317.601,535.531,259.761,539.407z"/>
	<path fill="#FFFFFF" d="M322.564,430.004c2.582,38.562-26.582,71.913-65.139,74.494c-38.56,2.581-71.91-26.582-74.492-65.141
		s26.581-71.91,65.141-74.493C286.631,362.284,319.982,391.448,322.564,430.004z"/>
	<path fill="#FFFFFF" d="M524.452,238.523c0.341-1.743,0.63-3.532,0.84-5.355c0.427-3.729,0.579-7.4,0.466-11.03l12.34-5.541
		l-0.122-1.126c-0.834-8.358-2.843-16.435-5.864-24.043l-0.438-1.102l-13.212,1.473c-2.544-5.399-5.722-10.47-9.441-15.114
		l6.658-11.679l-0.728-0.804c-5.512-5.987-11.813-11.236-18.786-15.568l-0.981-0.597l-9.845,8.952
		c-5.41-2.884-11.217-5.144-17.367-6.68l-1.479-13.284l-1.113-0.208c-1.939-0.355-3.918-0.676-5.924-0.905
		c-6.189-0.71-12.3-0.752-18.275-0.218l-1.146,0.088l-2.713,13.112c-6.176,0.989-12.147,2.727-17.801,5.109l-8.939-9.843
		l-1.045,0.531c-7.32,3.671-14.114,8.314-20.152,13.785l-0.825,0.755l5.548,12.281c-4.042,4.191-7.636,8.903-10.643,13.98
		l-12.996-2.689l-0.512,1.038c-3.739,7.264-6.5,15.167-8.118,23.524l-0.208,1.064l11.76,6.704c-0.035,0.196-0.06,0.396-0.084,0.618
		c-0.602,5.25-0.636,10.469-0.186,15.539l-12.1,5.442l0.159,1.156c1.294,8.517,3.784,16.658,7.349,24.277l0.46,0.984l13.487-1.466
		c2.416,4.291,5.218,8.369,8.409,12.134l-6.62,11.601l0.784,0.834c5.941,6.158,12.765,11.511,20.329,15.792l0.949,0.535
		l10.021-9.094c4.145,1.994,8.576,3.623,13.144,4.841l1.467,13.336l1.127,0.209c2.283,0.456,4.646,0.865,7.073,1.142
		c6.344,0.728,12.606,0.743,18.723,0.162l1.138-0.117l2.723-13.138c4.682-0.769,9.237-1.978,13.647-3.567l9.082,9.987l1.013-0.447
		c7.903-3.519,15.198-8.141,21.713-13.701l0.895-0.738l-5.48-12.141c3.595-3.466,6.832-7.338,9.692-11.489l13.285,2.757l0.558-0.965
		c4.205-7.135,7.461-15.008,9.581-23.377l0.267-1.147L524.452,238.523z M443.1,276.589c-28.803-3.299-49.476-29.328-46.175-58.131
		c3.3-28.804,29.324-49.477,58.129-46.175c28.808,3.301,49.479,29.328,46.179,58.13C497.931,259.216,471.906,279.89,443.1,276.589z"
		/>
	<circle fill="#FFFFFF" cx="449.078" cy="224.435" r="34.997"/>
	<path fill="#B0C8D5" d="M691.445,476.422c1.311-2.315,2.578-4.722,3.744-7.213c2.389-5.1,4.355-10.245,5.928-15.46l20.188-1.99
		l0.364-1.654c2.803-12.282,3.799-24.722,3.132-36.983l-0.094-1.774l-19.485-4.208c-1.04-8.892-3.139-17.613-6.209-25.994
		l15.038-13.426l-0.649-1.49c-4.979-11.143-11.432-21.61-19.275-31.094l-1.116-1.317l-18.261,8.028
		c-6.316-6.682-13.494-12.666-21.505-17.783l4.237-19.593l-1.48-0.826c-2.592-1.434-5.252-2.833-7.988-4.113
		c-8.466-3.965-17.13-6.94-25.882-9.031l-1.673-0.42l-10.111,17.342c-9.25-1.536-18.569-1.918-27.743-1.228l-8.012-18.26
		l-1.737,0.255c-12.161,1.727-24.032,5.084-35.227,9.981l-1.534,0.682l2.022,20.104c-7.746,4.028-15.103,9.015-21.796,14.797
		l-17.194-10.024l-1.221,1.228c-8.782,8.544-16.48,18.461-22.767,29.569l-0.806,1.415l13.519,15.141
		c-0.145,0.261-0.272,0.539-0.412,0.837c-3.364,7.18-5.896,14.584-7.68,22.004l-19.799,1.963l-0.324,1.721
		c-2.224,12.724-2.567,25.485-1.138,38.02l0.187,1.616l19.875,4.356c1.386,7.247,3.422,14.384,6.161,21.257l-14.946,13.338
		l0.716,1.56c5.502,11.589,12.651,22.453,21.36,32.146l1.1,1.218l18.586-8.147c4.938,4.81,10.459,9.241,16.37,13.153l-4.278,19.658
		l1.503,0.834c3.03,1.738,6.192,3.448,9.512,4.999c8.671,4.062,17.565,7.07,26.54,9.164l1.669,0.376l10.142-17.377
		c7.023,1.142,14.075,1.596,21.104,1.444l8.146,18.527l1.65-0.153c12.915-1.228,25.489-4.319,37.404-9.112l1.624-0.625
		l-1.998-19.875c6.768-3.212,13.215-7.172,19.262-11.707l17.57,10.26l1.251-1.107c9.385-8.134,17.771-17.774,24.777-28.659
		l0.929-1.504L691.445,476.422z M557.628,491.714c-39.372-18.435-56.341-65.299-37.903-104.674
		c18.438-39.372,65.3-56.343,104.673-37.905c39.375,18.439,56.344,65.303,37.905,104.676
		C643.864,493.181,597.002,510.153,557.628,491.714z"/>
	<path fill="#B0C8D5" d="M638.54,442.683c-12.293,26.246-43.534,37.561-69.779,25.271c-26.252-12.293-37.569-43.536-25.274-69.786
		c12.292-26.247,43.533-37.56,69.783-25.269C639.518,385.189,650.834,416.435,638.54,442.683z"/>
</g>
<path fill="#C5D0D8" d="M149.064,579.348c13.895,9.972,29.246,18.043,45.662,23.738l2.066,0.709l16.435-21.489
	c8.867,2.426,18.17,4.041,27.588,4.79l7.685,25.7l2.295,0.005c4.652,0.076,9.448,0.03,14.321-0.297
	c12.736-0.853,25.058-3.078,36.885-6.422l2.186-0.637l0.63-26.822c8.927-3.196,17.456-7.211,25.558-11.924l21.458,16.373
	l1.828-1.248c14.279-9.763,26.961-21.479,37.772-34.757l1.493-1.774l-15.148-21.904c5.823-8.114,10.797-16.894,14.929-26.086
	l27.117,0.646l0.751-2.1c5.707-15.549,9.278-32.203,10.433-49.426l0.114-2.356l-25.061-8.764c0.043-3.547-0.034-7.17-0.278-10.829
	c-0.501-7.489-1.525-14.764-3.057-21.866l22.277-15.337l-0.641-2.171c-4.646-16.14-11.512-31.302-20.188-45.178l-1.263-2.012
	l-25.45,7.654c-6.946-9.703-15.021-18.534-24.008-26.331l8.893-25.363l-1.719-1.32c-10.958-8.256-22.84-15.262-35.45-20.864
	c0.72,4.227,7.377,45.255,2.875,89.956c16.731,17.225,27.688,40.232,29.417,66.069c3.874,57.835-39.871,107.863-97.711,111.738
	c-30.85,2.065-59.472-9.423-80.059-29.367c-43.39,12.686-78.498,16.56-78.498,16.56l0.522,1.947
	c1.968,3.171,4.019,6.288,6.179,9.323l1.259,1.772l26.003-7.734c6.294,7.566,13.272,14.581,20.901,20.836l-8.843,25.199
	L149.064,579.348z"/>
<path fill="#C5D0D8" d="M314.459,400.792c0,0,3.564,19.603-37.425,57.027c-40.988,37.424-62.244,36.096-62.244,36.096
	s47.987,31.625,90.758-13.374C338.596,445.773,314.459,400.792,314.459,400.792z"/>
<g>
	<path fill="#E5DB89" d="M459.438,313.057l2.724-13.138c4.682-0.769,9.236-1.979,13.648-3.565l9.083,9.986l1.01-0.447
		c7.906-3.517,15.199-8.14,21.713-13.701l0.897-0.739l-5.482-12.141c3.596-3.464,6.833-7.337,9.693-11.487l13.283,2.758l0.558-0.966
		c4.206-7.134,7.463-15.008,9.584-23.377l0.267-1.147l-11.542-6.568c0.34-1.743,0.629-3.532,0.841-5.355
		c0.426-3.729,0.578-7.4,0.464-11.03l12.341-5.541l-0.122-1.126c-0.832-8.358-2.843-16.435-5.864-24.043l-0.438-1.102l-13.212,1.473
		c-1.67-3.546-3.641-6.935-5.833-10.172c5.298,28.577,6.228,63.994-13.24,86.744c-19.366,22.63-46.605,35.843-68.263,43.322
		l0.961,0.178c2.281,0.456,4.646,0.866,7.072,1.141c6.343,0.727,12.604,0.745,18.723,0.163L459.438,313.057z"/>
	<path fill="#E5DB89" d="M511.356,173.325l4.743-8.319l-0.728-0.804c-2.639-2.867-5.47-5.553-8.457-8.061
		C508.409,161.231,509.958,167.038,511.356,173.325z"/>
</g>
</svg>
