<?xml version="1.0" encoding="utf-8"?>
<!-- Generator: Adobe Illustrator 16.0.0, SVG Export Plug-In . SVG Version: 6.00 Build 0)  -->
<!DOCTYPE svg PUBLIC "-//W3C//DTD SVG 1.1//EN" "http://www.w3.org/Graphics/SVG/1.1/DTD/svg11.dtd">
<svg version="1.1" id="Layer_1" xmlns="http://www.w3.org/2000/svg" xmlns:xlink="http://www.w3.org/1999/xlink" x="0px" y="0px"
	 width="1380px" height="1380px" viewBox="0 0 1380 1380" enable-background="new 0 0 1380 1380" xml:space="preserve">
<path fill="#010101" d="M0,0v1380h1380V0H0z M692.271,814c-69.012,0-124.957-55.939-124.957-124.952
	c0-69.103,55.945-125.048,124.957-125.048c35.765,0,67.933,15.045,90.54,39.101l19.37-19.375l2.971,74.685l-74.688-3.06
	l19.468-19.463c-14.238-15.58-34.78-25.31-57.661-25.31c-43.334,0-78.378,35.138-78.378,78.471
	c0,43.331,35.044,78.468,78.378,78.468c37.476,0,68.647-26.216,76.58-61.177h45.835C810.89,767.11,755.517,814,692.271,814z"/>
</svg>
