<?xml version="1.0" encoding="utf-8"?>
<!-- Generator: Adobe Illustrator 16.0.0, SVG Export Plug-In . SVG Version: 6.00 Build 0)  -->
<!DOCTYPE svg PUBLIC "-//W3C//DTD SVG 1.1//EN" "http://www.w3.org/Graphics/SVG/1.1/DTD/svg11.dtd">
<svg version="1.1" id="Layer_1" xmlns="http://www.w3.org/2000/svg" xmlns:xlink="http://www.w3.org/1999/xlink" x="0px" y="0px"
	 width="1380px" height="1380px" viewBox="0 0 1380 1380" enable-background="new 0 0 1380 1380" xml:space="preserve">
<g>
	<path fill="#010101" d="M0,0v490v400v490h1380V890V490V0H0z M516.807,680.681c3.707-4.396,7.768-8.528,11.846-12.576
		c22.041-21.875,47.336-41.387,75.034-55.538c17.696-9.041,36.604-16.338,56.221-19.846c21.565-3.855,43.151-3.662,64.606,0.895
		c37.12,7.889,70.747,27.489,100.151,50.917c13.65,10.871,27.076,22.777,38.363,36.153c1.973,1.974,3.262,4.539,3.697,7.273
		c0,0.015,0.004,0.033,0.008,0.047c0.02,0.119,0.033,0.244,0.047,0.368c0.014,0.102,0.035,0.209,0.043,0.314
		c0.006,0.071,0.014,0.146,0.02,0.22c0.01,0.145,0.023,0.286,0.031,0.435c0.01,0.22,0.023,0.436,0.023,0.658
		c0,0.224-0.006,0.442-0.016,0.662c-0.008,0.149-0.021,0.291-0.031,0.432c-0.008,0.074-0.014,0.146-0.021,0.22
		c-0.006,0.105-0.027,0.213-0.041,0.314c-0.014,0.123-0.027,0.244-0.049,0.367c-0.004,0.014-0.006,0.031-0.006,0.045
		c-0.436,2.74-1.725,5.301-3.697,7.277c-3.711,4.4-7.768,8.525-11.844,12.578c-22.043,21.872-47.34,41.38-75.035,55.538
		c-17.703,9.041-36.607,16.334-56.22,19.846c-21.566,3.855-43.158,3.662-64.611-0.898c-37.12-7.893-70.747-27.484-100.154-50.912
		c-13.651-10.876-27.079-22.774-38.365-36.151C511.869,693.464,511.869,686.533,516.807,680.681z"/>
	<path fill="#010101" d="M689.999,758.07c37.595,0,68.071-30.472,68.071-68.07c0-37.596-30.477-68.072-68.071-68.072
		c-37.597,0-68.073,30.479-68.073,68.072C621.926,727.599,652.402,758.07,689.999,758.07z M689.999,667.468
		c12.445,0,22.533,10.088,22.533,22.532c0,12.446-10.088,22.532-22.533,22.532c-12.445,0-22.533-10.086-22.533-22.532
		C667.466,677.556,677.554,667.468,689.999,667.468z"/>
</g>
</svg>
