<?xml version="1.0" encoding="utf-8"?>
<!-- Generator: Adobe Illustrator 16.0.0, SVG Export Plug-In . SVG Version: 6.00 Build 0)  -->
<!DOCTYPE svg PUBLIC "-//W3C//DTD SVG 1.1//EN" "http://www.w3.org/Graphics/SVG/1.1/DTD/svg11.dtd">
<svg version="1.1" id="Layer_1" xmlns="http://www.w3.org/2000/svg" xmlns:xlink="http://www.w3.org/1999/xlink" x="0px" y="0px"
	 width="1200px" height="300px" viewBox="0 0 1200 300" enable-background="new 0 0 1200 300" xml:space="preserve">
<path fill="#10151A" d="M683.562,255.379c0,9.088-6.778,16.454-15.139,16.454H531.576c-8.36,0-15.138-7.366-15.138-16.454V51.756
	c0-9.087,6.778-16.455,15.138-16.455h136.848c8.36,0,15.139,7.368,15.139,16.455V255.379z"/>
<path fill="#2C3D51" d="M683.562,251.91c0,9.088-6.778,16.454-15.139,16.454H531.576c-8.36,0-15.138-7.366-15.138-16.454V48.287
	c0-9.086,6.778-16.454,15.138-16.454h136.848c8.36,0,15.139,7.368,15.139,16.454V251.91z"/>
<rect x="527" y="55" fill="#FFFFFF" width="146" height="190"/>
<circle fill="#FFFFFF" cx="600" cy="256.064" r="5.677"/>
<circle fill="#DEE8EE" cx="588.632" cy="44.133" r="1.5"/>
<path fill="#DEE8EE" d="M595.579,42.633h15.792c0.826,0,1.496,0.673,1.496,1.5c0,0.828-0.67,1.5-1.496,1.5h-15.792
	c-0.829,0-1.499-0.672-1.499-1.5C594.08,43.306,594.75,42.633,595.579,42.633z"/>
</svg>
