<?xml version="1.0" encoding="utf-8"?>
<!-- Generator: Adobe Illustrator 16.0.0, SVG Export Plug-In . SVG Version: 6.00 Build 0)  -->
<!DOCTYPE svg PUBLIC "-//W3C//DTD SVG 1.1//EN" "http://www.w3.org/Graphics/SVG/1.1/DTD/svg11.dtd">
<svg version="1.1" id="Layer_1" xmlns="http://www.w3.org/2000/svg" xmlns:xlink="http://www.w3.org/1999/xlink" x="0px" y="0px"
	 width="1200px" height="300px" viewBox="0 0 1200 300" enable-background="new 0 0 1200 300" xml:space="preserve">
<path fill="#A4ACB3" d="M640.864,228.804c0,6.459-5.372,11.696-12,11.696h-57.729c-6.627,0-12-5.237-12-11.696V78.697
	c0-6.46,5.373-11.697,12-11.697h57.729c6.628,0,12,5.237,12,11.697V228.804z"/>
<path fill="#FFFFFF" d="M640.864,223.48c0,6.361-5.372,11.52-12,11.52h-57.729c-6.627,0-12-5.158-12-11.52V78.52
	c0-6.362,5.373-11.52,12-11.52h57.729c6.628,0,12,5.158,12,11.52V223.48z"/>
<rect x="585.5" y="68" fill="#2C3D50" width="29.5" height="15.5"/>
<path fill="#DEE8EE" d="M629.324,62.5h-58.647c-6.364,0-11.541,5.178-11.541,11.542v151.915c0,6.366,5.177,11.543,11.541,11.543
	h58.647c6.363,0,11.54-5.177,11.54-11.543V74.042C640.863,67.678,635.686,62.5,629.324,62.5z M600,70.597
	c0.928,0,1.681,0.679,1.681,1.515c0,0.837-0.753,1.518-1.681,1.518c-0.927,0-1.679-0.681-1.679-1.518
	C598.321,71.276,599.071,70.597,600,70.597z M593.188,78.873h13.622c0.714,0,1.292,0.581,1.292,1.294
	c0,0.714-0.578,1.294-1.292,1.294h-13.622c-0.715,0-1.293-0.58-1.293-1.294C591.896,79.454,592.474,78.873,593.188,78.873z
	 M600,230.75c-3.176,0-5.751-2.573-5.751-5.75c0-3.174,2.575-5.75,5.751-5.75s5.749,2.576,5.749,5.75
	C605.749,228.177,603.176,230.75,600,230.75z M635.874,211.503h-71.748V89.672h71.748V211.503z"/>
</svg>
