<?xml version="1.0" encoding="utf-8"?>
<!-- Generator: Adobe Illustrator 16.0.0, SVG Export Plug-In . SVG Version: 6.00 Build 0)  -->
<!DOCTYPE svg PUBLIC "-//W3C//DTD SVG 1.1//EN" "http://www.w3.org/Graphics/SVG/1.1/DTD/svg11.dtd">
<svg version="1.1" id="Layer_1" xmlns="http://www.w3.org/2000/svg" xmlns:xlink="http://www.w3.org/1999/xlink" x="0px" y="0px"
	 width="800px" height="800px" viewBox="0 0 800 800" enable-background="new 0 0 800 800" xml:space="preserve">
<circle fill="#FED261" cx="400" cy="400" r="400"/>
<ellipse fill="#E2C1A1" cx="400" cy="443.637" rx="205.855" ry="276.363"/>
<ellipse fill="#EFD9C5" cx="400" cy="430.546" rx="205.855" ry="276.363"/>
<path fill="#514A46" d="M605.855,443.637c0,0-27.447-158.546-205.855-158.546c-178.408,0-205.855,158.546-205.855,158.546
	s-8.234-39.273-15.096-64s-15.096-49.455-15.096-49.455l21.271-9.454c0,0,1.287-17.808,0.686-42.909
	c-0.884-36.971-3.328-69.825-3.328-69.825l54.106-10.175c0,0,1.373-27.637-2.745-52.364c-4.117-24.728-1.722-15.375-1.722-15.375
	l71.026-6.443c0,0,0.687-5.818-0.686-11.636s-3.431-17.455-3.431-17.455l65.874,12.364c0,0,0,1.455-1.372-16
	c-1.373-17.455-1.373-17.455-1.373-17.455s59.012,5.818,83.028,21.091c20.04,12.744,24.771,18.706,24.771,18.706s0,0-0.069-13.615
	c-0.033-6.707,0.26-11.21,0.26-11.21s70.446,47.987,82.082,68.665c23.331,41.455,22.471,62.141,22.471,62.141
	s-1.885,1.132,11.84-13.413c14.588-15.462,14.588-15.462,14.588-15.462s16.976,32.189,16.976,80.189s0,63.273,0,63.273
	s-0.816,0.503,5.49-7.273c3.848-4.744,3.848-4.744,3.848-4.744s-6.183,53.479-10.71,73.108
	C609.285,427.637,605.855,443.637,605.855,443.637z"/>
<path fill="#EFD9C5" d="M237.225,485.443c12.521,31.892,3.384,66.253-20.408,76.746c-23.792,10.492-53.23-6.855-65.751-38.746
	c-12.521-31.893-3.384-66.253,20.408-76.746C195.267,436.204,224.704,453.553,237.225,485.443z"/>
<path fill="#EFD9C5" d="M562.775,485.443c-12.52,31.892-3.383,66.253,20.409,76.746c23.791,10.492,53.229-6.855,65.75-38.746
	c12.521-31.893,3.384-66.253-20.409-76.746C604.734,436.204,575.296,453.553,562.775,485.443z"/>
<path fill="#514A46" d="M194.145,444.496c0,0,2.876,16.328,5.489,23.867c5.111,14.747,10.293,24.728,10.293,24.728
	s2.161-67.321,7.547-88.728c5.489-21.818,22.639-52.421,22.639-52.421L194.145,376V444.496z"/>
<path fill="#514A46" d="M605.855,444.496c0,0-2.877,16.328-5.49,23.867c-5.111,14.747-10.293,24.728-10.293,24.728
	s-2.162-67.321-7.548-88.728c-5.489-21.818-22.638-52.421-22.638-52.421L605.855,376V444.496z"/>
<path fill="#CCB08F" d="M433.332,557.091c22.611-14.479-17.851-43.636-30.941-43.636c-14.563,0-27.764,8.438-37.644,21.817
	c-4.652,6.299-8.767,16.263,1.944,21.818l33.688-3.175L433.332,557.091z"/>
<path fill="#E2BFA8" d="M439.28,595.968c-15.021-8.784-30.105-7.036-34.692-7.036l-4.588,1.76l-4.587-1.76
	c-4.587,0-19.671-1.748-34.692,7.036c-4.728,2.764-39.278,14.898-39.278,17.588c0,0,7.035,4.325,13.484,12.311
	c10.391,12.868,38.974,21.105,65.073,21.105s54.682-8.237,65.074-21.105c6.448-7.985,13.482-12.311,13.482-12.311
	C478.557,610.866,444.009,598.731,439.28,595.968z"/>
<path fill="#8E837D" d="M321.442,613.556c0,0,36.32-7.453,67.712-7.913c1.594-0.024,9.315,0.888,10.845,0.888
	c1.719,0,9.34-0.918,11.14-0.888c31.33,0.513,67.417,7.913,67.417,7.913s-103.913,0-78.117,0
	C426.235,613.556,321.442,613.556,321.442,613.556z"/>
<path fill="#514A46" d="M335.847,467.231c1.207-2.932,1.881-6.138,1.881-9.504c0-13.807-11.194-25-25-25s-25,11.193-25,25
	c0,3.366,0.675,6.572,1.881,9.504c7.051,1.103,14.873,1.859,23.12,1.859C320.975,469.091,328.795,468.334,335.847,467.231z"/>
<path fill="#514A46" d="M464.156,467.23c-1.207-2.933-1.881-6.137-1.881-9.503c0-13.809,11.193-25,24.997-25
	c13.805,0,25,11.191,25,25c0,3.366-0.673,6.57-1.881,9.503c-7.054,1.104-14.872,1.86-23.119,1.86S471.204,468.334,464.156,467.23z"
	/>
<path fill="#514A46" d="M354.901,406.209c0,0-16.483-13.225-38.969-12.448c-22.639,0.784-45.379,14.313-45.379,14.313l2.686-24.732
	c0,0,9.398-5.033,30.596-5.92C335.3,376.103,354.901,406.209,354.901,406.209z"/>
<path fill="#CCB08F" d="M184.785,508.081c-14.788-13.818-26.182-0.971-26.182-0.971s-8.727-18.908,3.468-37.32
	c9.082-13.712,24.016-6.546,24.016-6.546l21.97,70.291L184.785,508.081z"/>
<path fill="#514A46" d="M404.946,282.417c0,0-41.49,6.249-55.343,15.037c-16.592,10.526-21.333,16-21.333,16s0-9.226,4.606-15.273
	c9.485-12.451,16.727-15.764,16.727-15.764"/>
<path fill="#514A46" d="M445.1,406.21c0,0,16.482-13.226,38.969-12.448c22.638,0.784,45.378,14.312,45.378,14.312l-2.685-24.731
	c0,0-9.399-5.033-30.597-5.92C464.699,376.103,445.1,406.21,445.1,406.21z"/>
<path fill="#CCB08F" d="M615.215,508.081c14.787-13.818,26.182-0.971,26.182-0.971s8.728-18.908-3.469-37.32
	c-9.082-13.712-24.018-6.546-24.018-6.546l-21.969,70.291L615.215,508.081z"/>
</svg>
