<?xml version="1.0" encoding="utf-8"?>
<!-- Generator: Adobe Illustrator 16.0.0, SVG Export Plug-In . SVG Version: 6.00 Build 0)  -->
<!DOCTYPE svg PUBLIC "-//W3C//DTD SVG 1.1//EN" "http://www.w3.org/Graphics/SVG/1.1/DTD/svg11.dtd">
<svg version="1.1" id="Layer_1" xmlns="http://www.w3.org/2000/svg" xmlns:xlink="http://www.w3.org/1999/xlink" x="0px" y="0px"
	 width="1200px" height="300px" viewBox="0 0 1200 300" enable-background="new 0 0 1200 300" xml:space="preserve">
<path fill="#A4ACB3" d="M438.678,231.812c0,6.627,5.372,12,12,12h298.645c6.627,0,12-5.373,12-12v-12.957H438.678V231.812z"/>
<path fill="#3D4042" d="M631.447,253.404c-2.002-2.68-5.352-12.262-5.352-12.262h-52.593c0,0-3.349,9.582-5.355,12.262
	c-3.983,5.326-4.475,3.75-19.17,18.443c-4.604,4.605,0,6.506,0,6.506h49.918h1.8c0,0,37.438,0,49.917,0c1.629,0,4.602-1.9,0-6.506
	C635.922,257.154,635.432,258.73,631.447,253.404z"/>
<path fill="#C5D0D8" d="M631.447,251.654c-2.002-2.68-5.352-12.262-5.352-12.262h-52.593c0,0-3.349,9.582-5.355,12.262
	c-3.983,5.326-4.475,3.75-19.17,18.443c-4.604,4.605,0,6.506,0,6.506h49.918h1.8c0,0,37.438,0,49.917,0c1.629,0,4.602-1.9,0-6.506
	C635.922,255.404,635.432,256.98,631.447,251.654z"/>
<path fill="#2C3D51" d="M761.322,228.422c0,6.671-5.373,12.078-12,12.078H450.678c-6.628,0-12-5.407-12-12.078V37.577
	c0-6.67,5.372-12.077,12-12.077h298.645c6.627,0,12,5.407,12,12.077V228.422z"/>
<path fill="#DFE9EE" d="M438.678,229.812c0,6.627,5.372,12,12,12h298.645c6.627,0,12-5.373,12-12v-12.957H438.678V229.812z"/>
<circle fill="#2C3D51" cx="600" cy="229" r="6"/>
<polygon fill="#B9C1C6" points="626.978,241.812 629.002,246.891 569.064,250.15 572.621,241.812 "/>
<rect x="450" y="38.625" fill="#FFFFFF" width="300" height="168.75"/>
</svg>
