<?xml version="1.0" encoding="utf-8"?>
<!-- Generator: Adobe Illustrator 16.0.0, SVG Export Plug-In . SVG Version: 6.00 Build 0)  -->
<!DOCTYPE svg PUBLIC "-//W3C//DTD SVG 1.1//EN" "http://www.w3.org/Graphics/SVG/1.1/DTD/svg11.dtd">
<svg version="1.1" id="Layer_1" xmlns="http://www.w3.org/2000/svg" xmlns:xlink="http://www.w3.org/1999/xlink" x="0px" y="0px"
	 width="800px" height="800px" viewBox="0 0 800 800" enable-background="new 0 0 800 800" xml:space="preserve">
<circle display="none" fill="#58C1A8" cx="400" cy="400" r="300"/>
<circle fill="#FED261" cx="400" cy="400" r="400"/>
<path fill="#72777A" d="M450.909,296.249H400l0,0h-0.001h-50.908l-80,215.021v14.546c77.091,61.091,110.425,181.821,110.425,181.821
	l10.19-0.006v-168.52c-16.307-4.495-28.281-19.43-28.281-37.174c0-21.321,17.258-38.574,38.574-38.574c0.001,0,0.001,0,0.001,0l0,0
	c21.316,0,38.575,17.253,38.575,38.574c0,17.744-11.975,32.679-28.281,37.174v168.52l10.19,0.006c0,0,33.334-120.73,110.425-181.821
	V511.27L450.909,296.249z"/>
<rect x="332.995" y="220.021" fill="#282524" width="132.846" height="76.228"/>
<path fill="#C5D0D8" d="M450.909,281.703H400l0,0h-0.001h-50.908l-80,229.566c77.091,61.092,110.425,181.821,110.425,181.821
	l10.19-0.006v-168.52c-16.307-4.494-28.281-19.429-28.281-37.174c0-21.32,17.258-38.573,38.574-38.573c0.001,0,0.001,0,0.001,0l0,0
	c21.316,0,38.575,17.253,38.575,38.573c0,17.745-11.975,32.68-28.281,37.174v168.52l10.19,0.006c0,0,33.334-120.729,110.425-181.821
	L450.909,281.703z"/>
<path fill="#514C4A" d="M452.423,214.687c0,0,17.453-89.451,26.181-137.448c8.724-47.973,11.783-66.946,11.786-66.966
	C461.321,3.553,431.041,0,399.931,0c-31.059,0-61.29,3.54-90.314,10.239c-0.001,0.007-0.006,0.033-0.006,0.033
	s3.058,18.969,11.786,66.967c8.727,47.997,26.18,137.449,26.18,137.449h-14.555v67.016h132.848v-67.016"/>
<rect x="365.273" y="214.688" fill="#FFFFFF" width="27.629" height="67.016"/>
<path fill="#FFFFFF" d="M447.272,293.091h-88.727l-75.272,212.728c0,0,62.182-141.091,84-166.545
	C387.226,315.994,447.272,293.091,447.272,293.091z"/>
<path fill="#282524" d="M358.269,636.081c8.277-8.444,7.55,0.444,16.277,0c8.728-0.444,14.995-10.318,15.161-3.656
	c0.839,33.757,0,75.206,0,75.206l-10.19,0.006c0,0-10.083-32.04-18.235-50.108c-8.152-18.068-8.152-18.068-8.152-18.068"/>
<path fill="#282524" d="M410.294,638.546c0,0-0.112-7.39,8.615-8.422c8.728-1.033,6.545,3.638,11.637,4.211
	c5.091,0.574,6.101-1.994,12.001-0.075s1.312,11.661,1.312,11.661s-7.75,17.273-11.418,26.977s-11.956,34.739-11.956,34.739
	l-10.19-0.006V638.546z"/>
</svg>
