<?xml version="1.0" encoding="utf-8"?>
<!-- Generator: Adobe Illustrator 16.0.0, SVG Export Plug-In . SVG Version: 6.00 Build 0)  -->
<!DOCTYPE svg PUBLIC "-//W3C//DTD SVG 1.1//EN" "http://www.w3.org/Graphics/SVG/1.1/DTD/svg11.dtd">
<svg version="1.1" id="Layer_1" xmlns="http://www.w3.org/2000/svg" xmlns:xlink="http://www.w3.org/1999/xlink" x="0px" y="0px"
	 width="800px" height="800px" viewBox="0 0 800 800" enable-background="new 0 0 800 800" xml:space="preserve">
<circle display="none" fill="#ED6148" cx="400" cy="400" r="300"/>
<circle fill="#FED262" cx="400" cy="400" r="400"/>
<path fill="#8E8785" d="M622.112,650.869c0,9.643-7.815,17.455-17.454,17.455H195.341c-9.639,0-17.455-7.813-17.455-17.455V182.585
	c0-9.64,7.815-17.455,17.455-17.455h409.317c9.639,0,17.454,7.814,17.454,17.455V650.869z"/>
<path fill="#FFFFFF" d="M622.112,634.143c0,9.642-7.815,17.454-17.454,17.454H195.341c-9.639,0-17.455-7.813-17.455-17.454V165.858
	c0-9.64,7.815-17.455,17.455-17.455h409.317c9.639,0,17.454,7.815,17.454,17.455V634.143z"/>
<path fill="#73777A" d="M507.637,517.878c0,5.59-5.256,10.122-11.74,10.122H298.009c-6.484,0-11.739-4.532-11.739-10.122l0,0
	c0-5.591,5.255-10.124,11.739-10.124h197.887C502.381,507.754,507.637,512.287,507.637,517.878L507.637,517.878z"/>
<circle fill="#FED262" cx="400" cy="247.784" r="36.364"/>
<path fill="#C5D0D8" d="M177.888,165.858v17.375h444.225V165.83c-0.016-9.625-7.824-17.426-17.453-17.426H195.342
	C185.703,148.403,177.888,156.219,177.888,165.858z"/>
<rect x="177.888" y="312.728" fill="#DFE7ED" width="444.225" height="152.727"/>
<path fill="#ED6148" d="M195.341,148.403h17.376v34.83h-34.83V165.83C177.903,156.204,185.712,148.403,195.341,148.403z"/>
<rect x="212.717" y="148.403" fill="#FFC838" width="34.83" height="34.83"/>
<rect x="247.547" y="148.403" fill="#90C582" width="34.83" height="34.83"/>
<path fill="#73777A" d="M519.41,555.696c0,5.589-5.67,10.122-12.666,10.122h-213.49c-6.995,0-12.665-4.533-12.665-10.122l0,0
	c0-5.591,5.67-10.124,12.665-10.124h213.49C513.74,545.572,519.41,550.105,519.41,555.696L519.41,555.696z"/>
<path fill="#73777A" d="M491.637,594.851c0,5.59-4.496,10.122-10.043,10.122H312.313c-5.547,0-10.042-4.532-10.042-10.122l0,0
	c0-5.591,4.496-10.123,10.042-10.123h169.281C487.141,584.728,491.637,589.26,491.637,594.851L491.637,594.851z"/>
<path fill="#73777A" d="M290.182,406.546c12.088,6.591,18.182,16.727,39.273,16.727S379.636,368,413.818,368
	c34.182,0,102.545,48.728,114.909,48.728c12.363,0,29.818-21.091,50.909-21.091s42.476,16,42.476,16v53.817H177.888v-48.727
	c0,0,55.567-16.728,74.476-16.728C273.455,400,290.182,406.546,290.182,406.546z"/>
</svg>
