<?xml version="1.0" encoding="utf-8"?>
<!-- Generator: Adobe Illustrator 16.0.0, SVG Export Plug-In . SVG Version: 6.00 Build 0)  -->
<!DOCTYPE svg PUBLIC "-//W3C//DTD SVG 1.1//EN" "http://www.w3.org/Graphics/SVG/1.1/DTD/svg11.dtd">
<svg version="1.1" id="Layer_1" xmlns="http://www.w3.org/2000/svg" xmlns:xlink="http://www.w3.org/1999/xlink" x="0px" y="0px"
	 width="1000px" height="666px" viewBox="0 0 1000 666" enable-background="new 0 0 1000 666" xml:space="preserve">
<g id="Logo">
	<rect y="0" fill="#F47721" width="1000" height="666"/>
	<path fill="#FFFFFF" d="M642.793,189.239l-6.346,6.345c-0.023-0.023-0.047-0.046-0.069-0.07l-80.665,80.668
		c16.16,16.16,25.06,37.646,25.06,60.498c0,0.002,0,0.002,0,0.004c0,1.359-0.035,2.713-0.099,4.062
		c-0.006,0.094-0.007,0.189-0.011,0.283c-0.061,1.23-0.157,2.451-0.27,3.672c-0.023,0.234-0.038,0.469-0.062,0.703
		c-0.108,1.062-0.243,2.115-0.391,3.17c-0.075,0.539-0.154,1.076-0.238,1.611c-0.114,0.734-0.244,1.461-0.378,2.189
		c-0.194,1.041-0.406,2.072-0.637,3.098c-0.05,0.217-0.095,0.432-0.144,0.646c-8.828,37.846-42.84,66.121-83.334,66.121
		c-47.178,0-85.561-38.381-85.561-85.561c0-36.106,22.483-67.062,54.185-79.6c16.66-6.236,37.297-8.145,59.597-2.01l57.991-57.991
		l-57.991-57.992l-0.278,0.278l-0.003-0.623c-52.798-7.497-105.354,6.016-147.986,38.048
		c-42.634,32.032-70.242,78.749-77.739,131.545l0.163,0.023c-1.32,9.256-2.019,18.708-2.019,28.321
		c0,110.084,89.56,199.641,199.642,199.641c55.042,0,104.952-22.385,141.103-58.537l0.067,0.068
		c35.255-35.258,55.697-81.381,58.206-130.814c0.001-0.035,0.004-0.072,0.006-0.109c0.075-1.486,0.13-2.975,0.17-4.469
		c0.007-0.225,0.02-0.449,0.024-0.676c0.044-1.689,0.064-3.385,0.066-5.082c0-0.006,0-0.014,0-0.021l0,0l0,0
		c0-11.895-1.04-23.627-3.064-35.102l31.672-31.671h0.001v-80.668H642.793z"/>
</g>
</svg>
