<?xml version="1.0" encoding="utf-8"?>
<!-- Generator: Adobe Illustrator 16.0.0, SVG Export Plug-In . SVG Version: 6.00 Build 0)  -->
<!DOCTYPE svg PUBLIC "-//W3C//DTD SVG 1.1//EN" "http://www.w3.org/Graphics/SVG/1.1/DTD/svg11.dtd">
<svg version="1.1" id="Layer_1" xmlns="http://www.w3.org/2000/svg" xmlns:xlink="http://www.w3.org/1999/xlink" x="0px" y="0px"
	 width="800px" height="450px" viewBox="0 0 800 450" enable-background="new 0 0 800 450" xml:space="preserve">
<rect y="0" fill="#499DDC" width="800" height="450"/>
<g id="Layer_1_1_">
	
		<image overflow="visible" opacity="0.25" enable-background="new    " width="1992" height="667" xlink:href="EDCB70ED8B50602B.png"  transform="matrix(0.3263 0 0 0.3242 75.0762 116.8979)">
	</image>
	<g>
		<g>
			<g>
				<g>
					<path fill="none" stroke="#FFFFFF" stroke-width="4" stroke-miterlimit="10" d="M85.963,323.064V273.43
						c0-7.485,6.125-13.609,13.61-13.609h108.878c7.485,0,13.609,6.124,13.609,13.609v49.635"/>
				</g>
				<path fill="#FFFFFF" stroke="#FFFFFF" stroke-miterlimit="10" d="M186.903,241.41v3.201h3.204v60.672
					c0,4.811,4.181,8.71,9.339,8.71s9.34-3.899,9.34-8.71v-60.672h3.203v-3.201H186.903z"/>
				<path fill="#FFFFFF" stroke="#FFFFFF" stroke-miterlimit="10" d="M161.819,268.084V244.61h3.204v-3.2h-25.086v3.2h3.204v23.474
					c-8.85,3.669-15.079,12.384-15.079,22.56c0,13.482,10.932,24.414,24.417,24.414s24.416-10.932,24.416-24.414
					C176.895,280.468,170.668,271.753,161.819,268.084z"/>
				<path fill="#83C454" d="M132.062,291.369c0.407,10.933,9.378,19.684,20.416,19.684c11.037,0,20.008-8.751,20.413-19.684H132.062
					z"/>
				
					<line fill="none" stroke="#FFFFFF" stroke-width="4" stroke-miterlimit="10" x1="121.79" y1="259.82" x2="121.79" y2="323.064"/>
				<path fill="#FFFFFF" stroke="#FFFFFF" stroke-miterlimit="10" d="M93.502,241.41v3.201h3.204v60.672
					c0,4.811,4.182,8.71,9.339,8.71s9.34-3.899,9.34-8.71v-60.672h3.203v-3.201H93.502z"/>
				
					<line fill="none" stroke="#FFFFFF" stroke-width="4" stroke-miterlimit="10" x1="182.633" y1="259.82" x2="182.633" y2="323.064"/>
				<g>
					<path fill="none" stroke="#FFFFFF" stroke-width="4" stroke-miterlimit="10" d="M286.862,192.263v-50.867
						c0-7.485,6.124-13.61,13.609-13.61h187.05c7.485,0,13.609,6.125,13.609,13.61v19.054c0,7.485-5.652,15.965-12.562,18.846
						l-18.539,7.73c-6.911,2.879-12.562,11.362-12.562,18.847v71.621"/>
				</g>
				
					<line fill="none" stroke="#FFFFFF" stroke-width="4" stroke-miterlimit="10" x1="360.015" y1="277.494" x2="360.015" y2="127.787"/>
				<g>
					<path fill="#FFFFFF" stroke="#FFFFFF" stroke-miterlimit="10" d="M439.988,219.036v4.46h4.463v84.54
						c0,6.706,5.825,12.14,13.013,12.14c7.187,0,13.013-5.434,13.013-12.14v-84.54h4.462v-4.46H439.988z"/>
				</g>
				<polyline fill="none" stroke="#FFFFFF" stroke-width="4" stroke-miterlimit="10" points="286.862,322.406 286.862,217.6 
					323.523,321.661 				"/>
				<g>
					<g>
						<path fill="#FFFFFF" d="M408.358,309.734c2.731,6.968-1.161,12.673-8.646,12.673h-79.4c-7.485,0-11.376-5.704-8.646-12.673
							l43.382-110.753c2.73-6.969,7.196-6.969,9.927,0L408.358,309.734z"/>
						<path fill="none" stroke="#FFFFFF" stroke-miterlimit="10" d="M408.358,309.734c2.731,6.968-1.161,12.673-8.646,12.673h-79.4
							c-7.485,0-11.376-5.704-8.646-12.673l43.382-110.753c2.73-6.969,7.196-6.969,9.927,0L408.358,309.734z"/>
					</g>
					<polygon fill="#FFFFFF" stroke="#FFFFFF" stroke-miterlimit="10" points="383.156,193.791 336.873,193.791 336.873,198.664 
						342.658,198.664 342.658,241.41 377.371,241.41 377.371,198.664 383.156,198.664 					"/>
				</g>
				
					<line fill="none" stroke="#FFFFFF" stroke-width="4" stroke-miterlimit="10" x1="285.528" y1="217.973" x2="248.868" y2="322.033"/>
				<g>
					<g>
						<path fill="#FFFFFF" d="M314.816,221.611c2.73,6.969-1.16,12.673-8.646,12.673h-38.618c-7.485,0-11.377-5.703-8.646-12.673
							l22.992-58.697c2.73-6.969,7.197-6.969,9.927,0L314.816,221.611z"/>
						<path fill="none" stroke="#FFFFFF" stroke-miterlimit="10" d="M314.816,221.611c2.73,6.969-1.16,12.673-8.646,12.673h-38.618
							c-7.485,0-11.377-5.703-8.646-12.673l22.992-58.697c2.73-6.969,7.197-6.969,9.927,0L314.816,221.611z"/>
					</g>
					<polygon fill="#FFFFFF" stroke="#FFFFFF" stroke-miterlimit="10" points="301.153,154.861 272.572,154.861 272.572,157.871 
						276.145,157.871 276.145,184.267 297.58,184.267 297.58,157.871 301.153,157.871 					"/>
				</g>
				<g>
					<path fill="none" stroke="#FFFFFF" stroke-width="4" stroke-miterlimit="10" d="M509.837,324.044v-81.258
						c0-7.485,6.124-13.609,13.609-13.609h176.925c7.485,0,13.609,6.124,13.609,13.609v81.258"/>
				</g>
				
					<line fill="none" stroke="#FFFFFF" stroke-width="4" stroke-miterlimit="10" x1="611.908" y1="230.059" x2="611.908" y2="324.926"/>
				<g>
					<path fill="none" stroke="#FFFFFF" stroke-width="4" stroke-miterlimit="10" d="M560.935,221.013V174.74
						c0-7.485,5.938-12.125,13.203-10.31l74.307,18.577c7.262,1.816,13.202,9.425,13.202,16.911v21.095"/>
				</g>
				<path fill="#FFFFFF" stroke="#FFFFFF" stroke-miterlimit="10" d="M675.654,239.166v-35.2h4.803v-4.806h-37.624v4.806h4.802v35.2
					c-13.276,5.502-22.615,18.583-22.615,33.846c0,20.229,16.396,36.625,36.625,36.625c20.229,0,36.625-16.396,36.625-36.625
					C698.271,257.749,688.932,244.668,675.654,239.166z"/>
				<path fill="#FFFFFF" stroke="#FFFFFF" stroke-miterlimit="10" d="M574.942,239.966v-35.202h4.802v-4.806H542.12v4.806h4.803
					v35.2c-13.277,5.502-22.618,18.582-22.618,33.846c0,20.229,16.398,36.627,36.626,36.627c20.23,0,36.628-16.398,36.628-36.627
					C597.559,258.546,588.218,245.466,574.942,239.966z"/>
				<path fill="#F5EB17" d="M100.601,276.173v28.665c0,2.805,2.439,5.077,5.444,5.077c3.004,0,5.443-2.272,5.443-5.077v-28.665
					H100.601z"/>
				<path fill="#10BAD6" d="M194.001,283.782v21.055c0,2.806,2.439,5.078,5.444,5.078s5.444-2.272,5.444-5.078v-21.055H194.001z"/>
				<g>
					<path fill="#EF4153" d="M310.977,223.052c-3.398-8.525-11.581-29.062-11.581-29.062h-12.535h-12.534
						c0,0-8.184,20.537-11.583,29.062c-1.587,3.982,2.1,6.82,5.161,7.017h18.956h18.957
						C308.877,229.872,312.563,227.034,310.977,223.052z"/>
				</g>
				<path fill="#F5EB17" d="M448.959,265.574v41.758c0,4.382,3.809,7.935,8.506,7.935s8.506-3.553,8.506-7.935v-41.758H448.959
					L448.959,265.574z"/>
				<path fill="#EF4153" d="M533.394,257.355c-2.818,4.767-4.445,10.322-4.445,16.257c0,17.662,14.318,31.98,31.982,31.98
					c17.667,0,31.983-14.318,31.983-31.98c0-5.935-1.625-11.49-4.445-16.257H533.394z"/>
				<path fill="#10BAD6" d="M629.661,273.618c0,17.661,14.319,31.977,31.983,31.977c17.665,0,31.981-14.316,31.983-31.977H629.661z"
					/>
				<path fill="#83C454" d="M401.515,305.545c-5.846-14.668-19.927-50.005-19.927-50.005H360.02h-0.007h-0.007h-21.567
					c0,0-14.081,35.337-19.929,50.005c-2.73,6.851-5.188,12.076,8.879,12.076h32.615h0.007h0.006h32.616
					C406.703,317.621,404.246,312.396,401.515,305.545z"/>
			</g>
		</g>
	</g>
</g>
</svg>
