<?xml version="1.0" encoding="utf-8"?>
<!-- Generator: Adobe Illustrator 16.0.0, SVG Export Plug-In . SVG Version: 6.00 Build 0)  -->
<!DOCTYPE svg PUBLIC "-//W3C//DTD SVG 1.1//EN" "http://www.w3.org/Graphics/SVG/1.1/DTD/svg11.dtd">
<svg version="1.1" id="Layer_1" xmlns="http://www.w3.org/2000/svg" xmlns:xlink="http://www.w3.org/1999/xlink" x="0px" y="0px"
	 width="400px" height="250px" viewBox="0 0 400 250" enable-background="new 0 0 400 250" xml:space="preserve">
<rect x="0" y="0" fill="#494949" width="400" height="250"/>
<g>
	<path fill="#36B0A7" d="M225.029,44.176l-25.139,76.713l-68.88-42.122c16.41-25.051,44.875-39.504,74.933-37.868
		C212.38,41.249,218.796,42.351,225.029,44.176z"/>
	<path fill="#7CCCC6" d="M282.688,151.543l-75.084-26.466l71.017-35.967C287.813,108.762,289.259,130.795,282.688,151.543z"/>
	<path fill="#9BD8D3" d="M272.874,220.05l-32.422-24.162c-13.544,7.657-28.777,11.242-44.317,10.396
		c-6.227-0.339-12.414-1.4-18.439-3.171l24.482-74.723l74.164,26.143c-3.127,8.057-7.468,15.488-12.942,22.135l-0.251,0.376
		L272.874,220.05z"/>
	<path fill="#54BCB5" d="M280.486,81.921l-75.101,38.036l26.222-80.007C252.581,47.566,269.771,62.328,280.486,81.921z"/>
	<path fill="#D7EFED" d="M197.849,125.618l-26.689,81.449c-44.385-16.145-68.329-64.914-53.529-110.115
		c1.834-5.588,4.215-10.969,7.092-16.049L197.849,125.618z"/>
</g>
</svg>
