<?xml version="1.0" encoding="utf-8"?>
<!-- Generator: Adobe Illustrator 16.0.0, SVG Export Plug-In . SVG Version: 6.00 Build 0)  -->
<!DOCTYPE svg PUBLIC "-//W3C//DTD SVG 1.1//EN" "http://www.w3.org/Graphics/SVG/1.1/DTD/svg11.dtd">
<svg version="1.1" id="Layer_1" xmlns="http://www.w3.org/2000/svg" xmlns:xlink="http://www.w3.org/1999/xlink" x="0px" y="0px"
	 width="400px" height="250px" viewBox="0 0 400 250" enable-background="new 0 0 400 250" xml:space="preserve">
<rect fill="#F16822" width="400" height="250"/>
<path fill="#FFFFFF" d="M184.81,189.809h-22.918V156.55h22.918V189.809z M168.545,183.156h9.611v-19.953h-9.611V183.156z"/>
<path fill="#FFFFFF" d="M158.015,190.432h-22.918v-20.689h22.918V190.432z M141.75,183.779h9.611v-7.386h-9.611V183.779z"/>
<path fill="#FFFFFF" d="M154.499,176.492h-19.222v-19.219h19.222V176.492z M141.931,169.841h5.914v-5.915h-5.914V169.841z"/>
<path fill="#FFFFFF" d="M211.425,179.461h-22.918V156.55h22.918V179.461z M195.161,172.811h9.611v-9.607h-9.611V172.811z"/>
<polygon fill="#FFFFFF" points="194.981,189.71 188.326,189.71 188.326,172.712 211.244,172.712 211.244,189.611 204.59,189.611 
	204.59,179.363 194.981,179.363 "/>
<polygon fill="#FFFFFF" points="237.86,189.71 225.291,189.71 225.291,179.363 221.595,179.363 221.595,189.71 214.939,189.71 
	214.939,172.712 231.944,172.712 231.944,183.058 237.86,183.058 "/>
<path fill="#FFFFFF" d="M238.041,179.461h-22.92V156.55h22.92V179.461z M221.776,172.811h9.609v-9.607h-9.609V172.811z"/>
<path fill="#FFFFFF" d="M264.654,189.809h-22.917V156.55h16.533l6.385,6.383L264.654,189.809L264.654,189.809z M248.39,183.156
	h9.612v-17.468l-2.488-2.485h-7.122v19.953H248.39z"/>
<polygon fill="#FFFFFF" points="195.138,152.721 135.277,152.721 135.277,60.432 152.656,60.432 152.656,134.262 177.759,134.262 
	177.759,60.432 195.138,60.432 "/>
<polygon fill="#FFFFFF" points="264.654,152.721 224.103,152.721 224.103,78.889 218.311,78.889 218.311,152.721 200.931,152.721 
	200.931,60.432 241.482,60.432 241.482,134.262 247.276,134.262 247.276,60.432 264.654,60.432 "/>
</svg>
