<?xml version="1.0" standalone="no"?>
<!DOCTYPE svg PUBLIC "-//W3C//DTD SVG 1.1//EN" "http://www.w3.org/Graphics/SVG/1.1/DTD/svg11.dtd" >
<svg>
<metadata>
Created by FontForge 20120731 at Wed Aug  3 12:34:05 2016
 By www
Copyright (c) 2005-2009, Joshua Darden &#38; Phil's Fonts, Inc. All rights reserved. Published by Garagefonts USA 301-879-9222 www.garagefonts.com
</metadata>
<defs>
<font id="FreightDisplayW01-Bold" horiz-adv-x="526" >
  <font-face 
    font-family="FreightDisplayW01-Bold"
    font-weight="700"
    font-stretch="normal"
    units-per-em="1000"
    panose-1="2 0 8 3 9 0 0 2 0 4"
    ascent="800"
    descent="-200"
    x-height="435"
    cap-height="625"
    bbox="-94 -272 1001 865"
    underline-thickness="50"
    underline-position="-166"
    unicode-range="U+0002-2122"
  />
<missing-glyph horiz-adv-x="180" 
 />
    <glyph glyph-name=".notdef" horiz-adv-x="180" 
 />
    <glyph glyph-name=".null" horiz-adv-x="0" 
 />
    <glyph glyph-name="uni000D" unicode="&#xd;" horiz-adv-x="180" 
 />
    <glyph glyph-name="uni0002" horiz-adv-x="0" 
 />
    <glyph glyph-name="uni0009" unicode="&#x9;" horiz-adv-x="180" 
 />
    <glyph glyph-name="uni000A" unicode="&#xa;" horiz-adv-x="0" 
 />
    <glyph glyph-name="space" unicode=" " horiz-adv-x="180" 
 />
    <glyph glyph-name="exclam" unicode="!" horiz-adv-x="277" 
d="M75 577q-5 24 7 43t56 19h3q44 0 55.5 -19t7.5 -43l-57 -382q-2 -5 -7.5 -5t-7.5 5zM139 -14q-29 0 -48.5 20t-19.5 48q0 27 19.5 46.5t48.5 19.5t48.5 -20t19.5 -46q0 -27 -19.5 -47.5t-48.5 -20.5z" />
    <glyph glyph-name="quotedbl" unicode="&#x22;" horiz-adv-x="354" 
d="M280 645h1l77 -31l-168 -211h-17zM108 645h2l77 -31l-169 -211h-17z" />
    <glyph glyph-name="numbersign" unicode="#" horiz-adv-x="521" 
d="M126 188h-134v20h139l55 207h-135v20h140l52 197h23l-53 -197h161l52 197h23l-52 -197h134v-20h-140l-54 -207h134v-20h-139l-51 -193h-23l51 193h-160l-52 -193h-22zM315 208l54 207h-161l-55 -207h162z" />
    <glyph glyph-name="dollar" unicode="$" horiz-adv-x="501" 
d="M157 -8q-61 7 -112 26l-11 171h25l55 -121q24 -25 53 -38l62 238q-2 0 -6 2q-37 13 -69.5 28t-56.5 36t-38 49.5t-14 67.5q0 37 15.5 71t44 59.5t68.5 40.5t90 15q16 0 31.5 -1t30.5 -3l28 105h22q-8 -31 -14 -55q-3 -11 -5.5 -20t-4.5 -17q-3 -9 -5 -17q15 -2 28.5 -5.5
t26.5 -7.5l44 14l2 -184h-22l-72 143l-15 8l-54 -208q42 -15 78 -31.5t63 -39.5t42 -54.5t15 -74.5q0 -39 -17 -75.5t-48.5 -64.5t-75.5 -45t-98 -17q-17 0 -32.5 0.5t-31.5 1.5l-39 -150h-23zM187 21q31 -11 61 -11q60 0 95.5 33t35.5 85q0 28 -10 48t-27 35.5t-41 27
t-51 21.5zM318 604q-14 5 -29.5 7.5t-31.5 2.5q-51 0 -82 -28.5t-31 -70.5q0 -25 9 -43t25 -31.5t38 -24t47 -19.5q15 58 27 104q5 20 10 38.5t9 32.5q4 17 9 32z" />
    <glyph glyph-name="percent" unicode="%" horiz-adv-x="594" 
d="M147 365q-32 0 -57 11t-42.5 30t-27 44t-9.5 53t9.5 53.5t27 44.5t42.5 30.5t57 11.5t57.5 -11.5t43.5 -30.5t27.5 -44.5t9.5 -53.5t-9.5 -53t-27.5 -44t-43.5 -30t-57.5 -11zM510 640h24l-451 -654h-25zM446 -17q-32 0 -57 11t-42.5 30t-27 44t-9.5 53t9.5 53.5t27 44.5
t42.5 30.5t57 11.5t57.5 -11.5t43 -30.5t27 -44.5t9.5 -53.5t-9.5 -53t-27 -44t-43 -30t-57.5 -11zM147 386q27 0 48 9.5t36 25t23 37t8 45.5q0 49 -30.5 84t-84.5 35q-53 0 -83 -35t-30 -84q0 -24 8 -45.5t22.5 -37t35.5 -25t47 -9.5zM446 4q53 0 83.5 34t30.5 84
q0 24 -8 45t-23 37.5t-36 26t-47 9.5t-47 -9.5t-35.5 -26t-22.5 -37.5t-8 -45q0 -50 30 -84t83 -34z" />
    <glyph glyph-name="ampersand" unicode="&#x26;" horiz-adv-x="725" 
d="M203 -14q-44 0 -79 14t-59 37.5t-37 55t-13 66.5q0 36 13 67t36 55.5t54.5 42.5t68.5 29q-42 20 -69.5 55t-27.5 80q0 31 16.5 58.5t43 47.5t60.5 31.5t69 11.5q37 0 68.5 -9t54.5 -24.5t35.5 -36.5t12.5 -45t-10.5 -44t-28 -35t-41 -25.5t-49.5 -16.5q24 -11 49.5 -30.5
t49 -43t43.5 -49.5t34 -50q27 36 47.5 70t21.5 53q7 39 -66 47l-15 3l-3 16h250l-3 -16l-18 -3q-18 -2 -32.5 -6.5t-28.5 -14.5t-28.5 -26t-32.5 -40l-81 -103q19 -42 36 -71t33.5 -47t34.5 -26.5t39 -8.5q24 0 44 11t34 25l10 -10q-14 -15 -31 -31.5t-37.5 -30.5
t-43.5 -23.5t-50 -9.5q-58 0 -94.5 33t-63.5 96q-48 -55 -100.5 -92t-115.5 -37zM304 409q25 17 34.5 44.5t9.5 59.5q0 19 -5 38t-14.5 34t-24.5 24t-34 9q-35 0 -55.5 -26t-20.5 -64q0 -75 110 -119zM268 67q37 0 73.5 16t69.5 51q-31 72 -83.5 127t-123.5 84
q-44 -29 -61 -63.5t-17 -75.5q0 -29 10.5 -54.5t29.5 -44.5t45.5 -29.5t56.5 -10.5z" />
    <glyph glyph-name="quotesingle" unicode="'" horiz-adv-x="184" 
d="M108 645h2l77 -31l-169 -211h-17z" />
    <glyph glyph-name="parenleft" unicode="(" horiz-adv-x="340" 
d="M326 -267q-40 21 -86 62t-85.5 100t-65.5 134.5t-26 166.5t26 167t65.5 134.5t85.5 99.5t86 62l12 -18q-39 -21 -83 -61.5t-81 -97.5t-61.5 -129t-24.5 -157q0 -86 24.5 -158.5t61.5 -129t81 -97t83 -61.5z" />
    <glyph glyph-name="parenright" unicode=")" horiz-adv-x="340" 
d="M2 -250q39 21 83 61.5t80.5 97t61 129t24.5 158.5q0 85 -24.5 157t-61 129t-80.5 97.5t-83 61.5l12 18q40 -21 86 -62t85.5 -99.5t65.5 -134.5t26 -167t-26 -166.5t-65.5 -134.5t-85.5 -100t-86 -62z" />
    <glyph glyph-name="asterisk" unicode="*" horiz-adv-x="325" 
d="M153 340l5 122q0 2 -3.5 4t-4.5 0l-60 -103l-66 3q-2 0 -4.5 2.5t-3.5 4.5l13 65l116 32q2 2 2 5.5t-2 5.5l-116 34l-13 64q0 2 2.5 4.5t4.5 2.5l67 4l59 -104q1 -2 5 -1t4 2l-5 124l57 31q2 2 5 0t4 -3l25 -57l-80 -96q-1 -1 1.5 -5t3.5 -3l115 45l48 -43q1 -2 1 -6
t-1 -4l-48 -43l-115 46q-1 0 -3.5 -4t-1.5 -6l79 -94l-25 -57q-1 -1 -5 -3t-4 -1z" />
    <glyph glyph-name="plus" unicode="+" horiz-adv-x="448" 
d="M211 223h-198l3 26h195v198h26v-198h195l3 -26h-198v-198h-26v198z" />
    <glyph glyph-name="comma" unicode="," horiz-adv-x="209" 
d="M29 -133q42 23 64.5 54t22.5 66q0 22 -10.5 37t-24.5 23t-29.5 9.5t-25.5 -3.5q-4 12 -1 26.5t12 27t24 20.5t36 8q42 0 67.5 -27.5t25.5 -68.5q0 -26 -11 -52t-31 -50.5t-47.5 -45t-60.5 -35.5z" />
    <glyph glyph-name="hyphen" unicode="-" horiz-adv-x="296" 
d="M26 260h248l-2 -46h-249z" />
    <glyph glyph-name="period" unicode="." horiz-adv-x="220" 
d="M110 -13q-30 0 -50.5 21t-20.5 50q0 28 20.5 48.5t50.5 20.5t50 -21t20 -48q0 -29 -20 -50t-50 -21z" />
    <glyph glyph-name="slash" unicode="/" horiz-adv-x="258" 
d="M224 646h23l-211 -877h-24z" />
    <glyph glyph-name="zero" unicode="0" horiz-adv-x="572" 
d="M282 -13q-54 0 -100 18.5t-79 51.5t-52 79t-19 102q0 55 20 102t55 80.5t82 52.5t101 19t100 -18.5t79 -52t52 -79.5t19 -101q0 -56 -20 -102.5t-54.5 -80t-82 -52.5t-101.5 -19zM286 10q30 0 54 17.5t41.5 47.5t27 70.5t9.5 87.5q0 112 -35 174t-98 62q-29 0 -53.5 -17
t-41.5 -47t-26.5 -70t-9.5 -86q0 -118 34 -178.5t98 -60.5z" />
    <glyph glyph-name="one" unicode="1" horiz-adv-x="360" 
d="M53 17l36 4q20 2 29.5 5.5t9.5 12.5v386l-98 12l3 15l212 37v-452q0 -6 10 -10t36 -6l34 -4l3 -17h-278z" />
    <glyph glyph-name="two" unicode="2" horiz-adv-x="476" 
d="M21 40q65 49 111 85.5t75.5 67.5t43.5 58.5t14 59.5q0 46 -29 74.5t-73 28.5q-41 0 -70 -19.5t-52 -59.5l-12 6q29 72 82 111t122 39q31 0 58.5 -10t47 -27t31 -40.5t11.5 -51.5q0 -35 -18 -65.5t-52 -61.5t-83 -65.5t-110 -79.5v-3h197q24 0 41.5 5t30.5 16.5t24.5 30.5
t23.5 48l10 21l17 -2l-39 -206h-397z" />
    <glyph glyph-name="three" unicode="3" horiz-adv-x="433" 
d="M148 -201q-63 0 -101.5 24.5t-38.5 59.5q0 23 16.5 39t39.5 16q19 0 34 -9.5t25.5 -25t15 -35t2.5 -39.5q2 -1 11.5 -3t18.5 -2q25 0 48 11.5t40.5 31.5t27.5 48.5t10 62.5q0 69 -38 111t-101 42q-22 0 -43 -6t-41 -14l-6 17q43 25 77.5 45.5t58.5 40.5t37 43t13 53
q0 46 -29.5 75.5t-75.5 29.5q-38 0 -69 -20t-51 -60q-1 0 -7 3t-5 3q27 71 79 110.5t120 39.5q34 0 61.5 -10t47.5 -27t31 -40t11 -49q0 -30 -11.5 -53t-31.5 -42.5t-46.5 -36t-55.5 -32.5v-2q43 0 77.5 -13.5t58.5 -37t37 -54.5t13 -67q0 -45 -20 -86.5t-55.5 -73t-83 -50
t-101.5 -18.5z" />
    <glyph glyph-name="four" unicode="4" horiz-adv-x="509" 
d="M274 8h-261l-2 18l318 456h55v-398h118l-19 -76h-99v-192h-110v192zM274 84v280h-2l-196 -280h198z" />
    <glyph glyph-name="five" unicode="5" horiz-adv-x="421" 
d="M125 -200q-72 0 -105 22.5t-33 60.5q0 24 16.5 40.5t41.5 16.5q18 0 31.5 -9t23 -24t13.5 -33.5t3 -37.5q10 -5 19.5 -7.5t25.5 -2.5q24 0 46 10.5t38.5 30t26 46t9.5 58.5q0 80 -63.5 127.5t-182.5 62.5l80 314h278l-17 -105h-264l-28 -111q79 -11 135.5 -32t91.5 -50.5
t51.5 -66t16.5 -77.5q0 -48 -21.5 -90t-57 -74t-81.5 -50.5t-94 -18.5z" />
    <glyph glyph-name="six" unicode="6" horiz-adv-x="529" 
d="M266 -14q-53 0 -96.5 19.5t-74.5 53.5t-48 80.5t-17 99.5q0 85 35.5 158.5t97.5 130t146 91.5t181 43l4 -17q-71 -11 -126.5 -41t-96 -71.5t-66.5 -91.5t-39 -99l2 -2q33 27 72 42.5t78 15.5t72 -13t57 -38t38 -60t14 -78q0 -48 -18.5 -89t-50 -71t-74 -46.5t-90.5 -16.5
zM278 8q49 0 74.5 45t25.5 126t-35.5 125.5t-90.5 44.5q-27 0 -49 -10t-36 -24q-4 -8 -7 -30t-3 -51q0 -48 7 -89.5t22 -71.5t38 -47.5t54 -17.5z" />
    <glyph glyph-name="seven" unicode="7" horiz-adv-x="463" 
d="M388 375v3h-159q-51 0 -83 -2.5t-51 -10t-28 -20.5t-15 -35l-10 -24h-18l23 190h400l3 -18l-279 -642h-92z" />
    <glyph glyph-name="eight" unicode="8" horiz-adv-x="507" 
d="M254 -15q-47 0 -87.5 12t-70.5 34t-47 52.5t-17 67.5q0 25 11.5 48t31 41.5t46 32.5t57.5 22v1q-27 13 -51 28.5t-42 35t-28.5 43t-10.5 53.5q0 34 13.5 67t39.5 59t64.5 42t88.5 16q45 0 83 -11t65.5 -31.5t43 -49t15.5 -63.5q0 -48 -39 -81.5t-96 -51.5v-1
q31 -14 58.5 -30.5t48.5 -38t33 -48t12 -59.5q0 -38 -16 -72.5t-45.5 -60.5t-70.5 -41.5t-90 -15.5zM303 360q25 19 37.5 49t12.5 67q0 28 -7.5 54t-21.5 46.5t-34.5 33t-45.5 12.5q-24 0 -42 -9t-30.5 -24t-19 -34.5t-6.5 -40.5q0 -28 11.5 -50t32 -40.5t49.5 -33.5t64 -30
zM263 6q54 0 84 32t30 78q0 31 -14 55.5t-38 45t-56.5 37.5t-69.5 32q-29 -20 -43.5 -52.5t-15.5 -76.5q0 -28 9 -55t25 -48.5t38.5 -34.5t50.5 -13z" />
    <glyph glyph-name="nine" unicode="9" horiz-adv-x="529" 
d="M34 -166q71 10 126.5 40.5t96 72.5t66.5 91.5t38 99.5l-2 1q-32 -27 -71.5 -42.5t-77.5 -15.5q-39 0 -72.5 13t-57.5 37.5t-38 59.5t-14 80q0 49 19 90t51 70t74.5 45.5t89.5 16.5q54 0 97 -19.5t74 -54t47.5 -80.5t16.5 -98q0 -85 -35.5 -159t-97 -130t-145.5 -91.5
t-181 -43.5zM276 131q27 0 48 9.5t36 23.5q4 9 7 31.5t3 51.5q0 42 -6.5 82t-21 71.5t-37 51t-55.5 19.5q-45 0 -73 -43.5t-28 -125.5q0 -39 9.5 -70.5t26 -54t40 -34.5t51.5 -12z" />
    <glyph glyph-name="colon" unicode=":" horiz-adv-x="218" 
d="M110 286q-30 0 -50.5 21t-20.5 50q0 27 20.5 47.5t50.5 20.5t50 -20.5t20 -47.5q0 -29 -20 -50t-50 -21zM110 -12q-30 0 -50.5 20.5t-20.5 49.5q0 27 20.5 47.5t50.5 20.5t50 -20.5t20 -47.5q0 -29 -20 -49.5t-50 -20.5z" />
    <glyph glyph-name="semicolon" unicode=";" horiz-adv-x="209" 
d="M105 286q-29 0 -50 20.5t-21 49.5q0 28 21 48.5t50 20.5q30 0 50 -21t20 -48q0 -29 -20 -49.5t-50 -20.5zM29 -132q42 23 64.5 53.5t22.5 65.5q0 22 -10.5 37t-24.5 23t-29.5 9t-25.5 -3q-4 12 -1 26.5t12 26.5t24 20.5t36 8.5q42 0 67.5 -28t25.5 -67q0 -26 -11 -52.5
t-31 -50.5t-47.5 -44.5t-60.5 -35.5z" />
    <glyph glyph-name="less" unicode="&#x3c;" horiz-adv-x="438" 
d="M11 226v18l400 194l10 -24l-370 -177l1 -1q91 -44 184.5 -90t184.5 -90l-10 -24z" />
    <glyph glyph-name="equal" unicode="=" horiz-adv-x="448" 
d="M24 335h400l-3 -26h-394zM27 162h394l3 -26h-400z" />
    <glyph glyph-name="greater" unicode="&#x3e;" horiz-adv-x="438" 
d="M27 32l-10 24l369 179v1q-90 44 -184.5 89t-184.5 89l10 24l400 -194v-18z" />
    <glyph glyph-name="question" unicode="?" horiz-adv-x="343" 
d="M155 181q-15 11 -30 25.5t-26.5 30t-19 31.5t-7.5 30q0 21 8.5 36.5t24 27t37 20.5t48.5 18q50 17 72.5 30t22.5 33q0 29 -40 52t-111 23q-24 0 -44.5 -3.5t-35.5 -6.5q-10 8 -17 21.5t-8 29.5q-1 26 17.5 43t62.5 17t81 -17.5t64 -46t42 -65.5t15 -75q0 -29 -5 -48.5
t-16 -33.5t-28.5 -24t-41.5 -20q-43 -17 -66 -28t-23 -33q0 -18 11 -32.5t30 -32.5zM160 -13q-29 0 -48.5 20t-19.5 47t19.5 46.5t48.5 19.5t48 -20t19 -46q0 -27 -19 -47t-48 -20z" />
    <glyph glyph-name="at" unicode="@" horiz-adv-x="798" 
d="M400 -116q-81 0 -149 26.5t-117.5 74.5t-77 114t-26.5 145q1 83 32.5 156.5t85.5 128.5t126 86.5t154 31.5q74 0 137 -24t109 -67t71.5 -102t24.5 -130q0 -57 -19.5 -106.5t-52 -87t-74.5 -59t-87 -21.5q-56 0 -84 25t-26 60q0 7 2.5 20t6 27t8 27.5t8.5 22.5h-5
q-25 -40 -46.5 -72.5t-42.5 -56t-42 -36t-44 -12.5q-40 0 -68.5 28t-29.5 70q0 30 10.5 63.5t28.5 66.5t42 63.5t50 55.5q34 35 67 51t61 16q32 0 47.5 -28.5t14.5 -66.5h4l40 110l94 -3l-64 -167l-42 -133q-12 -38 1.5 -60.5t59.5 -22.5q29 0 57.5 17t51.5 47t37.5 71.5
t15.5 90.5q1 67 -23 122.5t-67 96t-103 63t-130 22.5q-77 0 -145.5 -30.5t-119.5 -83t-80.5 -122.5t-30.5 -148q0 -75 25.5 -137.5t72 -108t111 -70.5t141.5 -25q43 0 82.5 11t74 29.5t62 44t45.5 54.5l10 -14q-20 -30 -48.5 -56.5t-64 -46t-76.5 -30.5t-86 -11zM318 120
q24 0 59.5 41.5t73.5 111.5q4 7 8.5 17.5t8.5 21t7 19.5t3 13q-2 13 -9.5 27t-18 25t-23.5 18.5t-26 7.5q-11 0 -18.5 -4t-15.5 -12q-14 -14 -30 -41t-29.5 -59.5t-22 -66t-8.5 -60.5q0 -28 12 -43.5t29 -15.5z" />
    <glyph glyph-name="A" unicode="A" horiz-adv-x="649" 
d="M150 168q-15 -45 -23 -72.5t-5 -43.5t17.5 -22.5t44.5 -9.5l23 -3l3 -17h-223l3 17l19 3q22 3 36.5 9.5t28 26.5t29 58t39.5 104l114 317l-8 34q12 3 25.5 10.5t26.5 17.5t23.5 21.5t15.5 23.5h18l178 -520q10 -31 19 -50t18.5 -30t20 -15.5t25.5 -5.5l30 -4l3 -17h-310
l3 17l29 3q18 1 27.5 6.5t12 16.5t-1 28.5t-12.5 43.5l-44 135h-177zM272 507h-4l-82 -235h162z" />
    <glyph glyph-name="B" unicode="B" horiz-adv-x="611" 
d="M25 16l37 4q24 3 34 7.5t10 10.5v552q0 6 -9 8.5t-43 6.5l-28 3l-3 17h269q71 0 120.5 -10t80 -28t44 -43.5t13.5 -57.5q0 -56 -46.5 -92t-133.5 -50v-3q100 -8 155 -52.5t55 -113.5q0 -79 -68.5 -127t-211.5 -48h-278zM289 19q3 0 7 1q2 0 4.5 0.5t1.5 0.5q31 1 56.5 13
t44.5 32t29.5 46.5t10.5 57.5q0 36 -13 64.5t-36 49t-53.5 31t-66.5 10.5h-20.5t-17.5 -2v-289zM269 344q67 0 106.5 34.5t39.5 95.5q0 64 -39.5 96.5t-109.5 32.5h-30v-259h33z" />
    <glyph glyph-name="C" unicode="C" horiz-adv-x="693" 
d="M391 -13q-81 0 -147 23t-113 65t-73 101t-26 130q0 72 25.5 133t73 105.5t115.5 69.5t153 25q47 0 91 -11t67 -23l72 21l5 -207h-25l-84 167q-20 13 -52 21.5t-73 8.5q-54 0 -96.5 -23t-71.5 -63t-44 -95.5t-15 -119.5q0 -70 17 -126.5t47 -96.5t71 -61.5t90 -21.5
q68 0 112 29t77 83l37 87h27l-30 -186h-43q-14 -6 -35.5 -12t-46.5 -11.5t-52.5 -8.5t-52.5 -3z" />
    <glyph glyph-name="D" unicode="D" horiz-adv-x="697" 
d="M25 16l37 4q24 3 34 7.5t10 10.5v552q0 6 -9 9t-43 6l-28 4l-3 16q81 0 144 1h52.5t45.5 0.5t32 0.5t11 0q87 1 154 -20.5t112.5 -61.5t69 -97t23.5 -126q0 -66 -26 -124.5t-74 -102.5t-117 -69.5t-155 -25.5h-273zM304 20q54 0 95.5 22.5t69.5 61t42.5 89t14.5 107.5
q0 68 -14.5 124t-44.5 96t-75.5 62t-108.5 22h-47v-567z" />
    <glyph glyph-name="E" unicode="E" horiz-adv-x="619" 
d="M25 16l36 4q24 3 34.5 7.5t10.5 10.5v552q0 6 -9 9t-43 6l-28 4l-3 16h521l7 -205h-26l-9 33q-12 43 -28 72t-40.5 47t-59.5 25t-85 7l-67 -1v-274l37 1q59 2 88.5 18t42.5 57l11 32h21l-25 -240l-20 1l-4 31q-2 22 -8 36.5t-19.5 23.5t-36 13t-57.5 6l-30 1v-285l83 -3
q52 0 89 10.5t63.5 30.5t44 48.5t31.5 64.5l10 30h26l-26 -205h-535z" />
    <glyph glyph-name="F" unicode="F" horiz-adv-x="583" 
d="M25 16l38 4q25 3 34 7.5t9 10.5v552q0 6 -8.5 9t-42.5 6l-29 4l-3 16h519l7 -197h-25l-10 33q-14 40 -30.5 67.5t-40.5 44.5t-58 24t-83 7l-66 -1v-280l38 1q59 1 88.5 16.5t42.5 56.5l12 33h20l-25 -240l-20 1l-3 31q-2 22 -8 37t-19.5 24t-36.5 13.5t-58 4.5l-31 1
v-267q0 -6 8 -9.5t42 -5.5l46 -4l3 -16h-313z" />
    <glyph glyph-name="G" unicode="G" horiz-adv-x="722" 
d="M385 -16q-81 0 -146.5 24t-111 67t-70.5 102.5t-25 129.5q0 72 25.5 132.5t73 105t115.5 69.5t153 25q24 0 48 -3t45.5 -7.5t39 -10.5t28.5 -12l71 20l2 -206h-26l-81 165q-21 15 -55 23.5t-74 8.5q-54 0 -95.5 -23t-70 -63.5t-43 -95.5t-14.5 -119q0 -75 18 -133
t48 -97.5t69.5 -59.5t83.5 -20q33 0 63 9.5t44 18.5v206q0 6 -13 10t-46 6l-36 3l-3 17h305l-3 -17l-41 -4q-23 -2 -31 -6t-8 -9v-181l58 5l2 -12q-29 -13 -66 -25.5t-77 -22t-80.5 -15t-75.5 -5.5z" />
    <glyph glyph-name="H" unicode="H" horiz-adv-x="750" 
d="M25 16l37 4q24 3 34 7.5t10 10.5v552q0 6 -9 9t-43 6l-28 4l-3 16h296l-3 -16l-37 -4q-24 -3 -34 -8t-10 -10v-258h280v261q0 6 -8.5 9t-42.5 6l-29 4l-3 16h296l-3 -16l-37 -4q-23 -3 -33 -7.5t-10 -10.5v-552q0 -3 1.5 -5t6.5 -4t15.5 -3.5t27.5 -2.5l28 -4l3 -16h-296
l3 16l38 4q23 3 33 7.5t10 10.5v269h-280v-272q0 -6 8.5 -9t42.5 -6l29 -4l3 -16h-296z" />
    <glyph glyph-name="I" unicode="I" horiz-adv-x="365" 
d="M33 16l41 4q44 4 44 18v552q0 6 -9 9t-43 6l-33 4l-3 16h305l-3 -16l-41 -4q-25 -2 -34.5 -7.5t-9.5 -10.5v-552q0 -6 9 -9t42 -6l33 -4l3 -16h-304z" />
    <glyph glyph-name="J" unicode="J" horiz-adv-x="364" 
d="M23 -149q-45 0 -73.5 21t-28.5 53q0 26 18.5 44.5t47.5 18.5q21 0 36.5 -10.5t23 -27t6.5 -37t-12 -39.5q43 3 63 54.5t20 147.5v514q0 6 -8.5 9.5t-42.5 5.5l-36 4l-3 16h306l-3 -16l-39 -4q-24 -3 -34 -7.5t-10 -10.5v-494q0 -39 -20 -81.5t-52.5 -78.5t-74 -59
t-84.5 -23z" />
    <glyph glyph-name="K" unicode="K" horiz-adv-x="692" 
d="M25 16l38 4q24 3 33.5 7.5t9.5 10.5v552q0 6 -8.5 9t-42.5 6l-29 4l-3 16h301l-3 -16l-42 -4q-24 -2 -34 -7.5t-10 -10.5v-300l156 160q46 47 69 76t26 46.5t-12 25t-43 10.5l-31 4l-2 16h268l-3 -16l-27 -4q-25 -3 -43.5 -10.5t-40 -24t-50 -45t-72.5 -73.5l-40 -39
l193 -312q15 -26 26 -41.5t21 -24t20.5 -12t24.5 -4.5l19 -3l3 -16h-292l2 16l20 4q15 1 23 6t7.5 15.5t-9 29t-25.5 48.5l-122 205l-66 -66v-223q0 -6 9 -9t43 -6l33 -4l3 -16h-301z" />
    <glyph glyph-name="L" unicode="L" horiz-adv-x="577" 
d="M25 16l38 5q25 2 34 7t9 10v551q0 6 -8.5 9.5t-42.5 6.5l-29 4l-3 16h308l-3 -16l-49 -5q-44 -3 -44 -17v-563l57 -4q47 0 79.5 9.5t57.5 29.5t44 52t39 77l12 33h26l-29 -221h-499z" />
    <glyph glyph-name="M" unicode="M" horiz-adv-x="857" 
d="M18 16l29 3q20 1 32.5 6t20 15t10.5 26.5t4 42.5l13 455q-18 34 -61 40l-36 4l-3 17h240l160 -450h3l163 450h241l-3 -17l-54 -4q-21 -2 -30.5 -8t-9.5 -13l11 -496q0 -20 2 -32.5t7.5 -19.5t15 -10t24.5 -4l36 -5l3 -16h-307l3 16l49 5q21 2 28.5 16t6.5 52l-12 485h-4
l-210 -568h-33l-198 545q-2 4 -5.5 7t-4.5 5l-11 -460q-1 -24 1.5 -39.5t10 -25t22 -14t37.5 -5.5l29 -3l3 -16h-226z" />
    <glyph glyph-name="N" unicode="N" horiz-adv-x="709" 
d="M141 521h-3l1 -415q0 -25 3.5 -40.5t12 -25t23 -14t35.5 -6.5l30 -4l3 -16h-226l3 16l28 4q36 3 49.5 21.5t13.5 69.5l3 423q-15 26 -36.5 45t-50.5 24l-21 6l-3 16h223l348 -437h3l-1 330q0 25 -3.5 41t-12 25.5t-22.5 14t-36 6.5l-29 4l-3 16h225l-3 -16l-28 -4
q-35 -3 -49 -21.5t-14 -70.5l-3 -519h-35z" />
    <glyph glyph-name="O" unicode="O" horiz-adv-x="746" 
d="M368 -14q-74 0 -135.5 23.5t-106 66t-69.5 102.5t-25 132q0 67 27.5 126.5t74.5 104.5t110 71t134 26q73 0 135 -23.5t106.5 -66.5t69.5 -102.5t25 -132.5q0 -67 -27.5 -126.5t-74.5 -104t-110 -70.5t-134 -26zM376 8q92 0 143.5 75t51.5 227q0 73 -14.5 130t-41 96
t-63.5 59.5t-82 20.5q-93 0 -145 -75t-52 -227q0 -147 55.5 -226.5t147.5 -79.5z" />
    <glyph glyph-name="P" unicode="P" horiz-adv-x="592" 
d="M20 16l42 4q24 3 34 7.5t10 10.5v552q0 6 -9 9t-43 6l-33 4l-3 16h287q132 0 197 -40.5t65 -116.5q0 -43 -20 -76.5t-55.5 -57t-85 -36t-109.5 -12.5q-17 0 -32.5 1t-28.5 3v-255q0 -6 8 -9.5t42 -5.5l44 -4l3 -16h-316zM294 306q60 0 97 40t37 107q0 73 -34.5 112.5
t-106.5 39.5q-4 0 -12 -0.5t-17 -0.5h-22v-291q12 -2 25 -4.5t33 -2.5z" />
    <glyph glyph-name="Q" unicode="Q" horiz-adv-x="745" 
d="M606 -181q-47 0 -86.5 8t-73 27.5t-61 52t-50.5 81.5q-68 5 -124 31.5t-96 69t-61.5 99t-21.5 122.5t27.5 125.5t74.5 104t110 71t134 26.5q75 0 137 -24.5t106.5 -68t68.5 -102.5t24 -129q0 -51 -17 -99t-47.5 -87.5t-73 -70t-92.5 -47.5q24 -52 50.5 -84.5t59.5 -50
t74 -20.5t94 3l3 -15q-11 -4 -29 -8t-39.5 -7.5t-45 -5.5t-45.5 -2zM376 7q92 0 143.5 75.5t51.5 227.5q0 73 -14.5 130t-41 96t-63.5 59.5t-82 20.5q-93 0 -145 -76t-52 -228q0 -73 14.5 -129.5t41 -95.5t64 -59.5t83.5 -20.5z" />
    <glyph glyph-name="R" unicode="R" horiz-adv-x="668" 
d="M20 16l42 4q20 2 32 7t12 11v552q0 6 -9 9t-43 6l-33 4l-3 16l298 1q128 0 191 -40t63 -118q0 -58 -40.5 -100t-110.5 -59l130 -205q15 -24 26.5 -39.5t22.5 -25t23 -14t28 -6.5l16 -3l4 -16h-210l-18 35l-149 265q-10 2 -28.5 5t-27.5 7v-277q0 -11 50 -15l36 -4l3 -16
h-308zM289 324q67 2 105 37t38 103q0 67 -40.5 105t-115.5 36q-1 0 -7 -0.5t-14 -0.5h-19v-272q9 -2 26.5 -5t26.5 -3z" />
    <glyph glyph-name="S" unicode="S" horiz-adv-x="525" 
d="M249 -13q-58 -1 -107 8.5t-91 24.5l-11 170h24l42 -99q54 -82 149 -82q63 1 97 34.5t34 86.5q0 31 -12 52.5t-32.5 38t-48.5 28.5t-61 23q-37 13 -69.5 28t-56.5 36t-38 49.5t-14 67.5q0 37 15 71t43 59t67.5 40t89.5 15q42 0 76.5 -6.5t61.5 -14.5l44 14l3 -185h-22
l-72 144q-18 11 -41 18.5t-54 7.5q-52 0 -83 -28.5t-31 -70.5q0 -27 11.5 -46.5t31 -33.5t46 -25.5t56.5 -21.5q41 -14 75.5 -30.5t60 -39.5t39.5 -54t14 -74q0 -40 -17 -77t-47.5 -65.5t-74 -45.5t-97.5 -17z" />
    <glyph glyph-name="T" unicode="T" horiz-adv-x="664" 
d="M177 16l47 4q23 2 33 7t10 11v567h-24q-35 -2 -63.5 -14t-50 -31.5t-37.5 -43.5t-27 -49l-11 -36h-27l26 194h566l13 -193h-24l-11 35q-11 27 -26.5 52t-37 44t-49 30.5t-61.5 11.5h-26v-570q0 -6 9 -9t42 -6l39 -4l3 -16h-316z" />
    <glyph glyph-name="U" unicode="U" horiz-adv-x="701" 
d="M360 -17q-131 0 -195 52t-64 165v391q0 5 -8 8.5t-42 5.5l-34 4l-3 16h305l-3 -16l-42 -4q-24 -2 -33.5 -6.5t-9.5 -10.5v-358q0 -99 44 -146.5t129 -47.5q86 0 131 50t45 155l-1 277q0 25 -3.5 41t-12 25.5t-23 14t-35.5 6.5l-30 4l-3 16h226l-3 -16l-28 -4
q-35 -3 -49 -21.5t-14 -70.5l-2 -278q-1 -120 -59 -186t-183 -66z" />
    <glyph glyph-name="V" unicode="V" horiz-adv-x="654" 
d="M107 508q-13 31 -21.5 49.5t-17 28.5t-18.5 13.5t-25 4.5l-31 5l-2 16h305l-2 -16l-35 -3q-21 -1 -31 -5t-12 -13.5t3 -26.5t16 -44l144 -374h6l110 301q18 49 26 79.5t5 47.5t-18.5 24.5t-45.5 10.5l-22 3l-3 16h226l-3 -16l-19 -4q-21 -3 -35.5 -8.5t-27.5 -23.5
t-27.5 -52t-35.5 -92l-165 -436h-44z" />
    <glyph glyph-name="W" unicode="W" horiz-adv-x="984" 
d="M101 508q-11 29 -19.5 47t-16.5 28.5t-18.5 14.5t-25.5 6l-29 4l-3 17h306l-3 -17l-35 -2q-36 -2 -39.5 -17t11.5 -59l138 -386h4l119 315l-17 49q-10 27 -18 45t-16.5 29t-18.5 16t-25 6l-33 4l-3 17h310l-3 -17l-34 -2q-36 -2 -41.5 -17t11.5 -62l129 -378h4l99 283
q18 51 26.5 83t5.5 50.5t-19 27t-48 12.5l-25 3l-3 17h230l-3 -17l-18 -3q-23 -4 -37 -10.5t-26 -24.5t-25.5 -51t-33.5 -89l-158 -441h-39l-156 439h-3l-167 -439h-40z" />
    <glyph glyph-name="X" unicode="X" horiz-adv-x="654" 
d="M0 16l31 5q19 2 35 10t32 24t35 41t45 61l96 131l-142 215q-17 27 -29 45.5t-22 30.5t-19.5 17.5t-21.5 6.5l-35 6l-4 16h308l-2 -16l-32 -3q-32 -2 -34 -20.5t32 -69.5l83 -133h2l61 89q28 40 41 64.5t13 38.5t-13.5 20.5t-38.5 9.5l-26 4l-3 16h236l-3 -16l-28 -5
q-20 -2 -36 -9.5t-33 -23.5t-37.5 -42t-49.5 -66l-70 -97l174 -268q14 -21 24 -35.5t18 -23.5t16.5 -13t19.5 -5l28 -5l4 -16h-302l2 16l32 3q33 2 36.5 18.5t-19.5 50.5l-117 183h-2q-6 -8 -12 -18q-5 -8 -12 -18t-14 -21q-17 -26 -39 -57q-28 -39 -40.5 -64.5t-12 -40.5
t13.5 -22t37 -10l26 -4l3 -16h-238z" />
    <glyph glyph-name="Y" unicode="Y" horiz-adv-x="635" 
d="M163 16l47 4q23 2 33 7t10 11v238l-144 252q-12 20 -21.5 34t-18.5 22.5t-19.5 13t-25.5 6.5l-23 4l-3 17h302l-3 -17l-22 -2q-40 -5 -44.5 -21.5t17.5 -54.5l118 -214h4l79 146q23 42 34 68.5t10 42t-15 22.5t-42 10l-23 3l-3 17h225l-3 -17l-25 -4q-17 -3 -31 -8.5
t-28 -20.5t-31.5 -42.5t-41.5 -72.5l-92 -165v-260q0 -6 9 -9t42 -6l38 -4l3 -16h-315z" />
    <glyph glyph-name="Z" unicode="Z" horiz-adv-x="603" 
d="M32 17l377 583v3h-96q-51 0 -87.5 -9.5t-62.5 -28t-43.5 -46t-30.5 -64.5l-8 -30h-25l9 200h497v-18l-384 -581v-3l105 -2q59 -2 99 7.5t68.5 30.5t48.5 54.5t40 79.5l11 31h26l-29 -224h-515v17z" />
    <glyph glyph-name="bracketleft" unicode="[" horiz-adv-x="325" 
d="M64 637h249v-21h-224v-830h224v-21h-249v872z" />
    <glyph glyph-name="backslash" unicode="\" horiz-adv-x="246" 
d="M-3 646h24l211 -877h-23z" />
    <glyph glyph-name="bracketright" unicode="]" horiz-adv-x="325" 
d="M11 -214h224v830h-224v21h249v-872h-249v21z" />
    <glyph glyph-name="asciicircum" unicode="^" horiz-adv-x="379" 
d="M180 688h19l136 -197h-15l-129 98h-2l-131 -98h-14z" />
    <glyph glyph-name="underscore" unicode="_" horiz-adv-x="453" 
d="M14 0h426l3 -36h-432z" />
    <glyph glyph-name="grave" unicode="`" horiz-adv-x="400" 
d="M39 683h121l99 -185h-17z" />
    <glyph glyph-name="a" unicode="a" horiz-adv-x="462" 
d="M354 -13q-34 0 -55 21.5t-26 63.5l-2 1q-31 -35 -63.5 -60t-72.5 -25q-23 0 -42.5 8t-34.5 21.5t-23.5 32.5t-8.5 40q0 28 13 51.5t42 43.5t77 38.5t117 35.5l1 26q2 64 -24.5 96.5t-74.5 32.5q-27 0 -45.5 -8t-18.5 -16q0 -3 4.5 -8.5t9.5 -13t9.5 -17t4.5 -19.5
q0 -20 -16 -36t-42 -16q-24 0 -41 13t-17 35q0 24 21.5 46t54 39t71 27t72.5 10q82 0 116.5 -37.5t30.5 -130.5l-8 -180q-2 -27 7 -39.5t26 -12.5q11 0 21.5 8.5t21.5 19.5l10 -10q-9 -12 -21.5 -26t-27.5 -26.5t-31.5 -20.5t-34.5 -8zM200 58q20 0 36.5 8.5t33.5 25.5
l6 149q-42 -11 -68.5 -23t-42 -26.5t-21.5 -30t-6 -33.5q0 -32 18 -51t44 -19z" />
    <glyph glyph-name="b" unicode="b" horiz-adv-x="527" 
d="M54 557q0 27 -7 37t-27 16l-31 11l1 12l177 47v-320l4 -1q29 36 68 61t85 25q38 0 70.5 -16t56.5 -44.5t38 -67.5t14 -85q0 -59 -21 -104.5t-54.5 -77t-77 -48t-88.5 -16.5q-34 0 -68.5 9t-63.5 20h-1l-67 -36h-8v578zM278 7q23 0 41.5 14.5t31.5 40t20 60t7 75.5
q0 38 -8.5 70.5t-24 56t-38 37t-49.5 13.5q-29 0 -51.5 -12t-39.5 -28v-240q21 -37 50.5 -62t60.5 -25z" />
    <glyph glyph-name="c" unicode="c" horiz-adv-x="441" 
d="M232 -15q-45 0 -83 16.5t-66 46t-43.5 69.5t-15.5 88q0 52 17.5 96.5t49.5 77.5t76 52t97 19q34 0 63 -7.5t50 -20.5t32.5 -31.5t11.5 -40.5q0 -28 -17.5 -44.5t-42.5 -16.5q-29 0 -46 21.5t-15 50.5q0 16 9 27t9 16q-2 9 -17.5 16.5t-35.5 7.5q-51 0 -84.5 -48
t-33.5 -133q0 -88 39.5 -138t106.5 -50q40 0 70.5 17.5t53.5 56.5l12 -6q-30 -68 -79 -105t-118 -37z" />
    <glyph glyph-name="d" unicode="d" horiz-adv-x="537" 
d="M358 72l-2 1q-29 -36 -68 -61.5t-84 -25.5q-38 0 -71 16.5t-57 45t-38 68t-14 86.5q0 58 20.5 103.5t54.5 76.5t78 47t90 16q52 0 90 -15q1 -1 1 0v136q0 27 -6.5 37.5t-26.5 15.5l-41 11l2 11l186 38v-594q0 -26 5 -34.5t20 -13.5l41 -10l-2 -12l-178 -30v87zM270 56
q29 0 50 12t38 29v241q-20 37 -49 61t-58 24q-24 0 -43.5 -14.5t-32.5 -39.5t-20 -59.5t-7 -74.5q0 -39 8.5 -71.5t24.5 -56.5t38.5 -37.5t50.5 -13.5z" />
    <glyph glyph-name="e" unicode="e" horiz-adv-x="456" 
d="M232 -15q-45 0 -83 16.5t-65.5 46.5t-43.5 70.5t-16 88.5q0 52 17.5 96.5t49 77.5t74.5 51.5t94 18.5q41 0 72.5 -11.5t53 -31.5t32.5 -46.5t11 -56.5q0 -15 -3 -28q-73 0 -132 1q-25 0 -50 0.5t-45 1t-34 1t-17 0.5q-2 -8 -2 -19v-19q0 -41 11 -75t30.5 -58t47 -37.5
t60.5 -13.5q40 0 71.5 17.5t55.5 56.5l12 -6q-30 -68 -79.5 -105t-121.5 -37zM316 299q0 25 -3.5 48.5t-12 41.5t-22 29t-32.5 11q-35 0 -63 -36t-35 -95z" />
    <glyph glyph-name="f" unicode="f" horiz-adv-x="329" 
d="M25 16l20 1q21 2 30 5t9 12v345l-79 2l18 52h60l2 46q3 45 23 81t50.5 61t68 38.5t75.5 13.5q48 0 71 -18t23 -44q0 -23 -17 -39t-41 -16q-52 0 -70 78l-2 6l-20 4q-27 -12 -37 -45t-10 -103v-63h127l-14 -52h-113v-348q0 -7 7.5 -10.5t38.5 -5.5l36 -1l3 -16h-262z" />
    <glyph glyph-name="g" unicode="g" horiz-adv-x="482" 
d="M191 -245q-88 0 -134 26.5t-46 77.5q0 21 10.5 38t27 30.5t37.5 24t42 18.5v2q-45 5 -74 30t-29 57q0 19 9.5 36t24.5 30.5t34.5 23t39.5 15.5l1 2q-40 15 -66 46.5t-26 81.5q0 31 13.5 59.5t38 49.5t58.5 33.5t74 12.5q35 0 66 -9t55 -24l136 17l-8 -59l-99 15l-1 -4
q15 -14 25 -35t10 -46q0 -33 -14 -60.5t-39 -48t-60 -32t-76 -11.5q-17 0 -34 2t-30 5q-21 -5 -35 -18t-14 -30q0 -39 76 -39q12 0 28.5 0.5t34 1t34.5 1t31 0.5q68 0 108.5 -33.5t40.5 -91.5q0 -41 -19.5 -76.5t-55.5 -61.5t-85.5 -41.5t-109.5 -15.5zM225 170q75 0 75 125
q0 63 -18 99t-57 36q-34 0 -52.5 -31.5t-18.5 -95.5q0 -65 19 -99t52 -34zM243 -218q31 0 57 8.5t45 23.5t29 34.5t10 42.5q0 38 -26.5 57.5t-86.5 22.5q-20 2 -51.5 0t-68.5 -4q-23 -9 -37 -31t-14 -52q0 -45 39 -73.5t104 -28.5z" />
    <glyph glyph-name="h" unicode="h" horiz-adv-x="538" 
d="M13 16l17 1q22 2 30.5 5t8.5 12v522q0 27 -6 37t-26 16l-32 11l2 12l178 47v-313l2 -1q18 15 37.5 30t40.5 27t44 19.5t47 7.5q47 0 81 -32q18 -19 25.5 -48t7.5 -64v-271q0 -5 7.5 -9t41.5 -8l14 -1l3 -16h-237l3 16l19 1q25 2 30 6.5t5 10.5v244q0 54 -21.5 74.5
t-61.5 20.5q-28 0 -50.5 -9.5t-38.5 -20.5v-310q0 -7 7.5 -10.5t35.5 -5.5l18 -1l3 -16h-238z" />
    <glyph glyph-name="i" unicode="i" horiz-adv-x="273" 
d="M130 516q-34 0 -52.5 22.5t-18.5 48.5t18.5 48.5t52.5 22.5q35 0 53.5 -22.5t18.5 -48.5t-18.5 -48.5t-53.5 -22.5zM23 16l17 1q22 2 31 5t9 12v269q0 23 -1.5 37t-6 22t-13 12.5t-21.5 7.5l-21 5l1 12l177 49v-415q0 -7 8 -10t39 -6l14 -1l3 -16h-239z" />
    <glyph glyph-name="j" unicode="j" horiz-adv-x="262" 
d="M128 516q-35 0 -53.5 22.5t-18.5 48.5t18.5 48.5t53.5 22.5q34 0 52 -22.5t18 -48.5t-18 -48.5t-52 -22.5zM-11 -255q-38 0 -60.5 18t-22.5 46q0 24 17.5 40t40.5 16q17 0 30 -8t21 -20.5t10.5 -28t-0.5 -30.5q29 4 40.5 47t11.5 113v365q0 23 -2 37t-6.5 22t-12.5 12.5
t-21 7.5l-22 5l1 12l177 49v-469q-1 -40 -20 -81.5t-48 -75.5t-64.5 -55.5t-69.5 -21.5z" />
    <glyph glyph-name="k" unicode="k" horiz-adv-x="518" 
d="M15 16l16 1q21 3 29.5 5.5t8.5 11.5v522q0 27 -6 37t-26 16l-32 11l2 12l178 47v-467l66 61q45 42 67.5 68.5t22.5 43.5q0 14 -11.5 22t-44.5 11l-12 1l-2 16h225l-3 -16l-18 -3q-17 -2 -32.5 -8t-32.5 -17.5t-38.5 -30.5t-51.5 -48l-9 -9q-3 -3 -6 -5.5t-2 -2.5
l125 -214q11 -18 19 -29.5t15.5 -18.5t16 -10.5t20.5 -4.5l15 -2l3 -16h-179l-19 38l-100 180l-34 -31v-154q0 -7 8 -10t37 -6l17 -1l2 -16h-237z" />
    <glyph glyph-name="l" unicode="l" horiz-adv-x="267" 
d="M21 16l17 1q22 2 29.5 5t7.5 12v510q0 36 -6.5 47.5t-26.5 17.5l-30 11l1 12l178 47v-646q0 -7 8 -10t35 -6l16 -1l3 -16h-235z" />
    <glyph glyph-name="m" unicode="m" horiz-adv-x="814" 
d="M22 16l17 1q22 2 31 5t9 12v268q0 23 -1.5 37.5t-6 22.5t-13 12.5t-21.5 7.5l-21 5l1 12l178 49l-2 -83h3q16 15 34 30t38 27t42 19.5t46 7.5q25 0 45 -8.5t36 -23.5q19 -21 27 -54l3 -1q35 34 76 60.5t89 26.5q47 0 81 -32q17 -18 25 -50t8 -77v-256q0 -3 1 -5t5.5 -4
t14.5 -4t27 -4l14 -1l3 -16h-237l3 16l19 1q25 2 30.5 6.5t5.5 10.5v242q0 55 -21 76t-62 21q-24 0 -47 -10.5t-31 -24.5v-6t-0.5 -12.5t-0.5 -12.5v-7v-267q0 -6 6.5 -9t37.5 -7l16 -1l3 -16h-234l3 16l18 1q23 2 29.5 6.5t6.5 10.5v242q0 55 -21 76t-61 21q-25 0 -44.5 -9
t-35.5 -20v-311q0 -7 7 -10.5t36 -5.5l17 -1l3 -16h-238z" />
    <glyph glyph-name="n" unicode="n" horiz-adv-x="548" 
d="M22 16l17 1q22 2 31 5t9 12v268q0 23 -1.5 37.5t-6 22.5t-13 12.5t-21.5 7.5l-21 5l1 12l178 49l-2 -83h3q18 15 37.5 30t41 27t44.5 19.5t47 7.5q48 0 80 -32q18 -18 26 -47.5t8 -64.5v-271q0 -3 1 -5t6 -4t14.5 -4t26.5 -4l14 -1l3 -16h-236l3 16l18 1q25 2 30.5 6.5
t5.5 10.5v242q0 56 -22 76.5t-62 20.5q-28 0 -50 -9.5t-38 -20.5v-310q0 -7 7 -10.5t35 -5.5l19 -1l2 -16h-238z" />
    <glyph glyph-name="o" unicode="o" 
d="M259 -14q-54 0 -97.5 18t-74 49.5t-47 73.5t-16.5 90t18 90.5t50.5 74t77 50t98.5 18.5t97 -18t74 -49t47.5 -72.5t16.5 -88.5q0 -49 -18 -92t-50.5 -75t-77 -50.5t-98.5 -18.5zM263 6q26 0 46.5 15.5t35 42.5t22 63.5t7.5 79.5q0 74 -13 123t-37 73q-11 11 -26 18.5
t-36 7.5q-27 0 -47.5 -15t-35 -42t-21.5 -63t-7 -78q0 -148 49 -199q24 -26 63 -26z" />
    <glyph glyph-name="p" unicode="p" horiz-adv-x="538" 
d="M5 -235l21 2q21 2 30.5 4.5t9.5 11.5v520q0 23 -2 37t-6.5 22t-12.5 12.5t-21 7.5l-22 5l1 12l178 49l-1 -88l3 -1q30 36 68.5 61t84.5 25q38 0 71 -16t57 -44.5t37.5 -67.5t13.5 -85q0 -59 -20.5 -104.5t-54.5 -77t-76.5 -48t-87.5 -16.5q-29 0 -53 4.5t-41 11.5h-2
v-221q0 -6 8 -9.5t39 -4.5l35 -2l3 -16h-263zM290 7q23 0 41.5 14.5t31.5 40t20 60t7 75.5q0 38 -8.5 70t-24.5 55.5t-38 37t-50 13.5t-50 -11.5t-39 -27.5v-241q21 -38 50.5 -62t59.5 -24z" />
    <glyph glyph-name="q" unicode="q" horiz-adv-x="531" 
d="M277 -235l36 2q30 1 37.5 4.5t7.5 9.5v291l-2 1q-29 -36 -68 -61.5t-84 -25.5q-38 0 -71 16.5t-57 45t-38 68t-14 86.5q0 59 20.5 104.5t54.5 76t78 46.5t90 16q35 0 68 -7.5t62 -21.5h1l67 37h7v-671q0 -8 9.5 -10.5t32.5 -4.5l19 -2l3 -16h-262zM270 56q28 0 49.5 12
t38.5 29v240q-20 37 -49 61.5t-58 24.5q-24 0 -43.5 -14t-32.5 -39t-20 -59t-7 -74q0 -39 8.5 -72t24.5 -57t38.5 -38t50.5 -14z" />
    <glyph glyph-name="r" unicode="r" horiz-adv-x="406" 
d="M23 16l16 1q22 2 31 5t9 12v268q0 23 -1.5 37.5t-6 22.5t-13 12.5t-21.5 7.5l-21 5l1 12l178 49l-2 -148h3q26 72 57.5 110.5t77.5 38.5q31 0 51.5 -18t20.5 -50q0 -23 -17 -43t-44 -20q-26 0 -43.5 16t-23.5 42q-24 -7 -43.5 -36.5t-37.5 -86.5v-220q0 -7 8.5 -10.5
t39.5 -5.5l26 -1l3 -16h-251z" />
    <glyph glyph-name="s" unicode="s" horiz-adv-x="393" 
d="M181 -14q-43 0 -80.5 7t-66.5 18l-6 128l24 -1l25 -57q22 -36 47.5 -55.5t62.5 -19.5q39 0 62.5 21t23.5 55q0 18 -8.5 31.5t-23 24t-34 19.5t-41.5 17q-26 10 -50 21.5t-42 27t-28.5 37t-10.5 52.5q0 30 12 55.5t33.5 43.5t52 28t67.5 10q29 0 54 -4.5t45 -11.5l41 10
l5 -135l-23 -1l-60 100q-12 8 -28 15t-36 7q-35 0 -55 -18.5t-20 -50.5q0 -35 29 -52.5t76 -34.5q26 -10 50.5 -21.5t44 -27.5t31 -38.5t11.5 -54.5q0 -28 -11.5 -54t-34.5 -46.5t-57.5 -32.5t-80.5 -12z" />
    <glyph glyph-name="t" unicode="t" horiz-adv-x="356" 
d="M198 -13q-60 0 -91 32t-29 100l5 259l-81 2l15 34l72 55l89 70l17 -2l-1 -103h153l-13 -53h-141l-5 -243q-1 -48 18.5 -68t57.5 -20q26 0 46.5 8.5t36.5 20.5l4 -12q-32 -34 -70 -57t-83 -23z" />
    <glyph glyph-name="u" unicode="u" horiz-adv-x="528" 
d="M350 71h-2q-18 -16 -38 -31.5t-41 -27.5t-43.5 -19t-46.5 -7q-25 0 -43.5 8.5t-36.5 25.5q-17 18 -25 46.5t-7 65.5l1 271q0 6 -7.5 8.5t-41.5 6.5l-16 1l-3 16h184l-3 -277q-1 -54 21 -74.5t64 -20.5q26 0 47 9t36 20v298q0 15 -8.5 20.5t-38.5 7.5l-18 1l-4 16h183
v-339q0 -26 5 -34.5t20 -13.5l41 -10l-2 -11l-178 -43z" />
    <glyph glyph-name="v" unicode="v" horiz-adv-x="481" 
d="M63 365q-12 29 -21.5 38.5t-31.5 12.5l-18 3l-4 16h252l-2 -16l-21 -3q-26 -2 -32 -12t2 -33l101 -253l73 192q12 31 15.5 50.5t0 30.5t-15.5 16.5t-31 7.5l-21 4l-3 16h181l-3 -16l-19 -3q-15 -2 -25 -6.5t-18 -16.5t-17 -33t-22 -55l-122 -315h-41z" />
    <glyph glyph-name="w" unicode="w" horiz-adv-x="743" 
d="M65 358q-7 17 -12 28t-11 17t-13.5 9t-19.5 4l-18 3l-2 16h244l-2 -16l-21 -3q-23 -2 -29 -11t3 -32l95 -257l81 208l-16 43q-12 29 -23 37.5t-31 11.5l-18 3l-3 16h245l-2 -16l-21 -3q-25 -3 -29 -12.5t3 -30.5l96 -254l63 186q10 30 14 49.5t0.5 32t-16 19t-33.5 9.5
l-18 4l-3 16h180l-3 -16l-18 -4q-15 -2 -25 -6t-18 -16t-16 -33t-20 -56l-110 -314h-42l-124 306l-121 -306h-42z" />
    <glyph glyph-name="x" unicode="x" horiz-adv-x="488" 
d="M2 16l22 4q15 3 27 8.5t24.5 16t27 28t35.5 44.5l61 77l-104 154q-24 35 -40.5 50.5t-36.5 17.5l-16 3l-3 16h251l-3 -16l-19 -3q-23 -3 -23 -17t19 -42l57 -87h1l42 57q19 26 28 42.5t8.5 26.5t-10.5 14t-29 6l-16 3l-3 16h182l-3 -16l-24 -5q-15 -3 -26.5 -8t-24 -16
t-27 -28t-35.5 -44l-50 -64l113 -167q23 -35 39.5 -50t33.5 -18l16 -3l3 -16h-248l3 16l17 3q25 2 25 16.5t-18 40.5l-67 102h-1l-52 -70q-19 -26 -28.5 -42.5t-9 -26.5t10 -14.5t28.5 -6.5l18 -2l3 -16h-181z" />
    <glyph glyph-name="y" unicode="y" horiz-adv-x="480" 
d="M102 -258q-27 0 -48.5 16.5t-21.5 45.5q0 23 16 40t42 17q29 0 44.5 -16t20.5 -36q17 5 28.5 23.5t24.5 56.5l34 97h-9l-170 379q-7 15 -12 24t-10.5 14t-13 7.5t-19.5 4.5l-18 4l-3 16h250l-3 -16l-20 -3q-26 -3 -31.5 -12.5t4.5 -32.5l105 -247l68 188q11 30 15 49
t0 30t-15.5 16t-32.5 8l-20 4l-3 16h181l-3 -16l-20 -3q-15 -2 -24.5 -6t-17.5 -16t-16.5 -33t-21.5 -55l-111 -295l-45 -137q-23 -67 -51.5 -99.5t-72.5 -32.5z" />
    <glyph glyph-name="z" unicode="z" horiz-adv-x="454" 
d="M21 14l262 401l-44 -1q-38 -1 -63.5 -7.5t-43 -18.5t-29.5 -30t-22 -42l-20 -50h-21v169h378v-15l-265 -399h48q41 1 71.5 9.5t53 22.5t38 34t27.5 43l21 41h21l-34 -171h-378v14z" />
    <glyph glyph-name="braceleft" unicode="{" horiz-adv-x="329" 
d="M313 -253q-49 3 -90 16.5t-70.5 34.5t-46 49.5t-16.5 61.5q0 28 8 55t17.5 52.5t17.5 48.5t8 44q0 40 -31.5 57t-100.5 23l-5 13l5 13q61 6 96.5 22.5t35.5 57.5q0 20 -8 43.5t-17.5 49t-17.5 52.5t-8 55q0 33 16.5 61t46 49.5t70.5 35t90 16.5l1 -15q-66 -8 -97.5 -33.5
t-31.5 -63.5q0 -24 8 -49t17.5 -52t17.5 -54.5t8 -55.5q0 -54 -45 -87t-139 -43v-5q184 -19 184 -130q0 -28 -8 -55.5t-17.5 -54t-17.5 -52t-8 -49.5q0 -38 31.5 -63t97.5 -33z" />
    <glyph glyph-name="bar" unicode="|" horiz-adv-x="190" 
d="M84 670h22v-877h-22v877z" />
    <glyph glyph-name="braceright" unicode="}" horiz-adv-x="329" 
d="M5 -238q66 8 97.5 33t31.5 63q0 24 -8 49.5t-17.5 52t-17.5 54t-8 55.5q0 111 184 130v5q-94 10 -139 43t-45 87q0 28 8 55.5t17.5 54.5t17.5 52t8 49q0 38 -31.5 63.5t-97.5 33.5l2 15q48 -3 89 -16.5t70.5 -35t46 -49.5t16.5 -61q0 -28 -8 -55t-17.5 -52.5t-17.5 -49
t-8 -43.5q0 -41 35.5 -57.5t97.5 -22.5l4 -13l-4 -13q-69 -6 -101 -23t-32 -57q0 -21 8 -44t17.5 -48.5t17.5 -52.5t8 -55q0 -33 -16.5 -61.5t-46 -49.5t-70.5 -34.5t-89 -16.5z" />
    <glyph glyph-name="asciitilde" unicode="~" horiz-adv-x="393" 
d="M273 154q-23 0 -48 10t-48.5 22.5t-45 22.5t-37.5 10q-15 0 -26.5 -9.5t-16.5 -46.5h-18q7 71 26 99t61 28q23 0 47.5 -10t48.5 -22.5t45 -22.5t37 -10t27.5 9.5t17.5 46.5h16q-6 -70 -25 -98.5t-61 -28.5z" />
    <glyph glyph-name="uni00A0" unicode="&#xa0;" horiz-adv-x="139" 
 />
    <glyph glyph-name="exclamdown" unicode="&#xa1;" horiz-adv-x="277" 
d="M139 503q-29 0 -48.5 20t-19.5 46q0 27 19.5 47.5t48.5 20.5t48.5 -20.5t19.5 -47.5t-19.5 -46.5t-48.5 -19.5zM138 -16q-22 0 -35 5t-20 14t-8.5 20t0.5 23l56 382q2 5 7.5 5t7.5 -5l55 -382q2 -12 0.5 -23.5t-8 -20t-19.5 -13.5t-34 -5h-2z" />
    <glyph glyph-name="cent" unicode="&#xa2;" horiz-adv-x="439" 
d="M197 -12q-38 6 -70 25.5t-55 48.5t-35.5 66t-12.5 80q0 52 18 96.5t50 77t76 51t96 18.5q14 0 27.5 -2t26.5 -4l44 168h22l-47 -173q38 -11 61 -34.5t23 -55.5q0 -26 -16.5 -43t-39.5 -17q-21 0 -35.5 11.5t-20.5 28.5l-69 -258q26 -13 54 -13q39 0 69.5 17.5t54.5 56.5
l12 -5q-29 -67 -78.5 -105t-118.5 -38q-10 0 -15 1l-39 -145h-20zM310 414q-9 6 -21 10.5t-24 4.5q-51 0 -84.5 -48.5t-33.5 -133.5q0 -60 20 -102t54 -64z" />
    <glyph glyph-name="sterling" unicode="&#xa3;" horiz-adv-x="550" 
d="M61 287l3 21h100q-8 23 -13.5 46.5t-5.5 46.5q0 50 19 92t53 72.5t80.5 47.5t100.5 17q60 0 91.5 -22.5t31.5 -64.5q0 -23 -18.5 -41.5t-44.5 -18.5q-21 0 -35 11t-20.5 27.5t-5 35.5t11.5 36q-4 4 -16 9.5t-29 5.5q-20 0 -37.5 -8t-31.5 -24.5t-22 -42.5t-8 -63
q0 -29 6.5 -71t10.5 -91h130l3 -21h-131q1 -8 1 -17v-18q0 -29 -9.5 -63t-26.5 -67q44 -15 87 -28.5t82 -13.5q22 0 38.5 5t28 18t18.5 35t12 56l14 -3q0 -41 -10 -78t-29.5 -65.5t-47.5 -45.5t-63 -17q-54 0 -98 20.5t-81 43.5q-26 -29 -56 -46.5t-64 -17.5q-35 0 -57.5 20
t-22.5 52q0 39 32 66t89 27q20 0 42 -4t45 -11q1 5 1 16q0 32 -11.5 66.5t-25.5 69.5h-111zM180 62q-28 19 -53 32t-49 13q-26 0 -42.5 -13.5t-16.5 -38.5q0 -24 18 -38t44 -14t53 16.5t46 42.5z" />
    <glyph glyph-name="currency" unicode="&#xa4;" horiz-adv-x="448" 
d="M62 213l57 57q-33 38 -33 89t33 89l-57 57l16 16l57 -57q18 15 40.5 24t48.5 9t48.5 -9t40.5 -24l57 57l16 -16l-57 -57q15 -18 24 -40.5t9 -48.5t-9 -48.5t-24 -40.5l57 -57l-16 -16l-57 57q-38 -33 -89 -33t-89 33l-57 -57zM110 359q0 -24 9 -44.5t24.5 -36t36 -24.5
t44.5 -9t44.5 9t36 24.5t24.5 36t9 44.5t-9 44.5t-24.5 36t-36 24.5t-44.5 9t-44.5 -9t-36 -24.5t-24.5 -36t-9 -44.5z" />
    <glyph glyph-name="yen" unicode="&#xa5;" horiz-adv-x="621" 
d="M157 17l51 6q22 2 31 7t9 11v114h-182l3 21h180v107h-181l-1 22h171l-20 35q-9 16 -21 36t-24 41q-29 49 -66 113q-12 20 -22 33.5t-20 22t-20.5 12.5t-25.5 6l-25 4l-4 17h310l-3 -17l-27 -2q-35 -2 -39.5 -21.5t19.5 -61.5l113 -209h2l61 116q27 52 40 85t12.5 52
t-15.5 27t-44 12l-22 3l-4 16h231l-3 -16l-21 -4q-15 -3 -29 -9t-28.5 -20t-30 -37t-34.5 -59q-26 -49 -47 -88q-9 -17 -17.5 -32.5t-15.5 -27.5q-8 -14 -15 -27h179l-1 -22h-183v-107h182l3 -21h-185v-116q0 -7 8 -10.5t40 -6.5l43 -5l3 -17h-318z" />
    <glyph glyph-name="brokenbar" unicode="&#xa6;" horiz-adv-x="190" 
d="M84 627h22v-335h-22v335zM84 181h22v-335h-22v335z" />
    <glyph glyph-name="section" unicode="&#xa7;" horiz-adv-x="420" 
d="M185 -50q-57 0 -93.5 20t-36.5 58q0 21 14 37.5t37 16.5q18 0 31.5 -8t20.5 -21.5t8 -31.5t-5 -37q9 -5 21.5 -9t26.5 -4q33 0 53 22t20 47q0 19 -10 34t-27.5 28t-40 25t-47.5 25q-26 13 -52 28t-47 33t-34 40.5t-13 50.5q0 41 26.5 70.5t61.5 48.5q-33 35 -33 78
q0 30 14 55t37 43.5t53.5 29t62.5 10.5q57 0 92 -19.5t35 -57.5q0 -22 -15.5 -38t-38.5 -16q-18 0 -30.5 8.5t-19.5 22t-8 31.5t3 36q-9 5 -18.5 9t-22.5 4q-33 0 -52 -21t-19 -46q0 -19 10 -34t27.5 -28.5t40 -25.5t47.5 -24q27 -14 53 -28.5t46.5 -32t33.5 -40t13 -50.5
q0 -41 -26.5 -71.5t-61.5 -49.5q34 -34 34 -78q0 -30 -14.5 -55.5t-38.5 -44t-55 -29.5t-63 -11zM312 177q15 11 23 24.5t8 31.5q0 37 -31 61t-81 48q-34 19 -66 35.5t-55 36.5q-14 -11 -23 -24t-9 -31q0 -38 31 -61.5t80 -48.5q35 -18 67 -34.5t56 -37.5z" />
    <glyph glyph-name="dieresis" unicode="&#xa8;" horiz-adv-x="395" 
d="M298 514q-30 0 -45.5 19.5t-15.5 42.5q0 22 15.5 42.5t45.5 20.5t45.5 -20.5t15.5 -42.5q0 -23 -15.5 -42.5t-45.5 -19.5zM98 514q-30 0 -46.5 19.5t-16.5 42.5q0 22 16.5 42.5t46.5 20.5t45.5 -20.5t15.5 -42.5q0 -23 -15.5 -42.5t-45.5 -19.5z" />
    <glyph glyph-name="copyright" unicode="&#xa9;" horiz-adv-x="723" 
d="M362 -21q-69 0 -130 26t-106.5 71.5t-71.5 106t-26 129.5q0 70 26 131t71.5 106.5t106.5 72t130 26.5t130 -26.5t106.5 -72t71.5 -106.5t26 -131q0 -69 -26 -129.5t-71.5 -106t-106.5 -71.5t-130 -26zM362 -4q65 0 122 25t100 68t67.5 100.5t24.5 122.5t-24.5 123
t-67.5 101.5t-100 68.5t-122 25t-122.5 -25t-100.5 -68.5t-67.5 -101.5t-24.5 -123t24.5 -122.5t67.5 -100.5t100.5 -68t122.5 -25zM374 116q-50 0 -89.5 15t-67 41.5t-42 61.5t-14.5 76t15 77t43.5 62.5t68 42t89.5 15.5q29 0 54.5 -6t39.5 -14l43 13l3 -127h-15l-51 98
q-26 21 -75 21q-31 0 -55 -13t-41 -36.5t-26 -55.5t-9 -71q0 -41 10 -75.5t28 -59t42.5 -38t53.5 -13.5q39 0 64.5 18.5t44.5 50.5l24 52h15l-17 -113l-26 -1q-9 -4 -22 -7.5t-28 -6.5t-30.5 -5t-29.5 -2z" />
    <glyph glyph-name="ordfeminine" unicode="&#xaa;" horiz-adv-x="358" 
d="M102 282q-33 0 -56.5 21.5t-23.5 53.5q0 40 45 71.5t150 56.5l1 27q1 46 -22.5 70t-58.5 24q-23 0 -33 -7.5t-10 -10.5q0 -5 9 -17.5t9 -26.5q0 -17 -13.5 -28.5t-33.5 -11.5q-19 0 -32.5 11t-13.5 30q0 18 18.5 35t45.5 29.5t58.5 20t57.5 7.5q56 0 85 -28.5t26 -85.5
l-6 -145q-1 -45 27 -45q10 0 18.5 4.5t16.5 12.5l4 -8q-7 -10 -16 -20.5t-20.5 -19.5t-25.5 -14.5t-29 -5.5q-55 0 -64 68h-2q-26 -32 -54 -50t-57 -18zM159 337q14 0 28 8t26 20l4 105q-59 -14 -81.5 -35t-22.5 -45t13 -38.5t33 -14.5z" />
    <glyph glyph-name="guillemotleft" unicode="&#xab;" horiz-adv-x="464" 
d="M216 208v28l227 169l6 -8l-129 -176l128 -174l-5 -8zM17 208v28l222 158l5 -8l-119 -165l119 -164l-5 -8z" />
    <glyph glyph-name="logicalnot" unicode="&#xac;" horiz-adv-x="448" 
d="M420 130h-26v158h-382l3 26h405v-184z" />
    <glyph glyph-name="uni00AD" unicode="&#xad;" horiz-adv-x="296" 
d="M26 260h248l-2 -46h-249z" />
    <glyph glyph-name="registered" unicode="&#xae;" horiz-adv-x="723" 
d="M362 -21q-69 0 -130 26t-106.5 71.5t-71.5 106.5t-26 130t26 130t71.5 106.5t106.5 72t130 26.5t130 -26.5t106.5 -72t71.5 -106.5t26 -130t-26 -130t-71.5 -106.5t-106.5 -71.5t-130 -26zM362 -3q65 0 122.5 25t100 68t67 100.5t24.5 122.5t-24.5 123t-67 101t-100 68
t-122.5 25t-122.5 -25t-100.5 -68t-67.5 -101t-24.5 -123t24.5 -122.5t67.5 -100.5t100.5 -68t122.5 -25zM178 141l26 3q25 3 25 11v317q0 4 -5 6t-24 4l-22 4l-2 14h174q82 0 122 -25t40 -71q0 -35 -25 -61t-67 -36l75 -116q9 -15 16.5 -23.5t15 -13.5t15 -7t17.5 -4l11 -2
l2 -15h-131l-10 20l-90 157q-6 2 -17 4t-18 4v-158q0 -6 28 -9l24 -3l2 -15h-185zM350 319q37 1 58.5 22t21.5 62q0 42 -27 62t-72 18h-25v-155q10 -4 23 -6t21 -3z" />
    <glyph glyph-name="macron" unicode="&#xaf;" horiz-adv-x="378" 
d="M63 576h262l-8 -47h-265z" />
    <glyph glyph-name="degree" unicode="&#xb0;" horiz-adv-x="322" 
d="M161 366q-32 0 -57 11t-43 30t-27.5 44t-9.5 53t9.5 53.5t27 44.5t43 30t57.5 11t57.5 -11t43 -30t27 -44.5t9.5 -53.5t-9.5 -53t-27 -44t-43 -30t-57.5 -11zM161 386q53 0 84 34.5t31 83.5q0 24 -8 46t-23 38t-36.5 25.5t-47.5 9.5t-47 -9.5t-36 -25.5t-23 -38t-8 -46
q0 -49 30.5 -83.5t83.5 -34.5z" />
    <glyph glyph-name="plusminus" unicode="&#xb1;" horiz-adv-x="448" 
d="M211 244h-198l3 26h195v168h26v-168h195l3 -26h-198v-162h-26v162zM26 25l3 26h390l3 -26h-396z" />
    <glyph glyph-name="uni00B2" unicode="&#xb2;" horiz-adv-x="316" 
d="M16 293q39 38 70.5 67.5t53.5 55.5t33.5 50.5t11.5 52.5q0 35 -20 55t-53 20q-29 0 -50.5 -15t-36.5 -41l-6 6q20 50 55.5 80t87.5 30q51 0 83 -28t32 -73q0 -31 -16.5 -57.5t-43.5 -52.5t-63 -53t-75 -58v-2h132q30 0 44.5 13.5t29.5 47.5l7 14l11 -1l-31 -137h-252z
" />
    <glyph glyph-name="uni00B3" unicode="&#xb3;" horiz-adv-x="297" 
d="M112 248q-44 0 -71.5 16t-27.5 42q0 17 11.5 28t29.5 11q28 0 40 -24t4 -54q1 0 8.5 -2t15.5 -2q31 0 52 26t21 64t-21.5 63.5t-59.5 25.5q-29 0 -53 -11l-5 10q54 27 84.5 47t30.5 52q0 27 -16.5 41.5t-44.5 14.5q-29 0 -51 -14.5t-34 -37.5l-8 6q18 43 54 73.5t88 30.5
q45 0 73.5 -22.5t28.5 -55.5q0 -37 -30 -58t-73 -35v-2q56 7 91 -20.5t35 -74.5q0 -27 -14 -52t-37.5 -44t-54.5 -30.5t-66 -11.5z" />
    <glyph glyph-name="acute" unicode="&#xb4;" horiz-adv-x="400" 
d="M240 683h120l-202 -185h-18z" />
    <glyph glyph-name="mu" unicode="&#xb5;" horiz-adv-x="528" 
d="M3 -251l3 16l21 2q21 2 30.5 4.5t9.5 11.5v620q0 6 -7.5 8.5t-41.5 6.5l-16 1l-3 16h183v-323q0 -29 20 -41t57 -12q26 0 50.5 6t39.5 17v308q0 15 -8.5 20.5t-38.5 7.5l-18 1l-4 16h183v-339q0 -26 5 -34.5t20 -13.5l41 -10l-2 -11l-178 -43l1 77h-2q-4 -8 -11.5 -20.5
t-18.5 -24.5t-26 -21t-33 -9q-29 0 -47 18.5t-29 44.5h-2v-266q0 -9 9.5 -11.5t30.5 -4.5l21 -2l3 -16h-242z" />
    <glyph glyph-name="paragraph" unicode="&#xb6;" horiz-adv-x="449" 
d="M365 251q-16 -3 -40 -5t-44 -2q-58 0 -105 13t-80 37.5t-51 59.5t-18 79q0 94 64.5 143t200.5 49h100v-657h-27v283z" />
    <glyph glyph-name="periodcentered" unicode="&#xb7;" horiz-adv-x="221" 
d="M110 164q-30 0 -50.5 21t-20.5 50q0 28 20.5 48.5t50.5 20.5t50 -21t20 -48q0 -29 -20 -50t-50 -21z" />
    <glyph glyph-name="cedilla" unicode="&#xb8;" horiz-adv-x="392" 
d="M93 -261q75 12 115 32.5t40 55.5q0 29 -25 42t-60 13q-38 0 -73 -11v11l113 121h23l-62 -65q32 4 60 -0.5t49 -15.5t33 -28.5t12 -38.5q0 -32 -19.5 -54t-51 -37t-70.5 -23.5t-79 -12.5z" />
    <glyph glyph-name="uni00B9" unicode="&#xb9;" horiz-adv-x="260" 
d="M40 280l25 2q29 2 29 11v312l-64 7l2 9l152 31v-359q0 -9 30 -11l21 -2l2 -13h-199z" />
    <glyph glyph-name="ordmasculine" unicode="&#xba;" horiz-adv-x="406" 
d="M201 279q-42 0 -76 14t-58 38t-37 56t-13 68q0 37 14 70t38.5 58t59 39t76.5 14t76 -14t57.5 -38t36.5 -56t13 -68q0 -38 -13.5 -71t-38 -57.5t-59 -38.5t-76.5 -14zM203 295q19 0 34 12.5t25.5 33.5t15.5 49t5 60q0 58 -9 95t-26 54q-11 11 -22 15.5t-24 4.5
q-21 0 -36.5 -12t-25.5 -33t-15 -49t-5 -60q0 -60 9.5 -96.5t27.5 -54.5q10 -10 22 -14.5t24 -4.5z" />
    <glyph glyph-name="guillemotright" unicode="&#xbb;" horiz-adv-x="463" 
d="M223 57l118 164l-117 165l4 8l222 -158v-28l-222 -159zM18 47l128 174l-127 176l5 8l228 -169v-28l-228 -169z" />
    <glyph glyph-name="onequarter" unicode="&#xbc;" horiz-adv-x="689" 
d="M40 280l25 2q29 2 29 11v312l-64 7l2 9l152 31v-359q0 -9 30 -11l21 -2l2 -13h-199zM524 -41h-161l-2 14l199 276h50v-242h70l-12 -48h-58v-95h-86v95zM525 7v167h-2l-120 -167h122zM618 630h29l-580 -751h-29z" />
    <glyph glyph-name="onehalf" unicode="&#xbd;" horiz-adv-x="700" 
d="M394 -111q39 38 70.5 67.5t53.5 55.5t33.5 50.5t11.5 52.5q0 35 -20 55t-53 20q-29 0 -50.5 -15t-36.5 -41l-6 6q20 50 55.5 80t87.5 30q51 0 83 -28t32 -73q0 -31 -16.5 -57.5t-43.5 -52.5t-63 -53t-75 -58v-2h132q30 0 44.5 13.5t29.5 47.5l7 14l11 -1l-31 -137h-252z
M40 280l25 2q29 2 29 11v312l-64 7l2 9l152 31v-359q0 -9 30 -11l21 -2l2 -13h-199zM618 630h29l-580 -751h-29z" />
    <glyph glyph-name="threequarters" unicode="&#xbe;" horiz-adv-x="686" 
d="M521 -41h-161l-2 14l199 276h50v-242h70l-12 -48h-58v-95h-86v95zM522 7v167h-2l-120 -167h122zM112 248q-44 0 -71.5 16t-27.5 42q0 17 11.5 28t29.5 11q28 0 40 -24t4 -54q1 0 8.5 -2t15.5 -2q31 0 52 26t21 64t-21.5 63.5t-59.5 25.5q-29 0 -53 -11l-5 10
q54 27 84.5 47t30.5 52q0 27 -16.5 41.5t-44.5 14.5q-29 0 -51 -14.5t-34 -37.5l-8 6q18 43 54 73.5t88 30.5q45 0 73.5 -22.5t28.5 -55.5q0 -37 -30 -58t-73 -35v-2q56 7 91 -20.5t35 -74.5q0 -27 -14 -52t-37.5 -44t-54.5 -30.5t-66 -11.5zM615 630h29l-580 -751h-29z" />
    <glyph glyph-name="questiondown" unicode="&#xbf;" horiz-adv-x="343" 
d="M184 505q-29 0 -48.5 20t-19.5 46q0 27 19.5 47.5t48.5 20.5q28 0 48 -20t20 -48q0 -27 -20 -46.5t-48 -19.5zM234 -14q-45 0 -82 17.5t-63.5 46.5t-41 66t-14.5 76q0 28 5 47.5t16 33t27.5 23.5t40.5 20q45 17 67.5 28.5t22.5 32.5q0 19 -10.5 33.5t-30.5 31.5l17 3
q15 -11 30 -25.5t26.5 -30t19 -31.5t7.5 -30q0 -22 -8.5 -37t-24 -26.5t-37 -20.5t-47.5 -18q-51 -17 -73 -30.5t-22 -32.5q0 -30 39.5 -53t110.5 -23q25 0 45.5 3.5t35.5 7.5q10 -8 16.5 -21.5t7.5 -30.5q1 -26 -18 -43t-62 -17z" />
    <glyph glyph-name="Agrave" unicode="&#xc0;" horiz-adv-x="649" 
d="M150 168q-15 -45 -23 -72.5t-5 -43.5t17.5 -22.5t44.5 -9.5l23 -3l3 -17h-223l3 17l19 3q22 3 36.5 9.5t28 26.5t29 58t39.5 104l114 317l-8 34q12 3 25.5 10.5t26.5 17.5t23.5 21.5t15.5 23.5h18l178 -520q10 -31 19 -50t18.5 -30t20 -15.5t25.5 -5.5l30 -4l3 -17h-310
l3 17l29 3q18 1 27.5 6.5t12 16.5t-1 28.5t-12.5 43.5l-44 135h-177zM272 507h-4l-82 -235h162zM136 850h121l99 -185h-17z" />
    <glyph glyph-name="Aacute" unicode="&#xc1;" horiz-adv-x="649" 
d="M150 168q-15 -45 -23 -72.5t-5 -43.5t17.5 -22.5t44.5 -9.5l23 -3l3 -17h-223l3 17l19 3q22 3 36.5 9.5t28 26.5t29 58t39.5 104l114 317l-8 34q12 3 25.5 10.5t26.5 17.5t23.5 21.5t15.5 23.5h18l178 -520q10 -31 19 -50t18.5 -30t20 -15.5t25.5 -5.5l30 -4l3 -17h-310
l3 17l29 3q18 1 27.5 6.5t12 16.5t-1 28.5t-12.5 43.5l-44 135h-177zM272 507h-4l-82 -235h162zM371 850h120l-202 -185h-18z" />
    <glyph glyph-name="Acircumflex" unicode="&#xc2;" horiz-adv-x="649" 
d="M150 168q-15 -45 -23 -72.5t-5 -43.5t17.5 -22.5t44.5 -9.5l23 -3l3 -17h-223l3 17l19 3q22 3 36.5 9.5t28 26.5t29 58t39.5 104l114 317l-8 34q12 3 25.5 10.5t26.5 17.5t23.5 21.5t15.5 23.5h18l178 -520q10 -31 19 -50t18.5 -30t20 -15.5t25.5 -5.5l30 -4l3 -17h-310
l3 17l29 3q18 1 27.5 6.5t12 16.5t-1 28.5t-12.5 43.5l-44 135h-177zM272 507h-4l-82 -235h162zM318 855h19l136 -197h-15l-129 98h-2l-131 -98h-14z" />
    <glyph glyph-name="Atilde" unicode="&#xc3;" horiz-adv-x="649" 
d="M150 168q-15 -45 -23 -72.5t-5 -43.5t17.5 -22.5t44.5 -9.5l23 -3l3 -17h-223l3 17l19 3q22 3 36.5 9.5t28 26.5t29 58t39.5 104l114 317l-8 34q12 3 25.5 10.5t26.5 17.5t23.5 21.5t15.5 23.5h18l178 -520q10 -31 19 -50t18.5 -30t20 -15.5t25.5 -5.5l30 -4l3 -17h-310
l3 17l29 3q18 1 27.5 6.5t12 16.5t-1 28.5t-12.5 43.5l-44 135h-177zM272 507h-4l-82 -235h162zM401 672q-23 0 -48 10t-48.5 22.5t-45 22.5t-37.5 10q-15 0 -26.5 -9.5t-16.5 -46.5h-18q7 71 26 99t61 28q23 0 47.5 -10t48.5 -22.5t45 -22.5t37 -10t27.5 9.5t17.5 46.5h16
q-6 -70 -25 -98.5t-61 -28.5z" />
    <glyph glyph-name="Adieresis" unicode="&#xc4;" horiz-adv-x="649" 
d="M150 168q-15 -45 -23 -72.5t-5 -43.5t17.5 -22.5t44.5 -9.5l23 -3l3 -17h-223l3 17l19 3q22 3 36.5 9.5t28 26.5t29 58t39.5 104l114 317l-8 34q12 3 25.5 10.5t26.5 17.5t23.5 21.5t15.5 23.5h18l178 -520q10 -31 19 -50t18.5 -30t20 -15.5t25.5 -5.5l30 -4l3 -17h-310
l3 17l29 3q18 1 27.5 6.5t12 16.5t-1 28.5t-12.5 43.5l-44 135h-177zM272 507h-4l-82 -235h162zM425 681q-30 0 -45.5 19.5t-15.5 42.5q0 22 15.5 42.5t45.5 20.5t45.5 -20.5t15.5 -42.5q0 -23 -15.5 -42.5t-45.5 -19.5zM225 681q-30 0 -46.5 19.5t-16.5 42.5
q0 22 16.5 42.5t46.5 20.5t45.5 -20.5t15.5 -42.5q0 -23 -15.5 -42.5t-45.5 -19.5z" />
    <glyph glyph-name="Aring" unicode="&#xc5;" horiz-adv-x="649" 
d="M178 249l-28 -81q-15 -45 -23 -72.5t-5 -43.5t17.5 -22.5t44.5 -9.5l23 -3l3 -17h-223l3 17l19 3q22 3 36.5 9.5t28 26.5t29 58t39.5 104l144 398q-27 11 -41 33.5t-14 50.5q0 38 24.5 65.5t67.5 27.5q42 0 66.5 -27.5t24.5 -65.5q0 -26 -12.5 -48t-35.5 -33l169 -497
q10 -31 19 -50t18.5 -30t20 -15.5t25.5 -5.5l30 -4l3 -17h-310l3 17l29 3q18 1 27.5 6.5t12 16.5t-1 28.5t-12.5 43.5l-43 134h-178zM323 623q35 0 54.5 23t19.5 54t-19.5 54t-54.5 23t-55 -23t-20 -54t20 -54t55 -23zM348 272l-38 118l-38 118h-4l-82 -236h162z" />
    <glyph glyph-name="AE" unicode="&#xc6;" horiz-adv-x="877" 
d="M-44 17l33 4q15 3 29 10t31 25.5t38 52t50 87.5l190 354q7 13 9 22.5t-3 16t-18 10.5t-36 6l-37 4l-3 16h564l7 -205h-25l-9 33q-12 43 -27 72t-38.5 47t-57.5 25t-83 7l-62 -1v-274l29 1q29 1 50 5t36 13t25 22.5t16 34.5l11 32h21l-26 -240l-19 1l-3 31q-2 22 -8 36.5
t-18.5 23.5t-35 13t-57.5 6l-21 1v-285l70 -3q52 0 89.5 10.5t64 30.5t44 48.5t31.5 64.5l9 30h26l-25 -205h-530l3 16l50 6q22 3 31 8t9 11v211h-187l-44 -84q-21 -40 -30.5 -67t-8 -44t13.5 -25.5t33 -11.5l28 -3l3 -17h-235zM380 275v319h-4l-170 -319h174z" />
    <glyph glyph-name="Ccedilla" unicode="&#xc7;" horiz-adv-x="693" 
d="M382 -13q-79 1 -143.5 25t-110.5 66t-71 100t-25 128q0 72 25.5 133t73 105.5t115.5 69.5t153 25q47 0 91 -11t67 -23l72 21l5 -207h-25l-84 167q-20 13 -52 21.5t-73 8.5q-54 0 -96.5 -23t-71.5 -63t-44 -95.5t-15 -119.5q0 -70 17 -126.5t47 -96.5t71 -61.5t90 -21.5
q68 0 112 29t77 83l37 87h27l-30 -186h-43q-13 -6 -32.5 -11.5t-42.5 -10.5t-48.5 -8.5t-49.5 -4.5l-47 -49q32 4 60 -0.5t49 -15.5t33 -28.5t12 -38.5q0 -32 -19.5 -54t-51 -37t-70.5 -23.5t-79 -12.5l-5 11q75 12 115 32.5t40 55.5q0 29 -25 42t-60 13q-38 0 -73 -11v11z
" />
    <glyph glyph-name="Egrave" unicode="&#xc8;" horiz-adv-x="619" 
d="M25 16l36 4q24 3 34.5 7.5t10.5 10.5v552q0 6 -9 9t-43 6l-28 4l-3 16h521l7 -205h-26l-9 33q-12 43 -28 72t-40.5 47t-59.5 25t-85 7l-67 -1v-274l37 1q59 2 88.5 18t42.5 57l11 32h21l-25 -240l-20 1l-4 31q-2 22 -8 36.5t-19.5 23.5t-36 13t-57.5 6l-30 1v-285l83 -3
q52 0 89 10.5t63.5 30.5t44 48.5t31.5 64.5l10 30h26l-26 -205h-535zM142 850h121l99 -185h-17z" />
    <glyph glyph-name="Eacute" unicode="&#xc9;" horiz-adv-x="619" 
d="M25 16l36 4q24 3 34.5 7.5t10.5 10.5v552q0 6 -9 9t-43 6l-28 4l-3 16h521l7 -205h-26l-9 33q-12 43 -28 72t-40.5 47t-59.5 25t-85 7l-67 -1v-274l37 1q59 2 88.5 18t42.5 57l11 32h21l-25 -240l-20 1l-4 31q-2 22 -8 36.5t-19.5 23.5t-36 13t-57.5 6l-30 1v-285l83 -3
q52 0 89 10.5t63.5 30.5t44 48.5t31.5 64.5l10 30h26l-26 -205h-535zM358 850h120l-202 -185h-18z" />
    <glyph glyph-name="Ecircumflex" unicode="&#xca;" horiz-adv-x="619" 
d="M25 16l36 4q24 3 34.5 7.5t10.5 10.5v552q0 6 -9 9t-43 6l-28 4l-3 16h521l7 -205h-26l-9 33q-12 43 -28 72t-40.5 47t-59.5 25t-85 7l-67 -1v-274l37 1q59 2 88.5 18t42.5 57l11 32h21l-25 -240l-20 1l-4 31q-2 22 -8 36.5t-19.5 23.5t-36 13t-57.5 6l-30 1v-285l83 -3
q52 0 89 10.5t63.5 30.5t44 48.5t31.5 64.5l10 30h26l-26 -205h-535zM304 855h19l136 -197h-15l-129 98h-2l-131 -98h-14z" />
    <glyph glyph-name="Edieresis" unicode="&#xcb;" horiz-adv-x="619" 
d="M25 16l36 4q24 3 34.5 7.5t10.5 10.5v552q0 6 -9 9t-43 6l-28 4l-3 16h521l7 -205h-26l-9 33q-12 43 -28 72t-40.5 47t-59.5 25t-85 7l-67 -1v-274l37 1q59 2 88.5 18t42.5 57l11 32h21l-25 -240l-20 1l-4 31q-2 22 -8 36.5t-19.5 23.5t-36 13t-57.5 6l-30 1v-285l83 -3
q52 0 89 10.5t63.5 30.5t44 48.5t31.5 64.5l10 30h26l-26 -205h-535zM413 681q-30 0 -45.5 19.5t-15.5 42.5q0 22 15.5 42.5t45.5 20.5t45.5 -20.5t15.5 -42.5q0 -23 -15.5 -42.5t-45.5 -19.5zM213 681q-30 0 -46.5 19.5t-16.5 42.5q0 22 16.5 42.5t46.5 20.5t45.5 -20.5
t15.5 -42.5q0 -23 -15.5 -42.5t-45.5 -19.5z" />
    <glyph glyph-name="Igrave" unicode="&#xcc;" horiz-adv-x="365" 
d="M33 16l41 4q44 4 44 18v552q0 6 -9 9t-43 6l-33 4l-3 16h305l-3 -16l-41 -4q-25 -2 -34.5 -7.5t-9.5 -10.5v-552q0 -6 9 -9t42 -6l33 -4l3 -16h-304zM8 850h121l99 -185h-17z" />
    <glyph glyph-name="Iacute" unicode="&#xcd;" horiz-adv-x="365" 
d="M33 16l41 4q44 4 44 18v552q0 6 -9 9t-43 6l-33 4l-3 16h305l-3 -16l-41 -4q-25 -2 -34.5 -7.5t-9.5 -10.5v-552q0 -6 9 -9t42 -6l33 -4l3 -16h-304zM238 850h120l-202 -185h-18z" />
    <glyph glyph-name="Icircumflex" unicode="&#xce;" horiz-adv-x="365" 
d="M33 16l41 4q44 4 44 18v552q0 6 -9 9t-43 6l-33 4l-3 16h305l-3 -16l-41 -4q-25 -2 -34.5 -7.5t-9.5 -10.5v-552q0 -6 9 -9t42 -6l33 -4l3 -16h-304zM173 855h19l136 -197h-15l-129 98h-2l-131 -98h-14z" />
    <glyph glyph-name="Idieresis" unicode="&#xcf;" horiz-adv-x="365" 
d="M33 16l41 4q44 4 44 18v552q0 6 -9 9t-43 6l-33 4l-3 16h305l-3 -16l-41 -4q-25 -2 -34.5 -7.5t-9.5 -10.5v-552q0 -6 9 -9t42 -6l33 -4l3 -16h-304zM284 681q-30 0 -45.5 19.5t-15.5 42.5q0 22 15.5 42.5t45.5 20.5t45.5 -20.5t15.5 -42.5q0 -23 -15.5 -42.5
t-45.5 -19.5zM84 681q-30 0 -46.5 19.5t-16.5 42.5q0 22 16.5 42.5t46.5 20.5t45.5 -20.5t15.5 -42.5q0 -23 -15.5 -42.5t-45.5 -19.5z" />
    <glyph glyph-name="Eth" unicode="&#xd0;" horiz-adv-x="694" 
d="M20 303l3 23h83v260q0 12 -47 17l-38 6l-3 16q82 0 146 1h53t46.5 0.5t32 0.5t10.5 0q87 1 154.5 -20.5t113 -61.5t69 -97t23.5 -126q0 -66 -26 -125t-74 -102.5t-117 -69t-155 -25.5h-277l3 16l46 7q22 2 31 7t9 11v262h-86zM358 326l3 -23h-126v-265l68 -17q54 0 96 22
t70 60t42.5 88.5t14.5 107.5q0 69 -14.5 125t-45 96t-76.5 62t-109 22h-46v-278h123z" />
    <glyph glyph-name="Ntilde" unicode="&#xd1;" horiz-adv-x="709" 
d="M141 521h-3l1 -415q0 -25 3.5 -40.5t12 -25t23 -14t35.5 -6.5l30 -4l3 -16h-226l3 16l28 4q36 3 49.5 21.5t13.5 69.5l3 423q-15 26 -36.5 45t-50.5 24l-21 6l-3 16h223l348 -437h3l-1 330q0 25 -3.5 41t-12 25.5t-22.5 14t-36 6.5l-29 4l-3 16h225l-3 -16l-28 -4
q-35 -3 -49 -21.5t-14 -70.5l-3 -519h-35zM446 672q-23 0 -48 10t-48.5 22.5t-45 22.5t-37.5 10q-15 0 -26.5 -9.5t-16.5 -46.5h-18q7 71 26 99t61 28q23 0 47.5 -10t48.5 -22.5t45 -22.5t37 -10t27.5 9.5t17.5 46.5h16q-6 -70 -25 -98.5t-61 -28.5z" />
    <glyph glyph-name="Ograve" unicode="&#xd2;" horiz-adv-x="746" 
d="M368 -14q-74 0 -135.5 23.5t-106 66t-69.5 102.5t-25 132q0 67 27.5 126.5t74.5 104.5t110 71t134 26q73 0 135 -23.5t106.5 -66.5t69.5 -102.5t25 -132.5q0 -67 -27.5 -126.5t-74.5 -104t-110 -70.5t-134 -26zM376 8q92 0 143.5 75t51.5 227q0 73 -14.5 130t-41 96
t-63.5 59.5t-82 20.5q-93 0 -145 -75t-52 -227q0 -147 55.5 -226.5t147.5 -79.5zM200 850h121l99 -185h-17z" />
    <glyph glyph-name="Oacute" unicode="&#xd3;" horiz-adv-x="746" 
d="M368 -14q-74 0 -135.5 23.5t-106 66t-69.5 102.5t-25 132q0 67 27.5 126.5t74.5 104.5t110 71t134 26q73 0 135 -23.5t106.5 -66.5t69.5 -102.5t25 -132.5q0 -67 -27.5 -126.5t-74.5 -104t-110 -70.5t-134 -26zM376 8q92 0 143.5 75t51.5 227q0 73 -14.5 130t-41 96
t-63.5 59.5t-82 20.5q-93 0 -145 -75t-52 -227q0 -147 55.5 -226.5t147.5 -79.5zM430 850h120l-202 -185h-18z" />
    <glyph glyph-name="Ocircumflex" unicode="&#xd4;" horiz-adv-x="746" 
d="M368 -14q-74 0 -135.5 23.5t-106 66t-69.5 102.5t-25 132q0 67 27.5 126.5t74.5 104.5t110 71t134 26q73 0 135 -23.5t106.5 -66.5t69.5 -102.5t25 -132.5q0 -67 -27.5 -126.5t-74.5 -104t-110 -70.5t-134 -26zM376 8q92 0 143.5 75t51.5 227q0 73 -14.5 130t-41 96
t-63.5 59.5t-82 20.5q-93 0 -145 -75t-52 -227q0 -147 55.5 -226.5t147.5 -79.5zM364 855h19l136 -197h-15l-129 98h-2l-131 -98h-14z" />
    <glyph glyph-name="Otilde" unicode="&#xd5;" horiz-adv-x="746" 
d="M368 -14q-74 0 -135.5 23.5t-106 66t-69.5 102.5t-25 132q0 67 27.5 126.5t74.5 104.5t110 71t134 26q73 0 135 -23.5t106.5 -66.5t69.5 -102.5t25 -132.5q0 -67 -27.5 -126.5t-74.5 -104t-110 -70.5t-134 -26zM376 8q92 0 143.5 75t51.5 227q0 73 -14.5 130t-41 96
t-63.5 59.5t-82 20.5q-93 0 -145 -75t-52 -227q0 -147 55.5 -226.5t147.5 -79.5zM455 672q-23 0 -48 10t-48.5 22.5t-45 22.5t-37.5 10q-15 0 -26.5 -9.5t-16.5 -46.5h-18q7 71 26 99t61 28q23 0 47.5 -10t48.5 -22.5t45 -22.5t37 -10t27.5 9.5t17.5 46.5h16
q-6 -70 -25 -98.5t-61 -28.5z" />
    <glyph glyph-name="Odieresis" unicode="&#xd6;" horiz-adv-x="746" 
d="M368 -14q-74 0 -135.5 23.5t-106 66t-69.5 102.5t-25 132q0 67 27.5 126.5t74.5 104.5t110 71t134 26q73 0 135 -23.5t106.5 -66.5t69.5 -102.5t25 -132.5q0 -67 -27.5 -126.5t-74.5 -104t-110 -70.5t-134 -26zM376 8q92 0 143.5 75t51.5 227q0 73 -14.5 130t-41 96
t-63.5 59.5t-82 20.5q-93 0 -145 -75t-52 -227q0 -147 55.5 -226.5t147.5 -79.5zM473 681q-30 0 -45.5 19.5t-15.5 42.5q0 22 15.5 42.5t45.5 20.5t45.5 -20.5t15.5 -42.5q0 -23 -15.5 -42.5t-45.5 -19.5zM273 681q-30 0 -46.5 19.5t-16.5 42.5q0 22 16.5 42.5t46.5 20.5
t45.5 -20.5t15.5 -42.5q0 -23 -15.5 -42.5t-45.5 -19.5z" />
    <glyph glyph-name="multiply" unicode="&#xd7;" horiz-adv-x="448" 
d="M206 236q-11 11 -36 35.5t-52 52t-51.5 52l-35.5 35.5l18 18l175 -175l175 175l18 -18l-175 -175q11 -11 35.5 -36t52 -52t52 -51.5l35.5 -35.5l-18 -18l-175 175l-175 -175l-18 18z" />
    <glyph glyph-name="Oslash" unicode="&#xd8;" horiz-adv-x="746" 
d="M553 596q75 -40 118 -113t43 -170q0 -67 -27.5 -126.5t-74.5 -104t-110 -70.5t-134 -26q-84 0 -151 30l-52 -90h-24l57 99q-77 39 -121.5 112.5t-44.5 172.5q0 67 27.5 126.5t74.5 104.5t110 71t134 26q86 0 156 -32l48 82h24zM503 552q-50 64 -133 64q-93 0 -145 -75.5
t-52 -226.5q0 -75 15 -133t44 -98zM246 66q52 -58 130 -58q92 0 143.5 75t51.5 227q0 72 -14 128t-40 96z" />
    <glyph glyph-name="Ugrave" unicode="&#xd9;" horiz-adv-x="701" 
d="M360 -17q-131 0 -195 52t-64 165v391q0 5 -8 8.5t-42 5.5l-34 4l-3 16h305l-3 -16l-42 -4q-24 -2 -33.5 -6.5t-9.5 -10.5v-358q0 -99 44 -146.5t129 -47.5q86 0 131 50t45 155l-1 277q0 25 -3.5 41t-12 25.5t-23 14t-35.5 6.5l-30 4l-3 16h226l-3 -16l-28 -4
q-35 -3 -49 -21.5t-14 -70.5l-2 -278q-1 -120 -59 -186t-183 -66zM194 850h121l99 -185h-17z" />
    <glyph glyph-name="Uacute" unicode="&#xda;" horiz-adv-x="701" 
d="M360 -17q-131 0 -195 52t-64 165v391q0 5 -8 8.5t-42 5.5l-34 4l-3 16h305l-3 -16l-42 -4q-24 -2 -33.5 -6.5t-9.5 -10.5v-358q0 -99 44 -146.5t129 -47.5q86 0 131 50t45 155l-1 277q0 25 -3.5 41t-12 25.5t-23 14t-35.5 6.5l-30 4l-3 16h226l-3 -16l-28 -4
q-35 -3 -49 -21.5t-14 -70.5l-2 -278q-1 -120 -59 -186t-183 -66zM438 850h120l-202 -185h-18z" />
    <glyph glyph-name="Ucircumflex" unicode="&#xdb;" horiz-adv-x="701" 
d="M360 -17q-131 0 -195 52t-64 165v391q0 5 -8 8.5t-42 5.5l-34 4l-3 16h305l-3 -16l-42 -4q-24 -2 -33.5 -6.5t-9.5 -10.5v-358q0 -99 44 -146.5t129 -47.5q86 0 131 50t45 155l-1 277q0 25 -3.5 41t-12 25.5t-23 14t-35.5 6.5l-30 4l-3 16h226l-3 -16l-28 -4
q-35 -3 -49 -21.5t-14 -70.5l-2 -278q-1 -120 -59 -186t-183 -66zM369 855h19l136 -197h-15l-129 98h-2l-131 -98h-14z" />
    <glyph glyph-name="Udieresis" unicode="&#xdc;" horiz-adv-x="701" 
d="M360 -17q-131 0 -195 52t-64 165v391q0 5 -8 8.5t-42 5.5l-34 4l-3 16h305l-3 -16l-42 -4q-24 -2 -33.5 -6.5t-9.5 -10.5v-358q0 -99 44 -146.5t129 -47.5q86 0 131 50t45 155l-1 277q0 25 -3.5 41t-12 25.5t-23 14t-35.5 6.5l-30 4l-3 16h226l-3 -16l-28 -4
q-35 -3 -49 -21.5t-14 -70.5l-2 -278q-1 -120 -59 -186t-183 -66zM284 681q-30 0 -46.5 19.5t-16.5 42.5q0 22 16.5 42.5t46.5 20.5t45.5 -20.5t15.5 -42.5q0 -23 -15.5 -42.5t-45.5 -19.5zM484 681q-30 0 -45.5 19.5t-15.5 42.5q0 22 15.5 42.5t45.5 20.5t45.5 -20.5
t15.5 -42.5q0 -23 -15.5 -42.5t-45.5 -19.5z" />
    <glyph glyph-name="Yacute" unicode="&#xdd;" horiz-adv-x="635" 
d="M163 16l47 4q23 2 33 7t10 11v238l-144 252q-12 20 -21.5 34t-18.5 22.5t-19.5 13t-25.5 6.5l-23 4l-3 17h302l-3 -17l-22 -2q-40 -5 -44.5 -21.5t17.5 -54.5l118 -214h4l79 146q23 42 34 68.5t10 42t-15 22.5t-42 10l-23 3l-3 17h225l-3 -17l-25 -4q-17 -3 -31 -8.5
t-28 -20.5t-31.5 -42.5t-41.5 -72.5l-92 -165v-260q0 -6 9 -9t42 -6l38 -4l3 -16h-315zM387 850h120l-202 -185h-18z" />
    <glyph glyph-name="Thorn" unicode="&#xde;" horiz-adv-x="600" 
d="M24 18l42 4q23 2 33 6.5t10 9.5v551q0 6 -8.5 9t-42.5 6l-33 3l-3 18h304l-3 -18l-41 -4q-43 -4 -43 -16v-92q7 0 18 -0.5t22 -0.5h26q132 0 197 -42.5t65 -119.5q0 -42 -20 -76t-55.5 -58t-84.5 -37t-108 -13q-37 0 -60 5v-117q0 -6 8.5 -9.5t42.5 -5.5l44 -3l3 -18
h-316zM297 170q58 0 94.5 41t36.5 109q0 72 -35.5 113t-110.5 42q1 0 -6 -0.5t-15 -0.5h-22v-297q11 -2 23 -4.5t35 -2.5z" />
    <glyph glyph-name="germandbls" unicode="&#xdf;" horiz-adv-x="562" 
d="M362 423q35 -17 67 -43t57 -58t39.5 -68t14.5 -73q0 -39 -14 -74t-38 -61.5t-56 -42.5t-68 -16q-54 0 -86.5 24t-32.5 60q0 27 18 45t44 18t39.5 -13.5t15.5 -31.5t-6 -35.5t-25 -24.5q2 -7 12.5 -14t28.5 -7q32 0 52.5 24.5t20.5 70.5q0 37 -11.5 75.5t-35 75t-60 70.5
t-87.5 62v26q32 8 55 18.5t38 26t22.5 37t7.5 52.5q0 45 -24 74.5t-62 29.5q-48 0 -68.5 -32t-20.5 -112v-506h-177l3 18l21 1q20 2 29 4.5t9 11.5v344l-79 2l18 53l61 -1l2 45q3 45 20.5 81t45.5 61.5t64.5 39t77.5 13.5q90 0 139.5 -35.5t49.5 -97.5q0 -50 -34.5 -78
t-86.5 -39z" />
    <glyph glyph-name="agrave" unicode="&#xe0;" horiz-adv-x="462" 
d="M354 -13q-34 0 -55 21.5t-26 63.5l-2 1q-31 -35 -63.5 -60t-72.5 -25q-23 0 -42.5 8t-34.5 21.5t-23.5 32.5t-8.5 40q0 28 13 51.5t42 43.5t77 38.5t117 35.5l1 26q2 64 -24.5 96.5t-74.5 32.5q-27 0 -45.5 -8t-18.5 -16q0 -3 4.5 -8.5t9.5 -13t9.5 -17t4.5 -19.5
q0 -20 -16 -36t-42 -16q-24 0 -41 13t-17 35q0 24 21.5 46t54 39t71 27t72.5 10q82 0 116.5 -37.5t30.5 -130.5l-8 -180q-2 -27 7 -39.5t26 -12.5q11 0 21.5 8.5t21.5 19.5l10 -10q-9 -12 -21.5 -26t-27.5 -26.5t-31.5 -20.5t-34.5 -8zM200 58q20 0 36.5 8.5t33.5 25.5
l6 149q-42 -11 -68.5 -23t-42 -26.5t-21.5 -30t-6 -33.5q0 -32 18 -51t44 -19zM56 683h121l99 -185h-17z" />
    <glyph glyph-name="aacute" unicode="&#xe1;" horiz-adv-x="462" 
d="M354 -13q-34 0 -55 21.5t-26 63.5l-2 1q-31 -35 -63.5 -60t-72.5 -25q-23 0 -42.5 8t-34.5 21.5t-23.5 32.5t-8.5 40q0 28 13 51.5t42 43.5t77 38.5t117 35.5l1 26q2 64 -24.5 96.5t-74.5 32.5q-27 0 -45.5 -8t-18.5 -16q0 -3 4.5 -8.5t9.5 -13t9.5 -17t4.5 -19.5
q0 -20 -16 -36t-42 -16q-24 0 -41 13t-17 35q0 24 21.5 46t54 39t71 27t72.5 10q82 0 116.5 -37.5t30.5 -130.5l-8 -180q-2 -27 7 -39.5t26 -12.5q11 0 21.5 8.5t21.5 19.5l10 -10q-9 -12 -21.5 -26t-27.5 -26.5t-31.5 -20.5t-34.5 -8zM200 58q20 0 36.5 8.5t33.5 25.5
l6 149q-42 -11 -68.5 -23t-42 -26.5t-21.5 -30t-6 -33.5q0 -32 18 -51t44 -19zM276 683h120l-202 -185h-18z" />
    <glyph glyph-name="acircumflex" unicode="&#xe2;" horiz-adv-x="462" 
d="M354 -13q-34 0 -55 21.5t-26 63.5l-2 1q-31 -35 -63.5 -60t-72.5 -25q-23 0 -42.5 8t-34.5 21.5t-23.5 32.5t-8.5 40q0 28 13 51.5t42 43.5t77 38.5t117 35.5l1 26q2 64 -24.5 96.5t-74.5 32.5q-27 0 -45.5 -8t-18.5 -16q0 -3 4.5 -8.5t9.5 -13t9.5 -17t4.5 -19.5
q0 -20 -16 -36t-42 -16q-24 0 -41 13t-17 35q0 24 21.5 46t54 39t71 27t72.5 10q82 0 116.5 -37.5t30.5 -130.5l-8 -180q-2 -27 7 -39.5t26 -12.5q11 0 21.5 8.5t21.5 19.5l10 -10q-9 -12 -21.5 -26t-27.5 -26.5t-31.5 -20.5t-34.5 -8zM200 58q20 0 36.5 8.5t33.5 25.5
l6 149q-42 -11 -68.5 -23t-42 -26.5t-21.5 -30t-6 -33.5q0 -32 18 -51t44 -19zM211 688h19l136 -197h-15l-129 98h-2l-131 -98h-14z" />
    <glyph glyph-name="atilde" unicode="&#xe3;" horiz-adv-x="462" 
d="M354 -13q-34 0 -55 21.5t-26 63.5l-2 1q-31 -35 -63.5 -60t-72.5 -25q-23 0 -42.5 8t-34.5 21.5t-23.5 32.5t-8.5 40q0 28 13 51.5t42 43.5t77 38.5t117 35.5l1 26q2 64 -24.5 96.5t-74.5 32.5q-27 0 -45.5 -8t-18.5 -16q0 -3 4.5 -8.5t9.5 -13t9.5 -17t4.5 -19.5
q0 -20 -16 -36t-42 -16q-24 0 -41 13t-17 35q0 24 21.5 46t54 39t71 27t72.5 10q82 0 116.5 -37.5t30.5 -130.5l-8 -180q-2 -27 7 -39.5t26 -12.5q11 0 21.5 8.5t21.5 19.5l10 -10q-9 -12 -21.5 -26t-27.5 -26.5t-31.5 -20.5t-34.5 -8zM200 58q20 0 36.5 8.5t33.5 25.5
l6 149q-42 -11 -68.5 -23t-42 -26.5t-21.5 -30t-6 -33.5q0 -32 18 -51t44 -19zM298 505q-23 0 -48 10t-48.5 22.5t-45 22.5t-37.5 10q-15 0 -26.5 -9.5t-16.5 -46.5h-18q7 71 26 99t61 28q23 0 47.5 -10t48.5 -22.5t45 -22.5t37 -10t27.5 9.5t17.5 46.5h16q-6 -70 -25 -98.5
t-61 -28.5z" />
    <glyph glyph-name="adieresis" unicode="&#xe4;" horiz-adv-x="462" 
d="M354 -13q-34 0 -55 21.5t-26 63.5l-2 1q-31 -35 -63.5 -60t-72.5 -25q-23 0 -42.5 8t-34.5 21.5t-23.5 32.5t-8.5 40q0 28 13 51.5t42 43.5t77 38.5t117 35.5l1 26q2 64 -24.5 96.5t-74.5 32.5q-27 0 -45.5 -8t-18.5 -16q0 -3 4.5 -8.5t9.5 -13t9.5 -17t4.5 -19.5
q0 -20 -16 -36t-42 -16q-24 0 -41 13t-17 35q0 24 21.5 46t54 39t71 27t72.5 10q82 0 116.5 -37.5t30.5 -130.5l-8 -180q-2 -27 7 -39.5t26 -12.5q11 0 21.5 8.5t21.5 19.5l10 -10q-9 -12 -21.5 -26t-27.5 -26.5t-31.5 -20.5t-34.5 -8zM200 58q20 0 36.5 8.5t33.5 25.5
l6 149q-42 -11 -68.5 -23t-42 -26.5t-21.5 -30t-6 -33.5q0 -32 18 -51t44 -19zM319 514q-30 0 -45.5 19.5t-15.5 42.5q0 22 15.5 42.5t45.5 20.5t45.5 -20.5t15.5 -42.5q0 -23 -15.5 -42.5t-45.5 -19.5zM119 514q-30 0 -46.5 19.5t-16.5 42.5q0 22 16.5 42.5t46.5 20.5
t45.5 -20.5t15.5 -42.5q0 -23 -15.5 -42.5t-45.5 -19.5z" />
    <glyph glyph-name="aring" unicode="&#xe5;" horiz-adv-x="461" 
d="M216 503q-43 0 -67.5 27.5t-24.5 65.5t24.5 65.5t67.5 27.5t67.5 -27.5t24.5 -65.5t-24.5 -65.5t-67.5 -27.5zM354 -13q-34 0 -55 21.5t-26 63.5l-2 1q-31 -35 -63.5 -60t-72.5 -25q-23 0 -42.5 8t-34.5 21.5t-23.5 32.5t-8.5 40q0 28 13 51.5t42 43.5t77 38.5t117 35.5
l1 26q2 64 -24.5 96.5t-74.5 32.5q-27 0 -45.5 -8t-18.5 -16q0 -3 4.5 -8.5t9.5 -13t9.5 -17t4.5 -19.5q0 -20 -16 -36t-42 -16q-24 0 -41 13t-17 35q0 24 21.5 46t54 39t71 27t72.5 10q82 0 116.5 -37.5t30.5 -130.5l-8 -180q-2 -27 7 -39.5t26 -12.5q11 0 21.5 8.5
t21.5 19.5l10 -10q-9 -12 -21.5 -26t-27.5 -26.5t-31.5 -20.5t-34.5 -8zM216 519q35 0 54.5 22.5t19.5 54.5q0 31 -19.5 54t-54.5 23t-55 -23t-20 -54q0 -32 20 -54.5t55 -22.5zM200 58q20 0 36.5 8.5t33.5 25.5l6 149q-42 -11 -68.5 -23t-42 -26.5t-21.5 -30t-6 -33.5
q0 -32 18 -51t44 -19z" />
    <glyph glyph-name="ae" unicode="&#xe6;" horiz-adv-x="703" 
d="M134 -13q-22 0 -41.5 8t-34.5 22t-23.5 33t-8.5 40q0 28 12.5 51.5t42 43.5t77 38.5t117.5 35.5l1 27q3 63 -24 95.5t-75 32.5q-27 0 -45.5 -8t-18.5 -16q0 -3 4.5 -8.5t9.5 -13t9.5 -17t4.5 -19.5q0 -20 -16 -36t-42 -16q-24 0 -41 13t-17 35q0 24 21 46t53.5 39t71 27
t74.5 10q42 0 69 -12t43 -40q26 22 62 37.5t85 15.5q41 0 73 -11.5t53.5 -31.5t33 -46.5t11.5 -56.5q0 -7 -1 -14t-3 -14q-72 0 -131 1q-25 0 -50 0.5t-45 1t-34.5 1t-18.5 0.5q-1 -8 -1 -19v-19q0 -41 11 -74.5t30.5 -57.5t47 -37t60.5 -13q41 0 72.5 17t55.5 57l11 -6
q-30 -69 -81 -105.5t-121 -36.5q-63 0 -109.5 29.5t-69.5 78.5q-41 -51 -81.5 -79.5t-82.5 -28.5zM394 298h84h58q14 0 26 1q0 25 -3.5 48.5t-12 41.5t-22 29t-33.5 11q-35 0 -62.5 -35.5t-34.5 -95.5zM198 56q23 0 44.5 12.5t47.5 40.5q-9 22 -13 52t-4 58q0 5 0.5 10.5
t1.5 10.5q-41 -11 -67.5 -23.5t-42 -27t-21.5 -30.5t-6 -34q0 -31 18.5 -50t41.5 -19z" />
    <glyph glyph-name="ccedilla" unicode="&#xe7;" horiz-adv-x="441" 
d="M232 -15q-45 0 -83 16.5t-66 46t-43.5 69.5t-15.5 88q0 52 17.5 96.5t49.5 77.5t76 52t97 19q34 0 63 -7.5t50 -20.5t32.5 -31.5t11.5 -40.5q0 -28 -17.5 -44.5t-42.5 -16.5q-29 0 -46 21.5t-15 50.5q0 16 9 27t9 16q-2 9 -17.5 16.5t-35.5 7.5q-51 0 -84.5 -48
t-33.5 -133q0 -88 39.5 -138t106.5 -50q40 0 70.5 17.5t53.5 56.5l12 -6q-27 -61 -70 -97.5t-102 -43.5l-46 -48q32 4 60 -0.5t49 -15.5t33 -28.5t12 -38.5q0 -32 -19.5 -54t-51 -37t-70.5 -23.5t-79 -12.5l-5 11q75 12 115 32.5t40 55.5q0 29 -25 42t-60 13q-38 0 -73 -11
v11l96 103h-1z" />
    <glyph glyph-name="egrave" unicode="&#xe8;" horiz-adv-x="456" 
d="M232 -15q-45 0 -83 16.5t-65.5 46.5t-43.5 70.5t-16 88.5q0 52 17.5 96.5t49 77.5t74.5 51.5t94 18.5q41 0 72.5 -11.5t53 -31.5t32.5 -46.5t11 -56.5q0 -15 -3 -28q-73 0 -132 1q-25 0 -50 0.5t-45 1t-34 1t-17 0.5q-2 -8 -2 -19v-19q0 -41 11 -75t30.5 -58t47 -37.5
t60.5 -13.5q40 0 71.5 17.5t55.5 56.5l12 -6q-30 -68 -79.5 -105t-121.5 -37zM316 299q0 25 -3.5 48.5t-12 41.5t-22 29t-32.5 11q-35 0 -63 -36t-35 -95zM74 683h121l99 -185h-17z" />
    <glyph glyph-name="eacute" unicode="&#xe9;" horiz-adv-x="456" 
d="M232 -15q-45 0 -83 16.5t-65.5 46.5t-43.5 70.5t-16 88.5q0 52 17.5 96.5t49 77.5t74.5 51.5t94 18.5q41 0 72.5 -11.5t53 -31.5t32.5 -46.5t11 -56.5q0 -15 -3 -28q-73 0 -132 1q-25 0 -50 0.5t-45 1t-34 1t-17 0.5q-2 -8 -2 -19v-19q0 -41 11 -75t30.5 -58t47 -37.5
t60.5 -13.5q40 0 71.5 17.5t55.5 56.5l12 -6q-30 -68 -79.5 -105t-121.5 -37zM316 299q0 25 -3.5 48.5t-12 41.5t-22 29t-32.5 11q-35 0 -63 -36t-35 -95zM291 683h120l-202 -185h-18z" />
    <glyph glyph-name="ecircumflex" unicode="&#xea;" horiz-adv-x="456" 
d="M232 -15q-45 0 -83 16.5t-65.5 46.5t-43.5 70.5t-16 88.5q0 52 17.5 96.5t49 77.5t74.5 51.5t94 18.5q41 0 72.5 -11.5t53 -31.5t32.5 -46.5t11 -56.5q0 -15 -3 -28q-73 0 -132 1q-25 0 -50 0.5t-45 1t-34 1t-17 0.5q-2 -8 -2 -19v-19q0 -41 11 -75t30.5 -58t47 -37.5
t60.5 -13.5q40 0 71.5 17.5t55.5 56.5l12 -6q-30 -68 -79.5 -105t-121.5 -37zM316 299q0 25 -3.5 48.5t-12 41.5t-22 29t-32.5 11q-35 0 -63 -36t-35 -95zM231 688h19l136 -197h-15l-129 98h-2l-131 -98h-14z" />
    <glyph glyph-name="edieresis" unicode="&#xeb;" horiz-adv-x="456" 
d="M232 -15q-45 0 -83 16.5t-65.5 46.5t-43.5 70.5t-16 88.5q0 52 17.5 96.5t49 77.5t74.5 51.5t94 18.5q41 0 72.5 -11.5t53 -31.5t32.5 -46.5t11 -56.5q0 -15 -3 -28q-73 0 -132 1q-25 0 -50 0.5t-45 1t-34 1t-17 0.5q-2 -8 -2 -19v-19q0 -41 11 -75t30.5 -58t47 -37.5
t60.5 -13.5q40 0 71.5 17.5t55.5 56.5l12 -6q-30 -68 -79.5 -105t-121.5 -37zM316 299q0 25 -3.5 48.5t-12 41.5t-22 29t-32.5 11q-35 0 -63 -36t-35 -95zM339 514q-30 0 -45.5 19.5t-15.5 42.5q0 22 15.5 42.5t45.5 20.5t45.5 -20.5t15.5 -42.5q0 -23 -15.5 -42.5
t-45.5 -19.5zM139 514q-30 0 -46.5 19.5t-16.5 42.5q0 22 16.5 42.5t46.5 20.5t45.5 -20.5t15.5 -42.5q0 -23 -15.5 -42.5t-45.5 -19.5z" />
    <glyph glyph-name="igrave" unicode="&#xec;" horiz-adv-x="273" 
d="M23 16l17 1q22 2 31 5t9 12v269q0 23 -1.5 37t-6 22t-13 12.5t-21.5 7.5l-21 5l1 12l177 49v-415q0 -7 8 -10t39 -6l14 -1l3 -16h-239zM-25 683h121l99 -185h-17z" />
    <glyph glyph-name="iacute" unicode="&#xed;" horiz-adv-x="273" 
d="M23 16l17 1q22 2 31 5t9 12v269q0 23 -1.5 37t-6 22t-13 12.5t-21.5 7.5l-21 5l1 12l177 49v-415q0 -7 8 -10t39 -6l14 -1l3 -16h-239zM180 683h120l-202 -185h-18z" />
    <glyph glyph-name="icircumflex" unicode="&#xee;" horiz-adv-x="273" 
d="M130 688h19l129 -197h-15l-123 98h-2l-122 -98h-16zM23 16l17 1q22 2 31 5t9 12v269q0 23 -1.5 37t-6 22t-13 12.5t-21.5 7.5l-21 5l1 12l177 49v-415q0 -7 8 -10t39 -6l14 -1l3 -16h-239z" />
    <glyph glyph-name="idieresis" unicode="&#xef;" horiz-adv-x="273" 
d="M23 16l17 1q22 2 31 5t9 12v269q0 23 -1.5 37t-6 22t-13 12.5t-21.5 7.5l-21 5l1 12l177 49v-415q0 -7 8 -10t39 -6l14 -1l3 -16h-239zM241 514q-30 0 -45.5 19.5t-15.5 42.5q0 22 15.5 42.5t45.5 20.5t45.5 -20.5t15.5 -42.5q0 -23 -15.5 -42.5t-45.5 -19.5zM41 514
q-30 0 -46.5 19.5t-16.5 42.5q0 22 16.5 42.5t46.5 20.5t45.5 -20.5t15.5 -42.5q0 -23 -15.5 -42.5t-45.5 -19.5z" />
    <glyph glyph-name="eth" unicode="&#xf0;" horiz-adv-x="517" 
d="M229 553l-66 -22q-29 -10 -66 -21l2 23l108 36q-53 35 -128 50l6 15q98 -10 178 -47l118 39l2 -23l-92 -30q49 -27 87 -63t63.5 -78t38.5 -88t13 -93q0 -59 -17.5 -107.5t-48.5 -83.5t-74.5 -54t-95.5 -19q-54 0 -97 18t-73 49t-46.5 73.5t-16.5 90.5q0 50 17 92.5t47 74
t71.5 49t91.5 17.5q20 0 38 -2.5t34 -7.5q-17 32 -40 60.5t-54 51.5zM262 8q52 0 79 51t27 149q0 51 -8 92t-23 70.5t-36 45.5t-47 16q-25 0 -44.5 -14.5t-32.5 -41t-20 -63t-7 -80.5q0 -225 112 -225z" />
    <glyph glyph-name="ntilde" unicode="&#xf1;" horiz-adv-x="548" 
d="M22 16l17 1q22 2 31 5t9 12v268q0 23 -1.5 37.5t-6 22.5t-13 12.5t-21.5 7.5l-21 5l1 12l178 49l-2 -83h3q18 15 37.5 30t41 27t44.5 19.5t47 7.5q48 0 80 -32q18 -18 26 -47.5t8 -64.5v-271q0 -3 1 -5t6 -4t14.5 -4t26.5 -4l14 -1l3 -16h-236l3 16l18 1q25 2 30.5 6.5
t5.5 10.5v242q0 56 -22 76.5t-62 20.5q-28 0 -50 -9.5t-38 -20.5v-310q0 -7 7 -10.5t35 -5.5l19 -1l2 -16h-238zM353 505q-23 0 -48 10t-48.5 22.5t-45 22.5t-37.5 10q-15 0 -26.5 -9.5t-16.5 -46.5h-18q7 71 26 99t61 28q23 0 47.5 -10t48.5 -22.5t45 -22.5t37 -10
t27.5 9.5t17.5 46.5h16q-6 -70 -25 -98.5t-61 -28.5z" />
    <glyph glyph-name="ograve" unicode="&#xf2;" 
d="M259 -14q-54 0 -97.5 18t-74 49.5t-47 73.5t-16.5 90t18 90.5t50.5 74t77 50t98.5 18.5t97 -18t74 -49t47.5 -72.5t16.5 -88.5q0 -49 -18 -92t-50.5 -75t-77 -50.5t-98.5 -18.5zM263 6q26 0 46.5 15.5t35 42.5t22 63.5t7.5 79.5q0 74 -13 123t-37 73q-11 11 -26 18.5
t-36 7.5q-27 0 -47.5 -15t-35 -42t-21.5 -63t-7 -78q0 -148 49 -199q24 -26 63 -26zM84 683h121l99 -185h-17z" />
    <glyph glyph-name="oacute" unicode="&#xf3;" 
d="M259 -14q-54 0 -97.5 18t-74 49.5t-47 73.5t-16.5 90t18 90.5t50.5 74t77 50t98.5 18.5t97 -18t74 -49t47.5 -72.5t16.5 -88.5q0 -49 -18 -92t-50.5 -75t-77 -50.5t-98.5 -18.5zM263 6q26 0 46.5 15.5t35 42.5t22 63.5t7.5 79.5q0 74 -13 123t-37 73q-11 11 -26 18.5
t-36 7.5q-27 0 -47.5 -15t-35 -42t-21.5 -63t-7 -78q0 -148 49 -199q24 -26 63 -26zM318 683h120l-202 -185h-18z" />
    <glyph glyph-name="ocircumflex" unicode="&#xf4;" 
d="M259 -14q-54 0 -97.5 18t-74 49.5t-47 73.5t-16.5 90t18 90.5t50.5 74t77 50t98.5 18.5t97 -18t74 -49t47.5 -72.5t16.5 -88.5q0 -49 -18 -92t-50.5 -75t-77 -50.5t-98.5 -18.5zM263 6q26 0 46.5 15.5t35 42.5t22 63.5t7.5 79.5q0 74 -13 123t-37 73q-11 11 -26 18.5
t-36 7.5q-27 0 -47.5 -15t-35 -42t-21.5 -63t-7 -78q0 -148 49 -199q24 -26 63 -26zM253 688h19l136 -197h-15l-129 98h-2l-131 -98h-14z" />
    <glyph glyph-name="otilde" unicode="&#xf5;" 
d="M259 -14q-54 0 -97.5 18t-74 49.5t-47 73.5t-16.5 90t18 90.5t50.5 74t77 50t98.5 18.5t97 -18t74 -49t47.5 -72.5t16.5 -88.5q0 -49 -18 -92t-50.5 -75t-77 -50.5t-98.5 -18.5zM263 6q26 0 46.5 15.5t35 42.5t22 63.5t7.5 79.5q0 74 -13 123t-37 73q-11 11 -26 18.5
t-36 7.5q-27 0 -47.5 -15t-35 -42t-21.5 -63t-7 -78q0 -148 49 -199q24 -26 63 -26zM339 505q-23 0 -48 10t-48.5 22.5t-45 22.5t-37.5 10q-15 0 -26.5 -9.5t-16.5 -46.5h-18q7 71 26 99t61 28q23 0 47.5 -10t48.5 -22.5t45 -22.5t37 -10t27.5 9.5t17.5 46.5h16
q-6 -70 -25 -98.5t-61 -28.5z" />
    <glyph glyph-name="odieresis" unicode="&#xf6;" 
d="M259 -14q-54 0 -97.5 18t-74 49.5t-47 73.5t-16.5 90t18 90.5t50.5 74t77 50t98.5 18.5t97 -18t74 -49t47.5 -72.5t16.5 -88.5q0 -49 -18 -92t-50.5 -75t-77 -50.5t-98.5 -18.5zM263 6q26 0 46.5 15.5t35 42.5t22 63.5t7.5 79.5q0 74 -13 123t-37 73q-11 11 -26 18.5
t-36 7.5q-27 0 -47.5 -15t-35 -42t-21.5 -63t-7 -78q0 -148 49 -199q24 -26 63 -26zM363 514q-30 0 -45.5 19.5t-15.5 42.5q0 22 15.5 42.5t45.5 20.5t45.5 -20.5t15.5 -42.5q0 -23 -15.5 -42.5t-45.5 -19.5zM163 514q-30 0 -46.5 19.5t-16.5 42.5q0 22 16.5 42.5t46.5 20.5
t45.5 -20.5t15.5 -42.5q0 -23 -15.5 -42.5t-45.5 -19.5z" />
    <glyph glyph-name="divide" unicode="&#xf7;" horiz-adv-x="448" 
d="M275 377q0 -20 -14.5 -36t-37.5 -16q-22 0 -36.5 16t-14.5 36t14.5 35t36.5 15q23 0 37.5 -15t14.5 -35zM22 223l3 26h398l3 -26h-404zM275 98q0 -20 -14.5 -36t-36.5 -16q-23 0 -37.5 16t-14.5 36t14.5 34.5t37.5 14.5q22 0 36.5 -14.5t14.5 -34.5z" />
    <glyph glyph-name="oslash" unicode="&#xf8;" 
d="M132 19q-52 30 -80 82.5t-28 115.5q0 48 18 90.5t50.5 74t77 50t98.5 18.5q55 0 101 -20l87 150h22q-26 -45 -46 -79q-9 -15 -17 -29.5t-15 -25.5q-8 -13 -14 -24q56 -29 86.5 -82.5t30.5 -117.5q0 -49 -18 -92t-50.5 -75t-77 -50.5t-98.5 -18.5q-64 0 -110 24l-81 -139
h-22zM341 381q-8 13 -17 22q-11 11 -26 19t-36 8q-27 0 -47.5 -15.5t-35 -42t-21.5 -63t-7 -78.5q0 -93 19 -146zM179 62q9 -18 21 -30q24 -26 63 -26q26 0 46.5 15.5t35 42.5t22 63.5t7.5 79.5q0 98 -23 153z" />
    <glyph glyph-name="ugrave" unicode="&#xf9;" horiz-adv-x="528" 
d="M350 71h-2q-18 -16 -38 -31.5t-41 -27.5t-43.5 -19t-46.5 -7q-25 0 -43.5 8.5t-36.5 25.5q-17 18 -25 46.5t-7 65.5l1 271q0 6 -7.5 8.5t-41.5 6.5l-16 1l-3 16h184l-3 -277q-1 -54 21 -74.5t64 -20.5q26 0 47 9t36 20v298q0 15 -8.5 20.5t-38.5 7.5l-18 1l-4 16h183
v-339q0 -26 5 -34.5t20 -13.5l41 -10l-2 -11l-178 -43zM85 683h121l99 -185h-17z" />
    <glyph glyph-name="uacute" unicode="&#xfa;" horiz-adv-x="528" 
d="M350 71h-2q-18 -16 -38 -31.5t-41 -27.5t-43.5 -19t-46.5 -7q-25 0 -43.5 8.5t-36.5 25.5q-17 18 -25 46.5t-7 65.5l1 271q0 6 -7.5 8.5t-41.5 6.5l-16 1l-3 16h184l-3 -277q-1 -54 21 -74.5t64 -20.5q26 0 47 9t36 20v298q0 15 -8.5 20.5t-38.5 7.5l-18 1l-4 16h183
v-339q0 -26 5 -34.5t20 -13.5l41 -10l-2 -11l-178 -43zM314 683h120l-202 -185h-18z" />
    <glyph glyph-name="ucircumflex" unicode="&#xfb;" horiz-adv-x="528" 
d="M350 71h-2q-18 -16 -38 -31.5t-41 -27.5t-43.5 -19t-46.5 -7q-25 0 -43.5 8.5t-36.5 25.5q-17 18 -25 46.5t-7 65.5l1 271q0 6 -7.5 8.5t-41.5 6.5l-16 1l-3 16h184l-3 -277q-1 -54 21 -74.5t64 -20.5q26 0 47 9t36 20v298q0 15 -8.5 20.5t-38.5 7.5l-18 1l-4 16h183
v-339q0 -26 5 -34.5t20 -13.5l41 -10l-2 -11l-178 -43zM250 688h19l136 -197h-15l-129 98h-2l-131 -98h-14z" />
    <glyph glyph-name="udieresis" unicode="&#xfc;" horiz-adv-x="528" 
d="M350 71h-2q-18 -16 -38 -31.5t-41 -27.5t-43.5 -19t-46.5 -7q-25 0 -43.5 8.5t-36.5 25.5q-17 18 -25 46.5t-7 65.5l1 271q0 6 -7.5 8.5t-41.5 6.5l-16 1l-3 16h184l-3 -277q-1 -54 21 -74.5t64 -20.5q26 0 47 9t36 20v298q0 15 -8.5 20.5t-38.5 7.5l-18 1l-4 16h183
v-339q0 -26 5 -34.5t20 -13.5l41 -10l-2 -11l-178 -43zM169 514q-30 0 -46.5 19.5t-16.5 42.5q0 22 16.5 42.5t46.5 20.5t45.5 -20.5t15.5 -42.5q0 -23 -15.5 -42.5t-45.5 -19.5zM369 514q-30 0 -45.5 19.5t-15.5 42.5q0 22 15.5 42.5t45.5 20.5t45.5 -20.5t15.5 -42.5
q0 -23 -15.5 -42.5t-45.5 -19.5z" />
    <glyph glyph-name="yacute" unicode="&#xfd;" horiz-adv-x="480" 
d="M102 -258q-27 0 -48.5 16.5t-21.5 45.5q0 23 16 40t42 17q29 0 44.5 -16t20.5 -36q17 5 28.5 23.5t24.5 56.5l34 97h-9l-170 379q-7 15 -12 24t-10.5 14t-13 7.5t-19.5 4.5l-18 4l-3 16h250l-3 -16l-20 -3q-26 -3 -31.5 -12.5t4.5 -32.5l105 -247l68 188q11 30 15 49
t0 30t-15.5 16t-32.5 8l-20 4l-3 16h181l-3 -16l-20 -3q-15 -2 -24.5 -6t-17.5 -16t-16.5 -33t-21.5 -55l-111 -295l-45 -137q-23 -67 -51.5 -99.5t-72.5 -32.5zM303 683h120l-202 -185h-18z" />
    <glyph glyph-name="thorn" unicode="&#xfe;" 
d="M-7 -233l21 1q21 2 30.5 4.5t9.5 12.5v771q0 27 -7 37t-27 16l-31 11l1 12l177 47v-319l4 -1q29 36 68 61t85 25q38 0 70.5 -16t56.5 -44.5t38 -68t14 -85.5q0 -59 -20.5 -104.5t-54.5 -76.5t-77 -47.5t-88 -16.5q-28 0 -52 4.5t-41 11.5h-3v-221q0 -5 9.5 -8.5
t38.5 -4.5l34 -1l3 -18h-262zM278 7q23 0 41.5 14.5t31.5 40t20 60t7 74.5q0 39 -8.5 71.5t-24 56t-38 37t-49.5 13.5q-29 0 -51.5 -12t-39.5 -28v-241q21 -38 50.5 -62t60.5 -24z" />
    <glyph glyph-name="ydieresis" unicode="&#xff;" horiz-adv-x="480" 
d="M102 -258q-27 0 -48.5 16.5t-21.5 45.5q0 23 16 40t42 17q29 0 44.5 -16t20.5 -36q17 5 28.5 23.5t24.5 56.5l34 97h-9l-170 379q-7 15 -12 24t-10.5 14t-13 7.5t-19.5 4.5l-18 4l-3 16h250l-3 -16l-20 -3q-26 -3 -31.5 -12.5t4.5 -32.5l105 -247l68 188q11 30 15 49
t0 30t-15.5 16t-32.5 8l-20 4l-3 16h181l-3 -16l-20 -3q-15 -2 -24.5 -6t-17.5 -16t-16.5 -33t-21.5 -55l-111 -295l-45 -137q-23 -67 -51.5 -99.5t-72.5 -32.5zM347 514q-30 0 -45.5 19.5t-15.5 42.5q0 22 15.5 42.5t45.5 20.5t45.5 -20.5t15.5 -42.5q0 -23 -15.5 -42.5
t-45.5 -19.5zM147 514q-30 0 -46.5 19.5t-16.5 42.5q0 22 16.5 42.5t46.5 20.5t45.5 -20.5t15.5 -42.5q0 -23 -15.5 -42.5t-45.5 -19.5z" />
    <glyph glyph-name="OE" unicode="&#x152;" horiz-adv-x="966" 
d="M386 0q-86 0 -152 21.5t-111 61t-68 96t-23 125.5q0 65 25.5 123.5t73.5 102.5t117 69.5t156 25.5h487l7 -204h-24l-10 34q-12 42 -28 71t-41 46.5t-61 24.5t-86 7l-58 -1v-274l32 1q30 1 52 5t37.5 12.5t25.5 22.5t16 34l12 33l19 -1l-25 -238h-19l-3 32q-2 22 -8 36
t-19.5 23t-36.5 13t-58 6l-25 1v-285l76 -3q53 0 90.5 10.5t64 30t44 48t30.5 64.5l10 31l25 -1l-25 -204h-519zM462 22v568l-68 14q-55 0 -97 -22.5t-70 -60.5t-42.5 -88t-14.5 -107q0 -68 15 -124t45 -96t76.5 -62t109.5 -22h46z" />
    <glyph glyph-name="oe" unicode="&#x153;" horiz-adv-x="807" 
d="M259 -16q-55 0 -98.5 18t-74 49.5t-46.5 73.5t-16 90q0 49 18 92t50.5 75t77 50.5t98.5 18.5q56 0 100 -20t73 -53q31 33 73.5 53t95.5 20q40 0 72 -11.5t53.5 -31.5t33 -46.5t11.5 -56.5q0 -7 -1 -14t-3 -14q-73 0 -132 1q-25 0 -50 0.5t-45 1t-34.5 1t-18.5 0.5
q-1 -8 -1.5 -19t-0.5 -19q0 -41 11.5 -75t31.5 -58t47.5 -37.5t60.5 -13.5q40 0 71.5 17.5t56.5 56.5l11 -6q-30 -68 -80 -105t-122 -37q-49 0 -85 18.5t-65 50.5q-32 -32 -75.5 -51t-97.5 -19zM497 298h85h58q14 0 26 1q0 25 -3.5 48.5t-11.5 41.5t-22 29t-33 11
q-35 0 -63 -35.5t-36 -95.5zM263 4q26 0 46.5 15t34.5 42t21.5 64t7.5 81q0 75 -12.5 124t-35.5 73q-11 12 -26.5 19.5t-36.5 7.5q-27 0 -47.5 -15.5t-34.5 -42.5t-21.5 -64t-7.5 -80q0 -75 12.5 -123.5t35.5 -73.5q25 -27 64 -27z" />
    <glyph glyph-name="Scaron" unicode="&#x160;" horiz-adv-x="525" 
d="M249 -13q-58 -1 -107 8.5t-91 24.5l-11 170h24l42 -99q54 -82 149 -82q63 1 97 34.5t34 86.5q0 31 -12 52.5t-32.5 38t-48.5 28.5t-61 23q-37 13 -69.5 28t-56.5 36t-38 49.5t-14 67.5q0 37 15 71t43 59t67.5 40t89.5 15q42 0 76.5 -6.5t61.5 -14.5l44 14l3 -185h-22
l-72 144q-18 11 -41 18.5t-54 7.5q-52 0 -83 -28.5t-31 -70.5q0 -27 11.5 -46.5t31 -33.5t46 -25.5t56.5 -21.5q41 -14 75.5 -30.5t60 -39.5t39.5 -54t14 -74q0 -40 -17 -77t-47.5 -65.5t-74 -45.5t-97.5 -17zM122 865h14l131 -99h2l130 99h14l-136 -197h-19z" />
    <glyph glyph-name="scaron" unicode="&#x161;" horiz-adv-x="393" 
d="M181 -14q-43 0 -80.5 7t-66.5 18l-6 128l24 -1l25 -57q22 -36 47.5 -55.5t62.5 -19.5q39 0 62.5 21t23.5 55q0 18 -8.5 31.5t-23 24t-34 19.5t-41.5 17q-26 10 -50 21.5t-42 27t-28.5 37t-10.5 52.5q0 30 12 55.5t33.5 43.5t52 28t67.5 10q29 0 54 -4.5t45 -11.5l41 10
l5 -135l-23 -1l-60 100q-12 8 -28 15t-36 7q-35 0 -55 -18.5t-20 -50.5q0 -35 29 -52.5t76 -34.5q26 -10 50.5 -21.5t44 -27.5t31 -38.5t11.5 -54.5q0 -28 -11.5 -54t-34.5 -46.5t-57.5 -32.5t-80.5 -12zM49 678h14l131 -99h2l130 99h14l-136 -197h-19z" />
    <glyph glyph-name="Ydieresis" unicode="&#x178;" horiz-adv-x="635" 
d="M163 16l47 4q23 2 33 7t10 11v238l-144 252q-12 20 -21.5 34t-18.5 22.5t-19.5 13t-25.5 6.5l-23 4l-3 17h302l-3 -17l-22 -2q-40 -5 -44.5 -21.5t17.5 -54.5l118 -214h4l79 146q23 42 34 68.5t10 42t-15 22.5t-42 10l-23 3l-3 17h225l-3 -17l-25 -4q-17 -3 -31 -8.5
t-28 -20.5t-31.5 -42.5t-41.5 -72.5l-92 -165v-260q0 -6 9 -9t42 -6l38 -4l3 -16h-315zM428 681q-30 0 -45.5 19.5t-15.5 42.5q0 22 15.5 42.5t45.5 20.5t45.5 -20.5t15.5 -42.5q0 -23 -15.5 -42.5t-45.5 -19.5zM228 681q-30 0 -46.5 19.5t-16.5 42.5q0 22 16.5 42.5
t46.5 20.5t45.5 -20.5t15.5 -42.5q0 -23 -15.5 -42.5t-45.5 -19.5z" />
    <glyph glyph-name="Zcaron" unicode="&#x17d;" horiz-adv-x="603" 
d="M32 17l377 583v3h-96q-51 0 -87.5 -9.5t-62.5 -28t-43.5 -46t-30.5 -64.5l-8 -30h-25l9 200h497v-18l-384 -581v-3l105 -2q59 -2 99 7.5t68.5 30.5t48.5 54.5t40 79.5l11 31h26l-29 -224h-515v17zM159 858h14l131 -99h2l130 99h14l-136 -197h-19z" />
    <glyph glyph-name="zcaron" unicode="&#x17e;" horiz-adv-x="454" 
d="M21 14l262 401l-44 -1q-38 -1 -63.5 -7.5t-43 -18.5t-29.5 -30t-22 -42l-20 -50h-21v169h378v-15l-265 -399h48q41 1 71.5 9.5t53 22.5t38 34t27.5 43l21 41h21l-34 -171h-378v14zM83 674h14l131 -99h2l130 99h14l-136 -197h-19z" />
    <glyph glyph-name="florin" unicode="&#x192;" horiz-adv-x="552" 
d="M98 -55q-47 0 -76 20.5t-29 53.5q0 23 16 41.5t45 18.5q16 0 30.5 -8.5t22 -22t7.5 -31.5t-12 -36l16 -2q6 -1 12.5 -1.5t9.5 -0.5q12 3 22 18t19.5 45.5t20.5 79t25 119.5l19 108l-104 4l16 42l100 11q14 53 35 101.5t49 77.5q26 26 64 40.5t78 14.5q48 0 76 -22t28 -56
q0 -26 -18 -44t-43 -18q-22 0 -36 10.5t-19 25.5t-0.5 33t20.5 33q-8 2 -15 4q-6 2 -12.5 3t-10.5 1q-15 -3 -26.5 -21t-21 -46.5t-17.5 -64.5t-17 -75h123l-5 -50h-127l-23 -96q-20 -89 -47.5 -153t-69.5 -106q-26 -26 -59 -38.5t-66 -12.5z" />
    <glyph glyph-name="circumflex" unicode="&#x2c6;" horiz-adv-x="379" 
d="M180 688h19l136 -197h-15l-129 98h-2l-131 -98h-14z" />
    <glyph glyph-name="tilde" unicode="&#x2dc;" horiz-adv-x="393" 
d="M273 505q-23 0 -48 10t-48.5 22.5t-45 22.5t-37.5 10q-15 0 -26.5 -9.5t-16.5 -46.5h-18q7 71 26 99t61 28q23 0 47.5 -10t48.5 -22.5t45 -22.5t37 -10t27.5 9.5t17.5 46.5h16q-6 -70 -25 -98.5t-61 -28.5z" />
    <glyph glyph-name="endash" unicode="&#x2013;" horiz-adv-x="440" 
d="M15 258h410l2 -42h-415z" />
    <glyph glyph-name="emdash" unicode="&#x2014;" horiz-adv-x="909" 
d="M15 258h880l3 -42h-886z" />
    <glyph glyph-name="quoteleft" unicode="&#x2018;" horiz-adv-x="209" 
d="M115 375q-45 0 -70 29.5t-25 69.5q0 52 41.5 100.5t112.5 80.5l12 -12q-43 -23 -65.5 -54t-22.5 -65q0 -27 13.5 -42t30 -23t30.5 -11t14 -4q0 -11 -4.5 -23.5t-13 -22.5t-22 -16.5t-31.5 -6.5z" />
    <glyph glyph-name="quoteright" unicode="&#x2019;" horiz-adv-x="209" 
d="M24 384q43 23 65.5 54t22.5 65q0 27 -14 42t-30.5 23t-30 10.5t-13.5 4.5q0 11 4.5 23.5t13 22.5t22 16.5t31.5 6.5q44 0 69.5 -29.5t25.5 -69.5q0 -53 -41.5 -100.5t-112.5 -79.5z" />
    <glyph glyph-name="quotesinglbase" unicode="&#x201a;" horiz-adv-x="209" 
d="M24 -133q43 23 65.5 54t22.5 65q0 27 -14 42t-30.5 23t-30 10.5t-13.5 4.5q0 11 4.5 23.5t13 22.5t22 16.5t31.5 6.5q44 0 69.5 -29.5t25.5 -69.5q0 -53 -41.5 -100.5t-112.5 -79.5z" />
    <glyph glyph-name="quotedblleft" unicode="&#x201c;" horiz-adv-x="405" 
d="M313 375q-44 0 -69 29.5t-25 69.5q0 52 41 100.5t112 80.5l12 -12q-42 -23 -65.5 -54t-23.5 -65q0 -27 14 -42t30.5 -23t30.5 -11t14 -4q0 -11 -4.5 -23.5t-13 -22.5t-22 -16.5t-31.5 -6.5zM115 375q-45 0 -70 29.5t-25 69.5q0 52 41.5 100.5t112.5 80.5l12 -12
q-43 -23 -65.5 -54t-22.5 -65q0 -27 13.5 -42t30 -23t30.5 -11t14 -4q0 -11 -4.5 -23.5t-13 -22.5t-22 -16.5t-31.5 -6.5z" />
    <glyph glyph-name="quotedblright" unicode="&#x201d;" horiz-adv-x="405" 
d="M222 384q43 23 65.5 54t22.5 65q0 27 -14 42t-30.5 23t-30 10.5t-13.5 4.5q0 11 4.5 23.5t13.5 22.5t22 16.5t31 6.5q44 0 69.5 -29.5t25.5 -69.5q0 -53 -41.5 -100.5t-112.5 -79.5zM24 384q43 23 65.5 54t22.5 65q0 27 -14 42t-30.5 23t-30 10.5t-13.5 4.5
q0 11 4.5 23.5t13 22.5t22 16.5t31.5 6.5q44 0 69.5 -29.5t25.5 -69.5q0 -53 -41.5 -100.5t-112.5 -79.5z" />
    <glyph glyph-name="quotedblbase" unicode="&#x201e;" horiz-adv-x="403" 
d="M222 -133q43 23 65.5 54t22.5 65q0 27 -14 42t-30.5 23t-30 10.5t-13.5 4.5q0 11 4.5 23.5t13.5 22.5t22 16.5t31 6.5q44 0 69.5 -29.5t25.5 -69.5q0 -53 -41.5 -100.5t-112.5 -79.5zM24 -133q43 23 65.5 54t22.5 65q0 27 -14 42t-30.5 23t-30 10.5t-13.5 4.5
q0 11 4.5 23.5t13 22.5t22 16.5t31.5 6.5q44 0 69.5 -29.5t25.5 -69.5q0 -53 -41.5 -100.5t-112.5 -79.5z" />
    <glyph glyph-name="dagger" unicode="&#x2020;" horiz-adv-x="444" 
d="M212 406h-196l-1 21h197v198h21v-198h198l-2 -21h-196v-562h-21v562z" />
    <glyph glyph-name="daggerdbl" unicode="&#x2021;" horiz-adv-x="444" 
d="M212 31h-197l1 21h196v364h-196l-1 21h197v188h21v-188h198l-2 -21h-196v-364h196l2 -21h-198v-187h-21v187z" />
    <glyph glyph-name="bullet" unicode="&#x2022;" horiz-adv-x="434" 
d="M217 39q-11 0 -30.5 6t-40.5 14.5t-39 18t-25 17.5q-8 8 -17.5 26t-18.5 39t-15 41t-6 31t6 30.5t15 40.5t18.5 39t17.5 26q7 7 25.5 17t39.5 18.5t40.5 14.5t30.5 6t30.5 -6t40.5 -14.5t39 -18.5t26 -17q7 -8 17 -26t18.5 -39t14.5 -40.5t6 -30.5t-6 -31t-14.5 -41
t-18 -39t-17.5 -26t-26 -17.5t-39 -18t-41 -14.5t-31 -6z" />
    <glyph glyph-name="ellipsis" unicode="&#x2026;" horiz-adv-x="658" 
d="M552 -13q-29 0 -49.5 21t-20.5 50q0 28 20.5 48.5t49.5 20.5q30 0 50 -21t20 -48q0 -29 -20 -50t-50 -21zM330 -13q-30 0 -50.5 21t-20.5 50q0 28 20.5 48.5t50.5 20.5q29 0 49.5 -21t20.5 -48q0 -29 -20.5 -50t-49.5 -21zM108 -13q-30 0 -50.5 21t-20.5 50
q0 28 20.5 48.5t49.5 20.5q30 0 50 -21t20 -48q0 -29 -20 -50t-49 -21z" />
    <glyph glyph-name="perthousand" unicode="&#x2030;" horiz-adv-x="910" 
d="M147 365q-32 0 -57 11t-42.5 30t-27 44t-9.5 53t9.5 53.5t27 44.5t42.5 30.5t57 11.5t57.5 -11.5t43.5 -30.5t27.5 -44.5t9.5 -53.5t-9.5 -53t-27.5 -44t-43.5 -30t-57.5 -11zM510 640h24l-451 -654h-25zM762 -17q-32 0 -57.5 11t-43 30t-27 44t-9.5 53t9.5 53.5t27 44.5
t43 30.5t57.5 11.5t57.5 -11.5t43 -30.5t27 -44.5t9.5 -53.5t-9.5 -53t-27 -44t-43 -30t-57.5 -11zM446 -17q-32 0 -57 11t-42.5 30t-27 44t-9.5 53t9.5 53.5t27 44.5t42.5 30.5t57 11.5t57.5 -11.5t43 -30.5t27 -44.5t9.5 -53.5t-9.5 -53t-27 -44t-43 -30t-57.5 -11z
M147 385q27 0 48 9.5t36 25.5t23 37.5t8 45.5t-8 46t-23 38.5t-36 26t-48 9.5q-26 0 -47 -9.5t-35.5 -26t-22.5 -38.5t-8 -46t8 -45.5t22.5 -37.5t35.5 -25.5t47 -9.5zM762 3q53 0 83.5 34t30.5 84q0 24 -8 45.5t-23 38t-36 26.5t-47 10t-47 -10t-36 -26.5t-23 -38t-8 -45.5
q0 -50 30.5 -84t83.5 -34zM446 3q53 0 83.5 34t30.5 84q0 24 -8 45.5t-23 38t-36 26.5t-47 10t-47 -10t-35.5 -26.5t-22.5 -38t-8 -45.5q0 -50 30 -84t83 -34z" />
    <glyph glyph-name="guilsinglleft" unicode="&#x2039;" horiz-adv-x="281" 
d="M18 208v28l235 169l5 -8l-127 -176l128 -174l-6 -8z" />
    <glyph glyph-name="guilsinglright" unicode="&#x203a;" horiz-adv-x="282" 
d="M24 47l129 174l-129 176l6 8l235 -169v-28l-235 -169z" />
    <glyph glyph-name="Euro" unicode="&#x20ac;" horiz-adv-x="517" 
d="M309 -13q-45 0 -85 16.5t-71.5 47t-53 74.5t-30.5 100h-64l3 21h58q-3 27 -3 50q0 14 1 28.5t4 28.5h-63l3 21h63q12 59 39 106.5t64.5 80.5t83 51t93.5 18q69 0 109 -23t40 -65q0 -23 -18 -40.5t-44 -17.5q-21 0 -35.5 10.5t-21.5 27t-6 35t12 35.5q-8 5 -17.5 10
t-28.5 5q-32 0 -58.5 -17.5t-46.5 -48t-33 -73.5t-17 -94h192l3 -21h-197v-33q0 -18 1 -36.5t4 -37.5h189l3 -21h-187q18 -78 62.5 -121t108.5 -43q45 0 79 18.5t60 59.5l11 -7q-32 -67 -83 -106t-123 -39z" />
    <glyph glyph-name="trademark" unicode="&#x2122;" horiz-adv-x="569" 
d="M259 415l12 1q13 1 16 7.5t4 37.5l4 137q-5 12 -17 13l-16 3l-1 11h95l44 -155h4l51 155h96l-1 -11l-18 -3q-13 -1 -13 -7l4 -167q0 -12 3 -15t12 -5l15 -2l2 -12h-115v12l19 2q7 2 9 5.5t1 15.5l-3 165h-3l-68 -196h-24l-58 190h-4l-3 -138q-1 -29 2.5 -35.5t17.5 -7.5
l13 -1l1 -12h-83zM72 415l20 2q11 1 11 7v189h-5q-24 0 -37.5 -17.5t-22.5 -42.5l-4 -9h-13l6 81h209l3 -81h-13l-3 9q-10 28 -22 44t-38 16h-7v-190q0 -2 2.5 -3t11.5 -3l16 -2l1 -12h-115v12z" />
    </font>
</defs>
</svg>
